<?xml version="1.0" encoding="UTF-8"?>
<svg width="42px" height="42px" viewBox="0 0 42 42" version="1.1" xmlns="http://www.w3.org/2000/svg" xmlns:xlink="http://www.w3.org/1999/xlink">
    <!-- Generator: Sketch 41 (35326) - http://www.bohemiancoding.com/sketch -->
    <title>Shape Copy 36</title>
    <desc>Created with Sketch.</desc>
    <defs></defs>
    <g id="Page-1" stroke="none" stroke-width="1" fill="none" fill-rule="evenodd">
        <g id="Search-apartments-Copy-7" transform="translate(-844.000000, -2092.000000)" fill="#998100">
            <path d="M865.004566,2092 C876.584475,2092 886,2101.41553 886,2112.99543 C886,2124.57534 876.584475,2134 865.004566,2134 C853.415525,2134 844,2124.57534 844,2112.99543 C844,2101.41553 853.415525,2092 865.004566,2092 L865.004566,2092 Z M865.004566,2132.63927 C875.835616,2132.63927 884.648402,2123.82648 884.648402,2112.99543 C884.648402,2102.16438 875.835616,2093.3516 865.004566,2093.3516 C854.392694,2093.3516 845.726027,2101.79909 845.369863,2112.31963 L867.351598,2112.27397 L863.534247,2108.46575 L864.493151,2107.50685 L869.936073,2112.94977 L864.392694,2118.49315 L863.43379,2117.53425 L867.342466,2113.6347 L845.369863,2113.67123 C845.726027,2124.19178 854.392694,2132.63927 865.004566,2132.63927 L865.004566,2132.63927 Z" id="Shape-Copy-36"></path>
        </g>
    </g>
</svg>