<?xml version="1.0" encoding="UTF-8"?>
<svg width="42px" height="42px" viewBox="0 0 42 42" version="1.1" xmlns="http://www.w3.org/2000/svg" xmlns:xlink="http://www.w3.org/1999/xlink">
    <!-- Generator: Sketch 41 (35326) - http://www.bohemiancoding.com/sketch -->
    <title>Shape Copy 30</title>
    <desc>Created with Sketch.</desc>
    <defs></defs>
    <g id="Page-1" stroke="none" stroke-width="1" fill="none" fill-rule="evenodd">
        <g id="Card-Copy-13" transform="translate(-443.000000, -4032.000000)" fill="#B4AEA5">
            <path d="M464.004566,4032 C475.584475,4032 485,4041.41553 485,4052.99543 C485,4064.57534 475.584475,4074 464.004566,4074 C452.415525,4074 443,4064.57534 443,4052.99543 C443,4041.41553 452.415525,4032 464.004566,4032 L464.004566,4032 Z M464.004566,4072.63927 C474.835616,4072.63927 483.648402,4063.82648 483.648402,4052.99543 C483.648402,4042.16438 474.835616,4033.3516 464.004566,4033.3516 C453.392694,4033.3516 444.726027,4041.79909 444.369863,4052.31963 L466.351598,4052.27397 L462.534247,4048.46575 L463.493151,4047.50685 L468.936073,4052.94977 L463.392694,4058.49315 L462.43379,4057.53425 L466.342466,4053.6347 L444.369863,4053.67123 C444.726027,4064.19178 453.392694,4072.63927 464.004566,4072.63927 L464.004566,4072.63927 Z" id="Shape-Copy-30"></path>
        </g>
    </g>
</svg>