<?xml version="1.0" encoding="UTF-8"?>
<svg width="42px" height="42px" viewBox="0 0 42 42" version="1.1" xmlns="http://www.w3.org/2000/svg" xmlns:xlink="http://www.w3.org/1999/xlink">
    <!-- Generator: Sketch 41 (35326) - http://www.bohemiancoding.com/sketch -->
    <title>BG button Copy 5</title>
    <desc>Created with Sketch.</desc>
    <defs>
        <rect id="path-1" x="0" y="0" width="42" height="42"></rect>
        <mask id="mask-2" maskContentUnits="userSpaceOnUse" maskUnits="objectBoundingBox" x="0" y="0" width="42" height="42" fill="white">
            <use xlink:href="#path-1"></use>
        </mask>
    </defs>
    <g id="Page-1" stroke="none" stroke-width="1" fill="none" fill-rule="evenodd">
        <g id="Search-apartments-Новострой" transform="translate(-23.000000, -1262.000000)">
            <g id="Group-12" transform="translate(23.000000, 1262.000000)">
                <g id="BG-button-Copy-5">
                    <use stroke="#998100" mask="url(#mask-2)" stroke-width="2" xlink:href="#path-1"></use>
                    <path d="M16.9812012,7.89208984 C14.6904297,8.98120117 13.2814941,11.0144043 12.8547363,11.7514648 C12.4279785,12.4885254 11.5827637,18.1464844 12.0847168,19.7268066 C12.5866699,21.3071289 16.1289062,27.2324219 16.9812012,27.8547363 C17.8334961,28.4770508 21.782959,34.331543 21.782959,34.331543 C21.782959,34.331543 25.5471191,29.3654785 26.4702148,28.0366211 C27.3933105,26.7077637 31.0366211,21.5820312 31.0366211,21.5820312 C31.0366211,21.5820312 31.9716797,17.6796875 31.9716797,16.8071289 C31.9716797,15.9345703 30.4980469,10.5986328 29.8579102,10.1364746 C29.2177734,9.67431641 26.7229004,7.76220703 25.4724121,7.50341797 C24.2219238,7.24462891 22.4904785,6.80297852 22.1367187,6.80297852 C21.782959,6.80297852 19.2719727,6.80297852 16.9812012,7.89208984 Z" id="Path" fill="#998100" fill-rule="evenodd"></path>
                    <path d="M21.9487179,19.5454545 C20.3934872,19.5454545 19.1282051,18.322 19.1282051,16.8181818 C19.1282051,15.3143636 20.3934872,14.0909091 21.9487179,14.0909091 C23.5039487,14.0909091 24.7692308,15.3143636 24.7692308,16.8181818 C24.7692308,18.322 23.5039487,19.5454545 21.9487179,19.5454545 Z" id="Shape-Copy" fill="#998100" fill-rule="evenodd"></path>
                    <path d="M21.9487179,13 C19.7718462,13 18,14.7132727 18,16.8181818 C18,18.9230909 19.7718462,20.6363636 21.9487179,20.6363636 C24.1255897,20.6363636 25.8974359,18.9230909 25.8974359,16.8181818 C25.8974359,14.7132727 24.1255897,13 21.9487179,13 Z" id="Path" fill="#FFFFFF" fill-rule="evenodd"></path>
                    <path d="M29.4672782,9.06381818 C27.4240987,7.08818182 24.7073808,6 21.8180475,6 C18.92815,6 16.2119962,7.08818182 14.1688167,9.06381818 C10.3876372,12.7194545 9.91773977,19.5976364 13.1511757,23.7649091 L21.8180475,35.8674545 L30.4719449,23.7818182 C33.7183552,19.5976364 33.2484577,12.7194545 29.4672782,9.06381818 Z M29.5569705,23.1441818 L21.8180475,33.9507273 L14.0667141,23.1272727 C11.1339449,19.3461818 11.5542013,13.1345455 14.9670218,9.83509091 C16.7969705,8.06563636 19.2299449,7.09090909 21.8180475,7.09090909 C24.40615,7.09090909 26.8391244,8.06563636 28.6696372,9.83509091 C32.0824577,13.1345455 32.5027141,19.3461818 29.5569705,23.1441818 Z" id="Shape-Copy-2" fill="#998100" fill-rule="evenodd"></path>
                </g>
            </g>
        </g>
    </g>
</svg>