<?xml version="1.0" encoding="UTF-8"?>
<svg width="36px" height="21px" viewBox="0 0 36 21" version="1.1" xmlns="http://www.w3.org/2000/svg" xmlns:xlink="http://www.w3.org/1999/xlink">
    <!-- Generator: Sketch 41 (35326) - http://www.bohemiancoding.com/sketch -->
    <title>Fill 1</title>
    <desc>Created with Sketch.</desc>
    <defs></defs>
    <g id="Page-1" stroke="none" stroke-width="1" fill="none" fill-rule="evenodd">
        <g id="Card-Copy-14" transform="translate(-651.000000, -866.000000)" fill="#000000">
            <g id="Group-2" transform="translate(633.000000, 840.000000)">
                <g id="bathtub" transform="translate(18.000000, 26.000000)">
                    <path d="M35.9712,6.50855725 C35.9712,6.01257252 35.56992,5.61068702 35.07568,5.61068702 L5.41744,5.61068702 L5.41744,1.93680916 L8.23376,1.93680916 L8.23376,3.61312214 C8.23376,4.10894656 8.63504,4.51099237 9.12992,4.51099237 C9.62432,4.51099237 10.0256,4.10894656 10.0256,3.61312214 L10.0256,1.03941985 C10.0256,0.543435115 9.62432,0.141389313 9.12992,0.141389313 L4.52192,0.141389313 C4.02688,0.141389313 3.6256,0.543435115 3.6256,1.03941985 L3.6256,5.61068702 L0.89632,5.61068702 C0.40128,5.61068702 0,6.01257252 0,6.50855725 C0,12.1442519 3.38128,17.0035878 8.21744,19.1582519 L7.94192,19.2735115 C7.48496,19.4650763 7.26944,19.9911985 7.46064,20.448229 C7.60432,20.7927252 7.9368,21 8.28752,21 C8.40256,21 8.52,20.9773969 8.63248,20.9304275 L10.81504,20.0162061 C11.78,20.2310153 12.78192,20.3449924 13.81056,20.3449924 L22.16064,20.3449924 C23.37936,20.3449924 24.56128,20.1853282 25.68752,19.8871603 L28.17808,20.9304275 C28.2912,20.9773969 28.40816,21 28.52368,21 C28.87376,21 29.20688,20.7927252 29.35056,20.448229 C29.54128,19.9911985 29.32624,19.4650763 28.86944,19.2735115 L28.15248,18.9735802 C32.77504,16.7342748 35.9712,11.9884351 35.9712,6.50855725 Z M22.16064,18.5495725 L13.81056,18.5495725 C7.48496,18.5495725 2.28496,13.6277176 1.82496,7.40594656 L34.14624,7.40594656 C33.68624,13.6283588 28.48624,18.5495725 22.16064,18.5495725 Z" id="Fill-1"></path>
                </g>
            </g>
        </g>
    </g>
</svg>