<?xml version="1.0" encoding="UTF-8"?>
<svg width="33px" height="28px" viewBox="0 0 33 28" version="1.1" xmlns="http://www.w3.org/2000/svg" xmlns:xlink="http://www.w3.org/1999/xlink">
    <!-- Generator: Sketch 41 (35326) - http://www.bohemiancoding.com/sketch -->
    <title>Fill 1</title>
    <desc>Created with Sketch.</desc>
    <defs></defs>
    <g id="Page-1" stroke="none" stroke-width="1" fill="none" fill-rule="evenodd">
        <g id="Card-Copy-14" transform="translate(-901.000000, -861.000000)" fill="#000000">
            <g id="Group-2" transform="translate(633.000000, 840.000000)">
                <g id="bed-(1)" transform="translate(268.000000, 21.000000)">
                    <path d="M28.809,11.198 L28.801,11.198 L28.801,6.8 C28.801,3.491 26.105,0.8 22.793,0.8 L10.008,0.8 C6.695,0.8 4,3.491 4,6.8 L4,11.198 L3.992,11.198 C1.793,11.198 0,12.999 0,15.206 L0,27.999 L1.602,27.999 L1.602,24.8 L31.199,24.8 L31.199,27.999 L32.801,27.999 L32.801,15.206 C32.801,12.999 31.008,11.198 28.809,11.198 Z M5.602,6.8 C5.602,4.374 7.578,2.402 10.008,2.402 L22.793,2.402 C25.223,2.402 27.199,4.374 27.199,6.8 L27.199,11.198 L23.199,11.198 L23.199,6.402 C23.199,6.073 23,5.78 22.699,5.655 C22.527,5.589 18.531,3.999 16.398,3.999 C14.27,3.999 10.273,5.589 10.102,5.655 C9.801,5.78 9.602,6.073 9.602,6.402 L9.602,11.198 L5.602,11.198 L5.602,6.8 Z M21.602,6.948 L21.602,11.198 L11.199,11.198 L11.199,6.948 C12.539,6.448 15.078,5.601 16.398,5.601 C17.719,5.601 20.262,6.448 21.602,6.948 Z M1.602,23.198 L31.199,23.198 L31.199,20.8 L1.602,20.8 L1.602,23.198 Z M31.199,19.198 L1.602,19.198 L1.602,15.206 C1.602,13.882 2.672,12.8 3.992,12.8 L28.809,12.8 C30.129,12.8 31.199,13.882 31.199,15.206 L31.199,19.198 Z" id="Fill-1"></path>
                </g>
            </g>
        </g>
    </g>
</svg>