<?xml version="1.0" encoding="UTF-8"?>
<svg width="42px" height="42px" viewBox="0 0 42 42" version="1.1" xmlns="http://www.w3.org/2000/svg" xmlns:xlink="http://www.w3.org/1999/xlink">
    <!-- Generator: Sketch 41 (35326) - http://www.bohemiancoding.com/sketch -->
    <title>mp-n</title>
    <desc>Created with Sketch.</desc>
    <defs>
        <rect id="path-1" x="0" y="0" width="42" height="42"></rect>
        <mask id="mask-2" maskContentUnits="userSpaceOnUse" maskUnits="objectBoundingBox" x="0" y="0" width="42" height="42" fill="white">
            <use xlink:href="#path-1"></use>
        </mask>
    </defs>
    <g id="Page-1" stroke="none" stroke-width="1" fill="none" fill-rule="evenodd">
        <g id="Search-apartments-Новострой" transform="translate(-135.000000, -1262.000000)">
            <g id="mp-n" transform="translate(135.000000, 1262.000000)">
                <use id="BG-button" stroke="#998100" mask="url(#mask-2)" stroke-width="2" xlink:href="#path-1"></use>
                <path d="M20.9487179,13 C18.7718462,13 17,14.7132727 17,16.8181818 C17,18.9230909 18.7718462,20.6363636 20.9487179,20.6363636 C23.1255897,20.6363636 24.8974359,18.9230909 24.8974359,16.8181818 C24.8974359,14.7132727 23.1255897,13 20.9487179,13 Z M20.9487179,19.5454545 C19.3934872,19.5454545 18.1282051,18.322 18.1282051,16.8181818 C18.1282051,15.3143636 19.3934872,14.0909091 20.9487179,14.0909091 C22.5039487,14.0909091 23.7692308,15.3143636 23.7692308,16.8181818 C23.7692308,18.322 22.5039487,19.5454545 20.9487179,19.5454545 Z" id="Shape" fill="#998100" fill-rule="evenodd"></path>
                <path d="M28.4672782,9.06381818 C26.4240987,7.08818182 23.7073808,6 20.8180475,6 C17.92815,6 15.2119962,7.08818182 13.1688167,9.06381818 C9.38763721,12.7194545 8.91773977,19.5976364 12.1511757,23.7649091 L20.8180475,35.8674545 L29.4719449,23.7818182 C32.7183552,19.5976364 32.2484577,12.7194545 28.4672782,9.06381818 Z M28.5569705,23.1441818 L20.8180475,33.9507273 L13.0667141,23.1272727 C10.1339449,19.3461818 10.5542013,13.1345455 13.9670218,9.83509091 C15.7969705,8.06563636 18.2299449,7.09090909 20.8180475,7.09090909 C23.40615,7.09090909 25.8391244,8.06563636 27.6696372,9.83509091 C31.0824577,13.1345455 31.5027141,19.3461818 28.5569705,23.1441818 Z" id="Shape" fill="#998100" fill-rule="evenodd"></path>
            </g>
        </g>
    </g>
</svg>