<?xml version="1.0" encoding="UTF-8"?>
<svg width="201px" height="200px" viewBox="0 0 201 200" version="1.1" xmlns="http://www.w3.org/2000/svg" xmlns:xlink="http://www.w3.org/1999/xlink">
    <!-- Generator: sketchtool 41 (35326) - http://www.bohemiancoding.com/sketch -->
    <title>6EAEF066-D81E-49EA-B82F-B04A7DD2CE92</title>
    <desc>Created with sketchtool.</desc>
    <defs></defs>
    <g id="Page-1" stroke="none" stroke-width="1" fill="none" fill-rule="evenodd">
        <g id="Card" transform="translate(-1023.000000, -3056.000000)">
            <g id="video" transform="translate(135.000000, 2972.000000)">
                <g id="OFFER" transform="translate(803.000000, 71.000000)">
                    <g id="statue" transform="translate(85.882423, 13.000000)">
                        <g id="Page-1" transform="translate(19.000000, 15.601663)">
                            <path d="M20.5040591,163.028215 L20.7457133,163.432989 L21.193846,163.54519 C20.9627731,163.374475 20.733988,163.200635 20.5040591,163.028215" id="Fill-1" fill="#556388"></path>
                            <polygon id="Fill-3" fill="#FFFFFF" points="87.2393234 62.5187172 87.3203234 62.2867129 87.1738234 62.3693582"></polygon>
                            <polygon id="Fill-5" fill="#BAC0CF" points="74.3487056 69.5171767 84.4429879 70.2883784 87.2112869 62.418996 87.1738234 62.3337803"></polygon>
                            <polygon id="Fill-7" fill="#D9DCE4" points="90.4606923 69.8063702 87.2113727 62.4190244 84.4430736 70.2884068"></polygon>
                            <polygon id="Fill-9" fill="#B1B8C8" points="86.9669445 84.8461678 90.0727015 83.2069025 88.9081856 80.7004258"></polygon>
                            <polygon id="Fill-11" fill="#A5ADC0" points="84.5405647 74.626651 90.4606637 69.806285 84.443045 70.2883216"></polygon>
                            <polygon id="Fill-13" fill="#EBECF0" points="88.9081856 80.7004826 90.4607781 69.8062282 84.5406791 74.6265942"></polygon>
                            <polygon id="Fill-15" fill="#B6BCCC" points="82.0167224 91.5943393 74.4456533 97.2824848 84.3463262 93.3298983 83.0840047 92.1729537"></polygon>
                            <polygon id="Fill-17" fill="#959EB4" points="69.7718893 81.2788697 72.8928034 96.6080312 74.4456819 97.2826552 82.016751 91.5942257"></polygon>
                            <polygon id="Fill-19" fill="#2D3F6B" points="48.6984987 81.6590452 45.8595622 85.1832809 55.0312688 90.9858995"></polygon>
                            <path d="M45.859505,85.1831957 L37.950406,103.115412 L41.8812191,112.080952 C41.8812191,112.080952 45.9578826,85.6172275 45.859505,85.1831957" id="Fill-21" fill="#31436F"></path>
                            <polygon id="Fill-23" fill="#2F416D" points="58.9621391 59.1050441 58.916668 59.1050441 43.020683 60.6193264 45.8596194 65.8248672 58.9621391 65.1741036"></polygon>
                            <polygon id="Fill-25" fill="#2D3F6B" points="66.0013402 59.1050441 58.9621963 59.1050441 58.9621963 65.1741036"></polygon>
                            <polygon id="Fill-27" fill="#505F84" points="49.1351636 72.7660238 45.8595336 85.1830821 48.6984701 81.6591304"></polygon>
                            <polygon id="Fill-29" fill="#172B5D" points="111.429214 128.845117 112.902017 122.871214 105.695288 123.738994"></polygon>
                            <polygon id="Fill-31" fill="#1A2D5E" points="61.1460925 71.6814273 66.0014832 59.1050157 58.9620533 65.1740752"></polygon>
                            <polygon id="Fill-33" fill="#EEF0F3" points="98.7111673 52.2600391 78.6192645 52.2600391 87.2576159 55.7308731"></polygon>
                            <polygon id="Fill-35" fill="#D9DCE4" points="55.0312688 90.9860131 61.6820501 108.121463 67.2606875 106.386188"></polygon>
                            <polygon id="Fill-37" fill="#848FA9" points="64.9338006 68.6495108 66.0013688 59.1050725 61.1459781 71.6814841"></polygon>
                            <polygon id="Fill-39" fill="#2A3C6A" points="67.2606017 106.386131 61.6819643 108.121406 67.2606017 112.948873"></polygon>
                            <polygon id="Fill-41" fill="#263867" points="60.6630701 80.5076964 55.0312402 90.9860983 62.9923879 90.9860983"></polygon>
                            <polygon id="Fill-43" fill="#B8BECD" points="61.1460925 71.6814273 55.0312402 90.9858995 60.6630701 80.5077816"></polygon>
                            <polygon id="Fill-45" fill="#B1B8C8" points="69.881506 99.8792901 55.0313546 90.9858995 67.2604873 106.386074"></polygon>
                            <polygon id="Fill-47" fill="#C6CBD7" points="62.9923879 90.9860131 55.0312402 90.9860131 69.8813916 99.8794037"></polygon>
                            <polygon id="Fill-49" fill="#FFFFFF" points="80.2843621 123.097512 80.4278621 123.209531 80.3283621 123.056189"></polygon>
                            <polygon id="Fill-51" fill="#FFFFFF" points="80.3094998 123.068804 80.4089998 123.222644 80.3409998 123.03943"></polygon>
                            <polygon id="Fill-53" fill="#EEF0F3" points="78.6192931 52.2600391 66.0012258 59.1051293 83.1815529 60.1657802"></polygon>
                            <polygon id="Fill-55" fill="#AFB5C7" points="87.2576731 55.7308163 78.6193217 52.2599823 83.1815815 60.1657234"></polygon>
                            <polygon id="Fill-57" fill="#C9CDD9" points="83.1815815 60.1656666 66.0012544 59.1050157 64.9336862 68.649454"></polygon>
                            <polygon id="Fill-59" fill="#C9CDD9" points="87.2576731 62.2867697 87.2113441 62.419138 90.4606637 69.8064838 101.040828 68.2637963 87.9374507 59.1051009"></polygon>
                            <polygon id="Fill-61" fill="#B6BCCC" points="90.4026095 57.5391495 98.7112245 52.2600391 87.2576731 55.7308731"></polygon>
                            <polygon id="Fill-63" fill="#394974" points="127.096185 18.5393776 100.126432 39.1456611 107.660895 42.398911"></polygon>
                            <path d="M115.695197,52.3877774 L115.750197,52.7532091 L115.695197,52.3877774 Z" id="Fill-65" fill="#344570"></path>
                            <polygon id="Fill-67" fill="#344570" points="115.695197 52.3877774 115.726655 52.5962717 116.177647 53.4612107 149.371498 39.3625634 112.902017 47.1708745 115.726655 52.5962717"></polygon>
                            <polygon id="Fill-69" fill="#31436F" points="46.0778804 20.0578355 65.9504355 43.0498735 72.5016953 38.928844"></polygon>
                            <polygon id="Fill-71" fill="#344570" points="91.5331222 34.9328544 91.5331222 34.9328544 91.2374176 34.8183813 85.9622064 7.61214473 85.9622064 7.61271284 91.2374176 34.8183813"></polygon>
                            <polygon id="Fill-73" fill="#344570" points="91.5331222 34.9328544 91.2374176 34.8183813 85.9622064 7.61271284 83.6388942 36.976326 91.7190101 35.8920987"></polygon>
                            <polygon id="Fill-75" fill="#364772" points="8.73527047 135.017997 20.7456275 146.296858 12.8842873 126.124891"></polygon>
                            <polygon id="Fill-77" fill="#FFFFFF" points="111.444182 128.856709 111.431682 128.845259 111.426182 128.864675"></polygon>
                            <polygon id="Fill-79" fill="#FFFFFF" points="111.468154 63.9345705 111.426154 63.9256089 111.444154 63.9619529"></polygon>
                            <polygon id="Fill-81" fill="#FFFFFF" points="111.444182 63.9622236 111.426182 63.9253817 111.435182 63.9726787"></polygon>
                            <polygon id="Fill-83" fill="#FFFFFF" points="111.484711 128.884488 111.457711 128.859594 111.426211 128.856109"></polygon>
                            <polygon id="Fill-85" fill="#FFFFFF" points="111.458011 128.862858 111.444511 128.851905 111.426011 128.859373"></polygon>
                            <polygon id="Fill-87" fill="#FFFFFF" points="111.447238 63.9726787 111.438238 63.9253817 111.409738 64.0154949"></polygon>
                            <path d="M120.110891,63.7143593 L117.018003,64.2122225 L120.110891,63.7143593 Z" id="Fill-89" fill="#42527A"></path>
                            <polygon id="Fill-91" fill="#42527A" points="120.110891 63.7143593 117.018003 64.0515293 117.051177 65.1741036 152.865188 61.269806 116.832687 57.7995401 117.018003 64.0515293"></polygon>
                            <polygon id="Fill-93" fill="#233665" points="117.442371 77.1148915 115.299513 72.1482387 115.299513 72.1485227"></polygon>
                            <polygon id="Fill-95" fill="#233665" points="117.442371 77.1148915 115.299513 72.1485227 114.211926 80.3576316 117.924536 78.1886089 115.303803 72.1152886 115.299513 72.1482387"></polygon>
                            <polygon id="Fill-97" fill="#1C2F60" points="125.786104 125.040095 122.8588 124.0016 127.314961 131.113699"></polygon>
                            <polygon id="Fill-99" fill="#42527A" points="58.9621391 53.8951573 61.1461783 49.1230802 36.2506475 51.7258506"></polygon>
                            <polygon id="Fill-101" fill="#283A68" points="36.4691658 48.472487 35.3772892 30.9032897 27.1764892 21.5545634"></polygon>
                            <polygon id="Fill-103" fill="#233665" points="61.1460925 49.123137 36.4690514 48.4723734 36.2508477 51.7259074"></polygon>
                            <polygon id="Fill-105" fill="#1F3262" points="36.2507619 60.1656666 36.2507619 51.7259074 36.4692516 48.4723734 27.176575 21.5544498"></polygon>
                            <path d="M27.1764606,21.554535 L35.3772606,30.9032613 L27.3817951,8.52156627e-05 C26.8804699,0.315667221 26.3831484,0.63693027 25.8881148,0.960749789 L27.1764606,21.554535 Z" id="Fill-107" fill="#14295B"></path>
                            <polygon id="Fill-109" fill="#CDD2DC" points="77.5516105 41.4627318 72.5017525 38.928702 70.3691899 43.6800433"></polygon>
                            <polygon id="Fill-111" fill="#3D4E77" points="72.5016953 38.9287304 65.9504355 43.0500439 70.3691327 43.6800717"></polygon>
                            <polygon id="Fill-113" fill="#D0D4DE" points="65.9503783 43.0499871 61.1461783 49.1230234 58.9621391 59.1009253"></polygon>
                            <polygon id="Fill-115" fill="#D4D8E1" points="83.6390372 36.9762976 72.5017811 38.9288724 77.5516391 41.4626182"></polygon>
                            <polygon id="Fill-117" fill="#49587F" points="20.7457705 146.296858 16.5967536 156.491776 25.8662658 164.719632"></polygon>
                            <polygon id="Fill-119" fill="#B8BECD" points="58.9621391 59.1008685 61.1461783 49.1232506 58.9621391 53.8950437"></polygon>
                            <polygon id="Fill-121" fill="#4B5B81" points="25.8662086 126.397382 12.8840871 126.124976 33.1458628 142.160007"></polygon>
                            <polygon id="Fill-123" fill="#6D7998" points="2.62044673 120.919122 12.8843159 126.124947 20.1879925 99.8793753"></polygon>
                            <polygon id="Fill-125" fill="#B1B8C8" points="12.8842301 126.125004 20.7458563 146.296972 33.1457198 142.160035"></polygon>
                            <polygon id="Fill-127" fill="#405079" points="33.1457484 142.160064 20.7458849 146.296716 25.8660942 164.71949"></polygon>
                            <polygon id="Fill-129" fill="#8B95AE" points="19.0233336 26.7605303 6.11470935 36.7594521 11.7433935 49.1231086"></polygon>
                            <polygon id="Fill-131" fill="#E0E3E9" points="0 93.1549506 2.62044673 120.919066 20.1879925 99.8793185"></polygon>
                            <polygon id="Fill-133" fill="#5C6A8D" points="14.1947394 67.5603126 5.71962628e-05 93.1548369 20.1880497 99.8792049"></polygon>
                            <polygon id="Fill-135" fill="#A8AFC2" points="20.9159865 60.6191844 14.1948538 67.5602842 20.1878781 99.8791765"></polygon>
                            <polygon id="Fill-137" fill="#344570" points="70.3691327 43.6799581 65.9504355 43.0499303 58.9621963 59.1008685"></polygon>
                            <polygon id="Fill-139" fill="#AAB1C3" points="111.444313 128.858155 127.314846 131.113813 122.858685 124.00143 122.729136 123.955413 111.436592 128.851905"></polygon>
                            <polygon id="Fill-141" fill="#283A68" points="112.901874 122.871158 115.959301 103.783417 105.695431 108.121463"></polygon>
                            <path d="M127.314875,148.249177 L140.563531,163.336326 C142.805624,161.668088 144.970789,159.904124 147.061312,158.058636 L143.038413,144.345164 L127.314875,148.249177 Z" id="Fill-143" fill="#1C2F60"></path>
                            <polygon id="Fill-145" fill="#1F3262" points="122.729107 123.955499 115.959358 103.783247 112.901932 122.871271"></polygon>
                            <polygon id="Fill-147" fill="#C6CBD7" points="90.3598839 41.1218123 83.6390372 36.9763544 77.5516391 41.462675"></polygon>
                            <polygon id="Fill-149" fill="#BDC2D1" points="111.459671 128.8723 143.038585 144.345192 127.31476 131.113756 111.444228 128.858098"></polygon>
                            <path d="M140.563559,163.336383 L127.314903,148.249234 L133.57532,168.083748 C135.973273,166.596166 138.306881,165.015416 140.563559,163.336383" id="Fill-151" fill="#A3ABBE"></path>
                            <polygon id="Fill-153" fill="#9CA4B9" points="111.429214 128.845117 111.436363 128.85165 122.729193 123.955442 112.902017 122.871214"></polygon>
                            <polygon id="Fill-155" fill="#1F3262" points="115.836243 53.3192698 115.836243 53.3192698 116.350723 56.7256239 116.675312 56.7571537 116.675312 56.7568697 116.350723 56.7256239"></polygon>
                            <polygon id="Fill-157" fill="#1F3262" points="116.350666 56.7255387 116.675255 56.7567845 116.177647 53.4612107 115.836186 53.3191846"></polygon>
                            <polygon id="Fill-159" fill="#1F3262" points="115.836243 53.3192698 112.008383 51.726021 116.832602 57.7993413 116.675312 56.7571537 116.350723 56.7256239"></polygon>
                            <polygon id="Fill-161" fill="#0E1D3A" points="111.426154 63.9254669 111.450176 63.9305798 116.83263 57.7995969 112.008412 51.7259926"></polygon>
                            <polygon id="Fill-163" fill="#283A68" points="116.56907 64.1004999 117.017775 64.0516429 116.56907 64.1004999 116.338569 65.0160001"></polygon>
                            <polygon id="Fill-165" fill="#283A68" points="116.56907 64.1004999 116.338569 65.0160001 117.051234 65.1742172 117.017775 64.0516429"></polygon>
                            <polygon id="Fill-167" fill="#283A68" points="116.338655 65.0159149 116.569156 64.1004146 117.01786 64.0515577 116.83283 57.7995685 111.45009 63.9308355"></polygon>
                            <polygon id="Fill-169" fill="#283A68" points="115.726769 52.5962433 115.726769 52.5962433 115.918269 53.3191562"></polygon>
                            <polygon id="Fill-171" fill="#283A68" points="115.848222 53.3192698 116.226712 53.4612959 115.726712 52.596357"></polygon>
                            <polygon id="Fill-173" fill="#283A68" points="115.836243 53.3192698 115.726712 52.596357 112.901789 47.1709598 112.008383 51.726021"></polygon>
                            <polygon id="Fill-175" fill="#B6BCCC" points="112.00844 51.7259358 100.126489 39.1455475 91.7192103 35.8920135 99.2934252 40.884231"></polygon>
                            <polygon id="Fill-177" fill="#263867" points="119.453191 100.095937 114.212012 80.3577168 105.695203 108.121548"></polygon>
                            <polygon id="Fill-179" fill="#1F3262" points="115.959415 103.783332 119.453249 100.09605 105.69526 108.121377"></polygon>
                            <polygon id="Fill-181" fill="#14295B" points="105.695346 108.121519 114.211869 80.3576884 106.475789 79.0612741"></polygon>
                            <polygon id="Fill-183" fill="#172B5D" points="115.453977 72.167207 115.093477 71.6702297 115.092977 71.6696391 115.453977 72.1675023"></polygon>
                            <polygon id="Fill-185" fill="#172B5D" points="115.453763 72.1680704 115.461763 72.1337554 115.093263 71.6702072"></polygon>
                            <polygon id="Fill-187" fill="#172B5D" points="115.093092 71.6696391 111.436535 63.9465436 111.431101 63.9525087 114.211983 80.35766 115.29957 72.1485511"></polygon>
                            <polygon id="Fill-189" fill="#172B5D" points="116.338655 65.0159149 116.338655 65.0159149 115.171279 69.6533513"></polygon>
                            <polygon id="Fill-191" fill="#172B5D" points="114.821896 71.041344 114.821896 71.0416281 115.295896 71.6696675 115.296396 71.6702356"></polygon>
                            <polygon id="Fill-193" fill="#172B5D" points="115.171279 69.6533797 116.338655 65.0159433 111.45009 63.9308639 111.436363 63.9464868 115.093206 71.6695823 114.82181 71.0418269 114.82181 71.0412588 115.093492 71.6701504 115.303974 72.1152602 117.051034 65.1741604 116.338655 65.0159433"></polygon>
                            <polygon id="Fill-195" fill="#3D4E77" points="111.409681 63.9766531 106.475932 79.0612457 114.212012 80.35766 111.43113 63.9522246"></polygon>
                            <path d="M25.8662086,164.71949 L16.5966964,156.491634 L20.5040591,163.028243 C20.733988,163.200663 20.9627731,163.374503 21.193846,163.545218 L25.8662086,164.71949 Z" id="Fill-197" fill="#556388"></path>
                            <path d="M24.5355948,165.907823 C25.1513125,166.324811 25.7724639,166.734131 26.397905,167.137485 L25.8662658,164.719348 L24.5355948,165.907823 Z" id="Fill-199" fill="#364772"></path>
                            <path d="M21.1937316,163.545275 C22.2904699,164.355392 23.4049391,165.141933 24.5357092,165.907738 L25.8660942,164.719547 L21.1937316,163.545275 Z" id="Fill-201" fill="#D2D6E0"></path>
                            <polygon id="Fill-203" fill="#0E1D3A" points="112.00844 51.7259358 99.2934252 40.884231 98.7111673 52.2599539"></polygon>
                            <polygon id="Fill-205" fill="#31436F" points="111.426154 63.9254669 112.008412 51.7259926 98.7111387 52.2600107"></polygon>
                            <polygon id="Fill-207" fill="#172B5D" points="36.2507619 51.7259358 36.2507619 60.165695 43.0207974 60.6193264"></polygon>
                            <polygon id="Fill-209" fill="#AFB5C7" points="45.859505 65.824782 43.0208546 60.6192412 20.1878209 99.8792333 49.135135 72.7658818"></polygon>
                            <polygon id="Fill-211" fill="#2F416D" points="36.2507619 60.1656666 20.1880497 99.8792901 43.0207974 60.619298"></polygon>
                            <polygon id="Fill-213" fill="#132759" points="99.2934538 40.884231 90.3599697 41.1216987 77.5517249 41.4628454 78.6192931 52.2599539"></polygon>
                            <polygon id="Fill-215" fill="#49587F" points="77.5516105 41.4627318 70.3691899 43.6800433 78.6191787 52.2601244"></polygon>
                            <polygon id="Fill-217" fill="#394974" points="78.6192931 52.2600391 70.3690183 43.6799581 66.0012258 59.1051293"></polygon>
                            <polygon id="Fill-219" fill="#FFFFFF" points="58.996168 59.1082512 58.996168 59.1007833 58.916668 59.1082512"></polygon>
                            <polygon id="Fill-221" fill="#1F3262" points="45.859505 85.1831957 20.1878209 99.8792049 37.950406 103.115412"></polygon>
                            <polygon id="Fill-223" fill="#14295B" points="66.0013402 59.1050441 70.3691327 43.6798729 58.9621963 59.1007833 58.9621963 59.1050441"></polygon>
                            <path d="M74.4235469,172.948937 L57.8166123,180.467231 C59.917431,180.956653 62.044846,181.377334 64.1945675,181.732968 L74.4458535,173.107154 L74.4235469,172.948937 Z" id="Fill-225" fill="#DCDFE6"></path>
                            <polygon id="Fill-227" fill="#959EB4" points="90.4026095 57.5391495 96.4788544 61.0332757 111.426239 63.9254953 98.7112245 52.2600391"></polygon>
                            <polygon id="Fill-229" fill="#263867" points="98.7111673 52.2600391 99.2934252 40.8843163 78.6192645 52.2600391"></polygon>
                            <polygon id="Fill-231" fill="#747F9D" points="37.9503202 103.115383 33.1458342 142.160064 44.9388454 135.363263"></polygon>
                            <polygon id="Fill-233" fill="#B6BCCC" points="33.1457484 142.160064 25.8660942 164.71949 44.9387596 135.363263"></polygon>
                            <path d="M44.9388454,135.363348 L36.3591202,172.782113 C37.9323034,173.558428 39.528365,174.29526 41.1467333,174.990051 L57.765965,144.040291 L44.9388454,135.363348 Z" id="Fill-235" fill="#717D9C"></path>
                            <polygon id="Fill-237" fill="#616E90" points="77.357515 77.6155904 77.2605673 75.5908662 75.4162738 77.036976"></polygon>
                            <polygon id="Fill-239" fill="#172B5D" points="62.9923879 90.9860131 69.8813916 99.8794037 72.8927748 96.6079744"></polygon>
                            <polygon id="Fill-241" fill="#3B4B75" points="87.2576731 55.7308163 83.1815815 60.1657234 87.9374507 59.1050725"></polygon>
                            <polygon id="Fill-243" fill="#263867" points="69.7718893 81.2788697 62.9924164 90.9860699 72.8928034 96.6080312"></polygon>
                            <polygon id="Fill-245" fill="#132759" points="98.7111673 126.976053 105.695403 123.738994 91.9171093 99.3070953"></polygon>
                            <polygon id="Fill-247" fill="#31436F" points="63.4776409 81.0862255 69.7718036 81.2788129 66.3323064 71.9394603"></polygon>
                            <polygon id="Fill-249" fill="#2F416D" points="66.3324207 71.9394035 66.2923834 71.8308955 60.6631273 80.5075543 63.4777553 81.0861687"></polygon>
                            <polygon id="Fill-251" fill="#8993AC" points="83.0841191 92.1729821 83.1816387 89.3770562 82.0168368 91.5943677"></polygon>
                            <polygon id="Fill-253" fill="#405079" points="101.040885 68.2637679 96.4789116 61.0335029 87.9375079 59.1050725"></polygon>
                            <polygon id="Fill-255" fill="#2F416D" points="91.7230424 76.1693954 101.040885 68.2636543 90.4607209 69.8063418"></polygon>
                            <polygon id="Fill-257" fill="#42527A" points="96.478883 61.0333609 90.4026381 57.5392347 87.9374793 59.1049305"></polygon>
                            <polygon id="Fill-259" fill="#637092" points="87.9374221 59.1050441 90.4025809 57.5390642 87.2576445 55.7307879"></polygon>
                            <polygon id="Fill-261" fill="#FFFFFF" points="66.401912 71.8936547 66.292412 71.8309239 66.362412 72.0211077"></polygon>
                            <polygon id="Fill-263" fill="#283A68" points="77.2604529 75.5908946 66.3591314 71.8536197 66.3551277 71.8666861 75.4161594 77.0370044"></polygon>
                            <polygon id="Fill-265" fill="#3D4E77" points="104.146757 80.0256029 101.041 68.2638531 91.7231568 76.1693101"></polygon>
                            <polygon id="Fill-267" fill="#FFFFFF" points="66.4093262 71.8707814 66.2923262 71.8309523 66.4018262 71.8936831"></polygon>
                            <polygon id="Fill-269" fill="#1A2D5E" points="66.3550419 71.8667145 66.3324493 71.9394319 69.7719465 81.2787845 75.4163596 77.0370328"></polygon>
                            <polygon id="Fill-271" fill="#2D3F6B" points="87.1738806 62.3337803 87.121832 62.2158987 83.1815815 60.1656098 74.3487628 69.5171767"></polygon>
                            <polygon id="Fill-273" fill="#536186" points="90.0727873 83.2069025 90.4605779 69.8064554 88.9082714 80.7004258"></polygon>
                            <polygon id="Fill-275" fill="#1F3262" points="98.7111673 126.976053 91.9171093 99.3070953 74.4456533 97.2826552"></polygon>
                            <polygon id="Fill-277" fill="#FFFFFF" points="87.212832 62.4225119 87.359332 62.3403645 87.121832 62.2158987"></polygon>
                            <polygon id="Fill-279" fill="#394974" points="84.5405647 74.626651 84.443045 70.2883216 82.7932189 76.8442466"></polygon>
                            <polygon id="Fill-281" fill="#233665" points="87.063835 87.834539 86.9668873 84.8460257 84.3461546 84.1711177"></polygon>
                            <polygon id="Fill-283" fill="#344570" points="87.063835 87.834539 90.0726443 83.2067604 86.9668873 84.8460257"></polygon>
                            <polygon id="Fill-285" fill="#2D3F6B" points="101.040885 68.2637679 111.426011 63.9254385 96.4789116 61.0335029"></polygon>
                            <polygon id="Fill-287" fill="#FFFFFF" points="66.434769 71.8074896 66.292269 71.8483144 66.409269 71.8886413"></polygon>
                            <polygon id="Fill-289" fill="#4B5B81" points="84.4431022 70.28835 74.34882 69.5171483 77.2603957 75.5910367"></polygon>
                            <polygon id="Fill-291" fill="#31436F" points="66.3737736 71.8074896 66.4867363 71.4453231 66.3737736 71.8074896 74.3486484 69.5171767 64.9338578 68.6493972 66.292269 71.8307819"></polygon>
                            <polygon id="Fill-293" fill="#47567E" points="77.2604529 75.5908946 74.3485912 69.5172903 66.3737164 71.8076032 66.3591314 71.8536197"></polygon>
                            <polygon id="Fill-295" fill="#364772" points="106.475932 79.0613593 111.409681 63.9767667 110.819702 64.6488342 111.409681 63.9767667 111.426268 63.9253533 101.040857 68.2636827"></polygon>
                            <polygon id="Fill-297" fill="#233665" points="72.892689 96.6079744 69.8815918 99.8794037 72.2832628 101.397379"></polygon>
                            <polygon id="Fill-299" fill="#556388" points="83.375677 86.2919367 87.0639779 87.8346243 84.3462976 84.1709189"></polygon>
                            <polygon id="Fill-301" fill="#394974" points="83.1815815 60.1656666 64.9336862 68.649454 74.3487628 69.5172335"></polygon>
                            <polygon id="Fill-303" fill="#A0A8BD" points="90.3598839 41.1218123 91.7191531 35.891843 83.6390372 36.9763544"></polygon>
                            <path id="Fill-305" fill="#A0A8BD"></path>
                            <polygon id="Fill-307" fill="#505F84" points="99.2934538 40.884231 91.7192389 35.8920135 90.3599697 41.1216987"></polygon>
                            <path d="M99.2934538,40.884231 L90.3599697,41.3004447 L99.2934538,40.884231 Z" id="Fill-309" fill="#505F84"></path>
                            <polygon id="Fill-311" fill="#7B86A2" points="107.660924 42.3989395 100.12646 39.1454054 112.008412 51.7260778"></polygon>
                            <polygon id="Fill-313" fill="#263867" points="112.901874 47.1709598 107.660981 42.3988826 112.008469 51.726021"></polygon>
                            <polygon id="Fill-315" fill="#E5E7ED" points="84.3461832 84.1709757 88.908157 80.7004258 82.7930187 76.844133"></polygon>
                            <polygon id="Fill-317" fill="#2A3C6A" points="87.0152467 61.9731476 87.1219178 62.2157282 87.2577589 62.2867413 87.9375364 59.1050725 83.1816673 60.1657234 87.1219178 62.2157282"></polygon>
                            <polygon id="Fill-319" fill="#283A68" points="104.146757 80.0256029 106.476075 79.0612457 101.041 68.2638531"></polygon>
                            <polygon id="Fill-321" fill="#6D7998" points="72.2832914 101.397464 74.4458821 97.2826836 72.8927176 96.6080596"></polygon>
                            <polygon id="Fill-323" fill="#405079" points="25.8662086 126.397382 33.1458628 142.160007 37.9503488 103.115327"></polygon>
                            <path d="M44.9388454,135.363348 L25.86618,164.719576 L26.3978193,167.137428 C29.5965202,169.201067 32.9219108,171.086322 36.3591202,172.782113 L44.9388454,135.363348 Z" id="Fill-325" fill="#2A3C6A"></path>
                            <polygon id="Fill-327" fill="#FFFFFF" points="74.4235469 173.010087 74.4625469 173.287397 74.7375469 172.867698"></polygon>
                            <path d="M133.575463,168.083719 L127.31476,148.249206 L126.519446,172.078914 C128.931699,170.841298 131.283037,169.505969 133.575463,168.083719" id="Fill-329" fill="#4E5D83"></path>
                            <polygon id="Fill-331" fill="#576589" points="49.1351636 72.7660238 20.1878495 99.8793753 45.8595336 85.1830821"></polygon>
                            <polygon id="Fill-333" fill="#828CA7" points="111.766042 129.14499 111.459756 128.8723 111.426011 128.856109 127.314846 148.249206 143.03867 144.345192 111.459756 128.8723"></polygon>
                            <polygon id="Fill-335" fill="#C2C7D4" points="60.6630701 80.5076964 62.9923879 90.9860983 63.4776981 81.0863107"></polygon>
                            <polygon id="Fill-337" fill="#1C2F60" points="63.4776409 81.0862255 62.9923307 90.9860131 69.7718036 81.2788129"></polygon>
                            <polygon id="Fill-339" fill="#B1B8C8" points="64.9338006 68.6495108 61.1459781 71.6814841 66.2924978 71.8308955"></polygon>
                            <polygon id="Fill-341" fill="#7D88A4" points="66.2923548 71.8309239 61.1461211 71.6815125 60.6630987 80.5075827"></polygon>
                            <polygon id="Fill-343" fill="#BFC5D2" points="86.9669445 84.8461678 88.9081856 80.7004258 84.3462118 84.1709757"></polygon>
                            <polygon id="Fill-345" fill="#C2C7D4" points="88.9081856 80.7004826 84.5406791 74.6265942 82.7930473 76.8441898"></polygon>
                            <polygon id="Fill-347" fill="#8791AA" points="82.7931045 76.8441614 77.2605101 75.590923 77.3574578 77.6156472"></polygon>
                            <polygon id="Fill-349" fill="#BDC2D1" points="84.3461832 84.1709757 82.7930187 76.844133 83.3755626 86.2919935"></polygon>
                            <polygon id="Fill-351" fill="#D2D6E0" points="75.4162452 77.0370896 83.375677 86.2920787 77.3574864 77.615704"></polygon>
                            <polygon id="Fill-353" fill="#394974" points="82.7931045 76.8441614 84.4432166 70.2882364 77.2605101 75.590923"></polygon>
                            <polygon id="Fill-355" fill="#D9DCE4" points="83.375677 86.2919367 82.7931331 76.8440762 77.3574864 77.615562"></polygon>
                            <polygon id="Fill-357" fill="#BAC0CF" points="83.1815815 89.377113 83.3757628 86.2920219 75.416331 77.0370328"></polygon>
                            <polygon id="Fill-359" fill="#B3BACA" points="83.1815815 89.377113 69.7719179 81.2787845 82.0167796 91.5944245"></polygon>
                            <polygon id="Fill-361" fill="#BFC5D2" points="75.4162452 77.0370896 69.7718321 81.2788413 83.1814957 89.3771698"></polygon>
                            <polygon id="Fill-363" fill="#5A688B" points="90.4606923 69.8063702 90.0729017 83.2068173 96.0908064 97.1858787 91.7230138 76.1694238"></polygon>
                            <polygon id="Fill-365" fill="#9099B1" points="96.090692 97.1857934 104.146785 80.0256313 91.7231854 76.1693385"></polygon>
                            <polygon id="Fill-367" fill="#CDD2DC" points="83.1815815 89.377113 87.0637778 87.8344254 83.3757628 86.2920219"></polygon>
                            <polygon id="Fill-369" fill="#E0E3E9" points="74.4457391 97.2825984 91.9171951 99.3070385 84.346126 93.3300119"></polygon>
                            <polygon id="Fill-371" fill="#C6CBD7" points="84.8312933 92.1729821 88.1318036 90.3414134 85.1224222 90.0516802"></polygon>
                            <polygon id="Fill-373" fill="#AFB5C7" points="83.0841191 92.1729821 84.3461546 93.3299267 84.8311789 92.1729821 85.1225938 90.0516802"></polygon>
                            <polygon id="Fill-375" fill="#3D4E77" points="88.1318036 90.3413566 87.0639493 87.8345959 85.1227082 90.0516234"></polygon>
                            <polygon id="Fill-377" fill="#556388" points="85.1225652 90.051737 87.0638064 87.8344254 83.1816101 89.377113"></polygon>
                            <polygon id="Fill-379" fill="#616E90" points="85.1225652 90.051737 83.1816101 89.377113 83.0840905 92.1730389"></polygon>
                            <polygon id="Fill-381" fill="#3B4B75" points="88.2527164 90.7027846 88.7137183 92.0764611 96.0906062 97.1857082 88.3044791 90.4900295"></polygon>
                            <polygon id="Fill-383" fill="#31436F" points="88.3043933 90.4900295 96.0908064 97.1857082 90.0729017 83.2069309"></polygon>
                            <polygon id="Fill-385" fill="#FFFFFF" points="88.3432464 90.8393335 88.4337464 90.5461734 88.1317464 90.3414702"></polygon>
                            <polygon id="Fill-387" fill="#394974" points="88.1318036 90.3413566 88.3045363 90.4899159 90.0727587 83.2068173 87.0639493 87.8345959"></polygon>
                            <polygon id="Fill-389" fill="#6F7B9A" points="92.7904391 97.57165 90.4608353 94.1973938 91.9170521 99.3069249"></polygon>
                            <polygon id="Fill-391" fill="#7884A1" points="90.4606923 94.1974222 92.7902961 97.5716784 96.0908064 97.1859355 88.7139185 92.0764043"></polygon>
                            <polygon id="Fill-393" fill="#9CA4B9" points="84.8312933 92.1729821 88.7137755 92.0764043 88.2527736 90.7027278 88.1318036 90.3414134"></polygon>
                            <polygon id="Fill-395" fill="#A3ABBE" points="91.9171379 99.3070385 90.4606351 94.1975074 84.3460688 93.3300119"></polygon>
                            <polygon id="Fill-397" fill="#31436F" points="90.4606923 94.1974222 88.7139185 92.0764043 84.346126 93.3299267"></polygon>
                            <polygon id="Fill-399" fill="#5E6C8E" points="84.3461832 93.3300119 88.7136897 92.0764895 84.8312075 92.1730673"></polygon>
                            <polygon id="Fill-401" fill="#233665" points="91.9171379 99.3070385 96.0907492 97.1857366 92.7905249 97.5717636"></polygon>
                            <polygon id="Fill-403" fill="#31436F" points="105.695346 123.739108 96.0906634 97.1859071 91.9170521 99.3069249"></polygon>
                            <polygon id="Fill-405" fill="#1A2D5E" points="96.090692 97.1857934 106.475817 79.0612741 104.146785 80.0256313"></polygon>
                            <polygon id="Fill-407" fill="#2A3C6A" points="105.695346 123.739108 105.695346 108.121633 106.475789 79.0613877 96.0906634 97.1859071"></polygon>
                            <polygon id="Fill-409" fill="#6F7B9A" points="72.2832914 101.397464 98.7111101 126.976081 74.4458821 97.2826836"></polygon>
                            <polygon id="Fill-411" fill="#CBCFDB" points="80.3094998 123.056189 80.3275166 123.03943 72.2831484 101.397492 70.973354 108.772624"></polygon>
                            <polygon id="Fill-413" fill="#7B86A2" points="67.2606017 106.386131 67.2606017 112.948873 70.973211 108.772453"></polygon>
                            <polygon id="Fill-415" fill="#AAB1C3" points="70.973211 108.772567 67.2606017 112.948987 80.2844764 123.079709 80.3093568 123.056132"></polygon>
                            <polygon id="Fill-417" fill="#B6BCCC" points="80.327631 123.039544 81.673745 121.78659 80.327631 123.039544 80.3665245 123.143791 98.7110815 126.975939 72.2832628 101.397606"></polygon>
                            <polygon id="Fill-419" fill="#CDD2DC" points="54.547989 98.6324145 61.6820787 108.121463 55.0312974 90.9860131"></polygon>
                            <polygon id="Fill-421" fill="#DEE1E8" points="54.547989 98.6324145 44.938731 135.36349 61.6820787 108.121463"></polygon>
                            <polygon id="Fill-423" fill="#2F416D" points="55.0312688 90.9860131 45.8595622 85.1831105 54.5479604 98.6324145"></polygon>
                            <path d="M41.8813049,112.081065 L54.547989,98.6323293 L45.8595908,85.1833093 C45.9579684,85.6173411 41.8813049,112.081065 41.8813049,112.081065" id="Fill-425" fill="#283A68"></path>
                            <polygon id="Fill-427" fill="#99A2B8" points="61.6820215 108.121519 44.9389598 135.363263 57.7660794 144.040205"></polygon>
                            <polygon id="Fill-429" fill="#CBCFDB" points="67.2606017 112.949015 57.7660222 144.040234 80.2844764 123.079737"></polygon>
                            <polygon id="Fill-431" fill="#BDC2D1" points="80.2843621 123.079766 57.7659079 144.040262 72.283177 157.778163 80.3664387 123.143677"></polygon>
                            <polygon id="Fill-433" fill="#A5ADC0" points="72.2832914 157.77822 97.9343849 137.387816 97.9343849 131.964976 80.3665531 123.143734"></polygon>
                            <polygon id="Fill-435" fill="#49587F" points="61.6820215 108.121519 57.7660794 144.040205 67.2606589 112.948987"></polygon>
                            <path d="M57.765965,144.040262 L41.1467333,174.990023 C43.6153239,176.049822 46.1325314,177.019292 48.6994996,177.882242 L72.2832342,157.778163 L57.765965,144.040262 Z" id="Fill-437" fill="#6A7797"></path>
                            <path d="M72.2832914,157.77822 L48.6995568,177.882015 C51.6774802,178.883015 54.7203213,179.744546 57.8166409,180.467174 L74.4235755,172.948881 L72.2832914,157.77822 Z" id="Fill-439" fill="#959EB4"></path>
                            <polygon id="Fill-441" fill="#747F9D" points="74.4235469 172.948937 74.6031432 172.867698 97.9343563 137.387873 72.2832628 157.778277"></polygon>
                            <polygon id="Fill-443" fill="#394974" points="20.1879353 99.8792901 12.8842587 126.125146 25.8660942 126.397268"></polygon>
                            <polygon id="Fill-445" fill="#1C2F60" points="20.1879353 99.8792901 25.8660942 126.397268 37.9502344 103.115497"></polygon>
                            <polygon id="Fill-447" fill="#6D7998" points="20.9159865 60.6191844 20.1878781 99.8791765 36.2508763 60.165553"></polygon>
                            <polygon id="Fill-449" fill="#6D7998" points="11.7435079 49.123137 20.9160723 60.619298 36.2506761 60.1656666"></polygon>
                            <polygon id="Fill-451" fill="#3D4E77" points="37.9503202 103.115383 44.9388454 135.363263 41.8814193 112.081207"></polygon>
                            <polygon id="Fill-453" fill="#1C2F60" points="41.8813049 112.081065 44.938731 135.363405 54.547989 98.6323293"></polygon>
                            <polygon id="Fill-455" fill="#CDD2DC" points="88.3256131 182.073291 127.314875 148.249206 111.426039 128.856109"></polygon>
                            <path d="M91.4588529,182.524621 C103.983404,181.197245 115.815023,177.571887 126.519589,172.079169 L127.314903,148.249177 L88.3256417,182.073262 L91.4588529,182.524621 Z" id="Fill-457" fill="#959EB4"></path>
                            <polygon id="Fill-459" fill="#D9DCE4" points="76.6297211 171.950039 74.6032576 172.867528 74.4456819 173.106984 84.8419604 176.432951 97.9344707 137.387703 74.6032576 172.867528"></polygon>
                            <polygon id="Fill-461" fill="#DEE1E8" points="88.3256131 182.073291 111.426039 128.856109 97.934585 137.387902"></polygon>
                            <polygon id="Fill-463" fill="#BFC5D2" points="97.9344707 137.387788 111.426211 128.85628 97.9344707 131.964947"></polygon>
                            <polygon id="Fill-465" fill="#C4C9D6" points="97.9344707 131.964976 111.426211 128.856308 111.429357 128.84523 105.695431 123.739108"></polygon>
                            <polygon id="Fill-467" fill="#B6BCCC" points="84.8419032 176.433037 88.3257275 182.073177 97.9344135 137.387788"></polygon>
                            <polygon id="Fill-469" fill="#BAC0CF" points="80.3664673 123.143819 97.934585 131.965061 98.7113103 126.975968"></polygon>
                            <polygon id="Fill-471" fill="#848FA9" points="97.9344707 131.964976 105.695431 123.739108 98.7111959 126.976167"></polygon>
                            <path d="M91.4588529,182.524621 L88.3256417,182.073262 L87.7739837,182.846453 C89.008565,182.760669 90.2371407,182.654717 91.4588529,182.524621" id="Fill-473" fill="#D7DAE3"></path>
                            <path d="M74.1171751,182.872472 C75.3368854,182.951722 76.5617434,183.013362 77.7934649,183.048584 L84.8417602,176.433008 L74.1171751,182.872472 Z" id="Fill-475" fill="#D2D6E0"></path>
                            <path d="M74.4457391,173.107069 L64.1947391,181.732883 C67.4514942,182.272014 70.7617279,182.654632 74.1171465,182.8725 L84.8420176,176.433037 L74.4457391,173.107069 Z" id="Fill-477" fill="#AFB5C7"></path>
                            <path d="M77.7934649,183.048612 C78.771235,183.077018 79.7515789,183.094913 80.7362125,183.094913 C82.9228256,183.094913 85.0908499,183.017651 87.2422873,182.88017 L88.3255845,182.073177 L84.8420462,176.433037 L77.7934649,183.048612 Z" id="Fill-479" fill="#283A68"></path>
                            <path d="M87.7740409,182.846396 L88.3256989,182.073206 L87.2424017,182.880198 C87.4197101,182.868552 87.5967325,182.85861 87.7740409,182.846396" id="Fill-481" fill="#CDD2DC"></path>
                            <path d="M15.7518505,8.54082503 C14.5573065,9.55830004 13.387929,10.6033281 12.2434318,11.6747731 L19.0231907,26.7605019 L27.1765178,21.554677 L15.7518505,8.54082503 Z" id="Fill-483" fill="#263867"></path>
                            <path d="M12.2432888,11.6748299 C10.0346551,13.74273 7.92211121,15.9103324 5.90994673,18.1688315 L6.11470935,36.7594805 L19.0233336,26.7605587 L12.2432888,11.6748299 Z" id="Fill-485" fill="#B8BECD"></path>
                            <path d="M25.8880004,0.960891815 C22.3458359,3.27705353 18.9598172,5.80824277 15.7519649,8.54082503 L27.1763462,21.554677 L25.8880004,0.960891815 Z" id="Fill-487" fill="#1A2D5E"></path>
                            <polygon id="Fill-489" fill="#49587F" points="11.7435079 49.123137 14.1946536 67.5603978 20.9160723 60.619298"></polygon>
                            <polygon id="Fill-491" fill="#747F9D" points="6.11465215 36.7595089 14.194768 67.5604262 11.7436222 49.1231654"></polygon>
                            <polygon id="Fill-493" fill="#7B86A2" points="19.0233336 26.7605303 11.7433935 49.1231086 27.1763748 21.5544214"></polygon>
                            <polygon id="Fill-495" fill="#4B5B81" points="27.1764606 21.554535 11.7434793 49.1232222 36.2506475 60.1657518"></polygon>
                        </g>
                        <ellipse id="Oval-3" stroke="#C4CAEC" cx="99.5" cy="99.7405515" rx="99.5" ry="99.0747863"></ellipse>
                    </g>
                </g>
            </g>
        </g>
    </g>
</svg>