<?xml version="1.0" encoding="UTF-8"?>
<svg width="46px" height="46px" viewBox="0 0 46 46" version="1.1" xmlns="http://www.w3.org/2000/svg" xmlns:xlink="http://www.w3.org/1999/xlink">
    <!-- Generator: sketchtool 41 (35326) - http://www.bohemiancoding.com/sketch -->
    <title>4A1578C9-4087-4325-8D38-373204C3911C</title>
    <desc>Created with sketchtool.</desc>
    <defs></defs>
    <g id="Page-1" stroke="none" stroke-width="1" fill="none" fill-rule="evenodd">
        <g id="Elements" transform="translate(-1325.000000, -1245.000000)" fill="#fff">
            <g id="Arrows-active-not" transform="translate(69.000000, 1244.000000)">
                <g id="arrow-right-acive" transform="translate(1256.000000, 1.000000)">
                    <path d="M23,0 C35.68,0 45.99,10.31 45.99,22.99 C45.99,35.67 35.68,45.99 23,45.99 C10.31,45.99 0,35.67 0,22.99 C0,10.31 10.31,0 23,0 L23,0 Z M23,44.5 C34.86,44.5 44.51,34.85 44.51,22.99 C44.51,11.13 34.86,1.48 23,1.48 C11.38,1.48 1.89,10.73 1.5,22.25 L25.57,22.2 L21.39,18.03 L22.44,16.98 L28.4,22.94 L22.33,29.01 L21.28,27.96 L25.56,23.69 L1.5,23.73 C1.89,35.25 11.38,44.5 23,44.5 L23,44.5 Z" id="Shape"></path>
                </g>
            </g>
        </g>
    </g>
</svg>