<?xml version="1.0" encoding="UTF-8"?>
<svg width="23px" height="20px" viewBox="0 0 23 20" version="1.1" xmlns="http://www.w3.org/2000/svg" xmlns:xlink="http://www.w3.org/1999/xlink">
    <!-- Generator: sketchtool 41 (35326) - http://www.bohemiancoding.com/sketch -->
    <title>6511507D-DFBE-4452-A239-48544C010490</title>
    <desc>Created with sketchtool.</desc>
    <defs></defs>
    <g id="Page-1" stroke="none" stroke-width="1" fill="none" fill-rule="evenodd">
        <g class="white-fill" id="Card" transform="translate(-850.000000, -4660.000000)" fill="#998100">
            <g id="near-objects" transform="translate(-3.000000, 4362.000000)">
                <g id="04-bank" transform="translate(853.000000, 298.000000)">
                    <g id="Layer_1">
                        <path d="M22.2332016,19.7258537 L0.494071146,19.7258537 C0.220849802,19.7258537 0,19.5078049 0,19.2380488 C0,18.9682927 0.220849802,18.7502439 0.494071146,18.7502439 L22.2332016,18.7502439 C22.5064229,18.7502439 22.7272727,18.9682927 22.7272727,19.2380488 C22.7272727,19.5078049 22.5064229,19.7258537 22.2332016,19.7258537 Z M7.41106719,14.8478049 C7.68428854,14.8478049 7.90513834,15.0658537 7.90513834,15.3356098 C7.90513834,15.6053659 7.68428854,15.8234146 7.41106719,15.8234146 L3.45849802,15.8234146 C3.18527668,15.8234146 2.96442688,15.6053659 2.96442688,15.3356098 C2.96442688,15.0658537 3.18527668,14.8478049 3.45849802,14.8478049 L3.95256917,14.8478049 L3.95256917,8.50634146 L3.45849802,8.50634146 C3.18527668,8.50634146 2.96442688,8.28829268 2.96442688,8.01853659 C2.96442688,7.74926829 3.18527668,7.53073171 3.45849802,7.53073171 L7.41106719,7.53073171 C7.68428854,7.53073171 7.90513834,7.74926829 7.90513834,8.01853659 C7.90513834,8.28829268 7.68428854,8.50634146 7.41106719,8.50634146 L6.91699605,8.50634146 L6.91699605,14.8478049 L7.41106719,14.8478049 Z M5.92885375,8.50634146 L4.94071146,8.50634146 L4.94071146,14.8478049 L5.92885375,14.8478049 L5.92885375,8.50634146 Z M13.3399209,14.8478049 C13.6131423,14.8478049 13.8339921,15.0658537 13.8339921,15.3356098 C13.8339921,15.6053659 13.6131423,15.8234146 13.3399209,15.8234146 L9.38735178,15.8234146 C9.11413043,15.8234146 8.89328063,15.6053659 8.89328063,15.3356098 C8.89328063,15.0658537 9.11413043,14.8478049 9.38735178,14.8478049 L9.88142292,14.8478049 L9.88142292,8.50634146 L9.38735178,8.50634146 C9.11413043,8.50634146 8.89328063,8.28829268 8.89328063,8.01853659 C8.89328063,7.74926829 9.11413043,7.53073171 9.38735178,7.53073171 L13.3399209,7.53073171 C13.6131423,7.53073171 13.8339921,7.74926829 13.8339921,8.01853659 C13.8339921,8.28829268 13.6131423,8.50634146 13.3399209,8.50634146 L12.8458498,8.50634146 L12.8458498,14.8478049 L13.3399209,14.8478049 Z M11.8577075,8.50634146 L10.8695652,8.50634146 L10.8695652,14.8478049 L11.8577075,14.8478049 L11.8577075,8.50634146 Z M21.2450593,17.2868293 C21.2450593,17.5565854 21.0242095,17.7746341 20.7509881,17.7746341 L1.97628458,17.7746341 C1.70306324,17.7746341 1.48221344,17.5565854 1.48221344,17.2868293 C1.48221344,17.0170732 1.70306324,16.7990244 1.97628458,16.7990244 L20.7509881,16.7990244 C21.0242095,16.7990244 21.2450593,17.0170732 21.2450593,17.2868293 Z M19.2687747,14.8478049 C19.541996,14.8478049 19.7628458,15.0658537 19.7628458,15.3356098 C19.7628458,15.6053659 19.541996,15.8234146 19.2687747,15.8234146 L15.3162055,15.8234146 C15.0429842,15.8234146 14.8221344,15.6053659 14.8221344,15.3356098 C14.8221344,15.0658537 15.0429842,14.8478049 15.3162055,14.8478049 L15.8102767,14.8478049 L15.8102767,8.50634146 L15.3162055,8.50634146 C15.0429842,8.50634146 14.8221344,8.28829268 14.8221344,8.01853659 C14.8221344,7.74926829 15.0429842,7.53073171 15.3162055,7.53073171 L19.2687747,7.53073171 C19.541996,7.53073171 19.7628458,7.74926829 19.7628458,8.01853659 C19.7628458,8.28829268 19.541996,8.50634146 19.2687747,8.50634146 L18.7747036,8.50634146 L18.7747036,14.8478049 L19.2687747,14.8478049 Z M17.7865613,8.50634146 L16.798419,8.50634146 L16.798419,14.8478049 L17.7865613,14.8478049 L17.7865613,8.50634146 Z M0.988142292,5.5795122 L11.3636364,0 L21.7391304,5.5795122 L21.7391304,6.55512195 L0.988142292,6.55512195 L0.988142292,5.5795122 Z M19.5360672,5.5795122 L11.3636364,1.40780488 L3.16007905,5.5795122 L19.5360672,5.5795122 Z" id="Shape"></path>
                    </g>
                </g>
            </g>
        </g>
    </g>
</svg>