<?xml version="1.0" encoding="UTF-8"?>
<svg width="22px" height="12px" viewBox="0 0 22 12" version="1.1" xmlns="http://www.w3.org/2000/svg" xmlns:xlink="http://www.w3.org/1999/xlink">
    <!-- Generator: sketchtool 41 (35326) - http://www.bohemiancoding.com/sketch -->
    <title>5046A3A0-B492-49A7-A00B-8E9D76527D4E</title>
    <desc>Created with sketchtool.</desc>
    <defs></defs>
    <g id="Page-1" stroke="none" stroke-width="1" fill="none" fill-rule="evenodd">
        <g id="Card" transform="translate(-1048.000000, -4745.000000)">
            <g id="near-objects" transform="translate(-3.000000, 4362.000000)">
                <g id="thin-0845-fitness-weight-gym-lifting-bodybuilding-training" transform="translate(1051.000000, 378.000000)">
                    <g id="Layer_1">
                        <g class="white-fill" id="Group" transform="translate(0.000000, 5.280000)" fill="#998100">
                            <path d="M3.3748,11.470096 L2.809752,11.470096 C2.23784,11.470096 1.772496,11.005192 1.772496,10.43284 L1.772496,1.067792 C1.772496,0.49544 2.23784,0.030096 2.809752,0.030096 L3.3748,0.030096 C3.947152,0.030096 4.412496,0.49544 4.412496,1.067792 L4.412496,10.43284 C4.412496,11.005192 3.947152,11.470096 3.3748,11.470096 Z M2.809752,0.910096 C2.722984,0.910096 2.652496,0.981024 2.652496,1.067792 L2.652496,10.43284 C2.652496,10.519608 2.722984,10.590096 2.809752,10.590096 L3.3748,10.590096 C3.461568,10.590096 3.532496,10.519608 3.532496,10.43284 L3.532496,1.067792 C3.532496,0.981024 3.461568,0.910096 3.3748,0.910096 L2.809752,0.910096 Z" id="Shape"></path>
                            <path d="M1.6148,9.710096 L1.049752,9.710096 C0.47784,9.710096 0.012496,9.245192 0.012496,8.67284 L0.012496,2.827792 C0.012496,2.25544 0.47784,1.790096 1.049752,1.790096 L1.6148,1.790096 C2.187152,1.790096 2.652496,2.25544 2.652496,2.827792 L2.652496,8.67284 C2.652496,9.245192 2.187152,9.710096 1.6148,9.710096 Z M1.049752,2.670096 C0.962984,2.670096 0.892496,2.741024 0.892496,2.827792 L0.892496,8.67284 C0.892496,8.759608 0.962984,8.830096 1.049752,8.830096 L1.6148,8.830096 C1.701568,8.830096 1.772496,8.759608 1.772496,8.67284 L1.772496,2.827792 C1.772496,2.741024 1.701568,2.670096 1.6148,2.670096 L1.049752,2.670096 Z" id="Shape"></path>
                            <path d="M18.335592,11.470096 L17.770984,11.470096 C17.198632,11.470096 16.733728,11.005192 16.733728,10.43284 L16.733728,1.067792 C16.733728,0.49544 17.198632,0.030096 17.770984,0.030096 L18.335592,0.030096 C18.907944,0.030096 19.373728,0.49544 19.373728,1.067792 L19.373728,10.43284 C19.373728,11.005192 18.907944,11.470096 18.335592,11.470096 Z M17.770984,0.910096 C17.684216,0.910096 17.613728,0.981024 17.613728,1.067792 L17.613728,10.43284 C17.613728,10.519608 17.684216,10.590096 17.770984,10.590096 L18.335592,10.590096 C18.42236,10.590096 18.493728,10.519608 18.493728,10.43284 L18.493728,1.067792 C18.493728,0.981024 18.42236,0.910096 18.335592,0.910096 L17.770984,0.910096 Z" id="Shape"></path>
                            <path d="M20.095592,9.710096 L19.530984,9.710096 C18.958632,9.710096 18.493728,9.245192 18.493728,8.67284 L18.493728,2.827792 C18.493728,2.25544 18.958632,1.790096 19.530984,1.790096 L20.095592,1.790096 C20.667944,1.790096 21.133728,2.25544 21.133728,2.827792 L21.133728,8.67284 C21.133728,9.245192 20.667944,9.710096 20.095592,9.710096 Z M19.530984,2.670096 C19.444216,2.670096 19.373728,2.741024 19.373728,2.827792 L19.373728,8.67284 C19.373728,8.759608 19.444216,8.830096 19.530984,8.830096 L20.095592,8.830096 C20.18236,8.830096 20.253728,8.759608 20.253728,8.67284 L20.253728,2.827792 C20.253728,2.741024 20.18236,2.670096 20.095592,2.670096 L19.530984,2.670096 Z" id="Shape"></path>
                            <path d="M15.413728,6.190096 L5.732496,6.190096 C5.489264,6.190096 5.292496,5.993328 5.292496,5.750096 C5.292496,5.506864 5.489264,5.310096 5.732496,5.310096 L15.413816,5.310096 C15.657048,5.310096 15.853816,5.506864 15.853816,5.750096 C15.853816,5.993328 15.65696,6.190096 15.413728,6.190096 Z" id="Shape"></path>
                        </g>
                        <rect id="Rectangle-path" x="0.012496" y="0.030448" width="21.12" height="21.12"></rect>
                    </g>
                </g>
            </g>
        </g>
    </g>
</svg>