<?xml version="1.0" encoding="UTF-8"?>
<svg width="22px" height="20px" viewBox="0 0 22 20" version="1.1" xmlns="http://www.w3.org/2000/svg" xmlns:xlink="http://www.w3.org/1999/xlink">
    <!-- Generator: sketchtool 41 (35326) - http://www.bohemiancoding.com/sketch -->
    <title>BBA05A13-2E10-4628-B78F-B7BFCE474B49</title>
    <desc>Created with sketchtool.</desc>
    <defs></defs>
    <g id="Page-1" stroke="none" stroke-width="1" fill="none" fill-rule="evenodd">
        <g id="Card" transform="translate(-850.000000, -4702.000000)" fill="#998100">
            <g id="near-objects" transform="translate(-3.000000, 4362.000000)">
                <g id="thin-0465-shopping-cart-basket-store" transform="translate(853.000000, 340.000000)">
                    <g id="Layer_1">
                        <g id="Group" transform="translate(0.000000, 0.680000)">
                            <path d="M21.037824,3.668776 L4.648024,3.668776 C4.393736,3.668776 4.188024,3.463064 4.188024,3.208776 C4.188024,2.954488 4.393736,2.748776 4.648024,2.748776 L21.037732,2.748776 C21.29202,2.748776 21.497732,2.954488 21.497732,3.208776 C21.497732,3.463064 21.292112,3.668776 21.037824,3.668776 Z" id="Shape"></path>
                            <path d="M7.353744,19.236464 C6.101808,19.236464 5.082908,18.221244 5.082908,16.973264 C5.082908,15.726204 6.101716,14.710984 7.353744,14.710984 C8.605772,14.710984 9.62458,15.726204 9.62458,16.973264 C9.624488,18.221244 8.60568,19.236464 7.353744,19.236464 Z M7.353744,15.630984 C6.608912,15.630984 6.002908,16.23294 6.002908,16.973264 C6.002908,17.713588 6.608912,18.316464 7.353744,18.316464 C8.098576,18.316464 8.70458,17.713588 8.70458,16.973264 C8.70458,16.23294 8.098484,15.630984 7.353744,15.630984 Z" id="Shape"></path>
                            <path d="M16.554572,19.236464 C15.302176,19.236464 14.283276,18.221244 14.283276,16.973264 C14.283276,15.726204 15.302084,14.710984 16.554572,14.710984 C17.80614,14.710984 18.824948,15.726204 18.824948,16.973264 C18.824948,18.221244 17.80614,19.236464 16.554572,19.236464 Z M16.554572,15.630984 C15.80974,15.630984 15.203276,16.23294 15.203276,16.973264 C15.203276,17.713588 15.80974,18.316464 16.554572,18.316464 C17.299404,18.316464 17.904948,17.713588 17.904948,16.973264 C17.904948,16.23294 17.299404,15.630984 16.554572,15.630984 Z" id="Shape"></path>
                            <path d="M20.177992,6.44 L5.249612,6.44 C4.995324,6.44 4.789612,6.234288 4.789612,5.98 C4.789612,5.725712 4.995324,5.52 5.249612,5.52 L20.178084,5.52 C20.432372,5.52 20.638084,5.725712 20.638084,5.98 C20.638084,6.234288 20.43228,6.44 20.177992,6.44 Z" id="Shape"></path>
                            <path d="M19.32092,9.2 L5.848348,9.2 C5.59406,9.2 5.388348,8.994288 5.388348,8.74 C5.388348,8.485712 5.59406,8.28 5.848348,8.28 L19.320828,8.28 C19.575116,8.28 19.780828,8.485712 19.780828,8.74 C19.780828,8.994288 19.575116,9.2 19.32092,9.2 Z" id="Shape"></path>
                            <path d="M18.464676,11.96 L6.447176,11.96 C6.230608,11.96 6.043296,11.809028 5.99748,11.597888 L3.68092,0.92092 L0.46184,0.92092 C0.207552,0.92092 0.00184,0.715208 0.00184,0.46092 C0.00184,0.206632 0.207552,0.000919999999 0.46184,0.000919999999 L4.051956,0.000919999999 C4.268524,0.000919999999 4.455836,0.151892 4.501652,0.3634 L6.818212,11.04 L18.464676,11.04 C18.718964,11.04 18.924676,11.245712 18.924676,11.5 C18.924676,11.754288 18.718964,11.96 18.464676,11.96 Z" id="Shape"></path>
                        </g>
                    </g>
                </g>
            </g>
        </g>
    </g>
</svg>