<?xml version="1.0" encoding="UTF-8"?>
<svg width="21px" height="21px" viewBox="0 0 21 21" version="1.1" xmlns="http://www.w3.org/2000/svg" xmlns:xlink="http://www.w3.org/1999/xlink">
    <!-- Generator: sketchtool 41 (35326) - http://www.bohemiancoding.com/sketch -->
    <title>72F83A53-56EE-4772-A86D-65FD3E2C0CA2</title>
    <desc>Created with sketchtool.</desc>
    <defs></defs>
    <g id="Page-1" stroke="none" stroke-width="1" fill="none" fill-rule="evenodd">
        <g id="Card" transform="translate(-1048.000000, -4619.000000)">
            <g id="near-objects" transform="translate(-3.000000, 4362.000000)">
                <g id="thin-0984-child-toy-playground-horse" transform="translate(1051.000000, 257.000000)">
                    <g id="Layer_1">
                        <g id="Group" fill="#998100">
                            <path d="M10.814408,20.209904 C7.179656,20.209904 3.793328,18.763536 1.278376,16.136472 C1.110384,15.961176 1.116368,15.682744 1.292104,15.514312 C1.4674,15.34676 1.745392,15.351864 1.914264,15.52804 C4.261224,17.979808 7.422008,19.329904 10.814408,19.329904 C14.206368,19.329904 17.367152,17.979808 19.714112,15.52804 C19.883424,15.353624 20.161856,15.346672 20.336272,15.514312 C20.511568,15.682744 20.51764,15.961176 20.35,16.136472 C17.834608,18.763624 14.448632,20.209904 10.814408,20.209904 Z" id="Shape"></path>
                            <path d="M4.469608,16.380584 C4.231128,16.380584 4.035592,16.19068 4.029608,15.95088 L3.781712,5.653384 L2.331472,6.935984 C2.16172,7.136624 1.810248,7.213096 1.51932,7.079072 L0.776864,6.739656 C0.449064,6.590584 0.277992,6.21632 0.380688,5.869512 L1.70588,1.416624 C1.86956,0.863632 2.427744,0.51216 2.997104,0.598928 C4.461512,0.82324 7.916568,1.724272 9.064704,5.261432 L15.008136,5.261432 C16.44588,5.261432 17.615488,6.43148 17.615488,7.869224 L17.615488,15.9302 C17.615488,16.173432 17.41872,16.3702 17.175488,16.3702 C16.932256,16.3702 16.735488,16.173432 16.735488,15.9302 L16.735488,7.869312 C16.735488,6.916712 15.960296,6.14152 15.008136,6.14152 L8.736816,6.14152 C8.538288,6.14152 8.364312,6.008728 8.312304,5.817064 C7.411712,2.508088 4.201912,1.673672 2.863872,1.468632 C2.725096,1.445928 2.588872,1.532256 2.54936,1.66716 L1.262008,5.99368 L1.7974,6.238584 L3.416072,4.807264 C3.57456,4.62044 3.8874,4.540536 4.171816,4.641472 C4.456672,4.744168 4.645784,5.00588 4.653968,5.308336 L4.909608,15.9302 C4.915152,16.172552 4.723136,16.374512 4.480344,16.380496 C4.476472,16.380584 4.47304,16.380584 4.469608,16.380584 Z" id="Shape"></path>
                            <path d="M5.92108,17.093824 C5.90172,17.093824 5.882008,17.092944 5.861768,17.089512 C5.621176,17.057744 5.452304,16.835984 5.484512,16.595392 L5.954608,13.112352 C5.99588,11.740784 7.140584,10.63216 8.557648,10.63216 L13.118336,10.63216 C14.535488,10.63216 15.680104,11.740784 15.724808,13.156968 L16.188832,16.576384 C16.22148,16.817856 16.053048,17.039616 15.812456,17.071384 C15.56236,17.108344 15.349224,16.9356 15.317456,16.695008 L14.84912,13.230008 C14.815592,12.246872 14.056768,11.51216 13.118336,11.51216 L8.557648,11.51216 C7.618776,11.51216 6.859952,12.24696 6.830296,13.184512 L6.356768,16.712256 C6.32676,16.933136 6.138088,17.093824 5.92108,17.093824 Z" id="Shape"></path>
                            <path d="M11.363528,8.582552 C9.75524,8.582552 8.71068,7.75544 8.646176,7.702552 C8.457504,7.549608 8.429168,7.272496 8.582552,7.083824 C8.735056,6.896472 9.011376,6.866816 9.200048,7.018968 C9.282152,7.084264 11.157256,8.533624 13.73284,6.98456 C13.942544,6.860392 14.212352,6.926128 14.33696,7.134512 C14.461568,7.342456 14.394512,7.612792 14.186568,7.738192 C13.137256,8.370296 12.178232,8.582552 11.363528,8.582552 Z" id="Shape"></path>
                            <path d="M18.991368,11.341176 L18.987056,11.341176 C18.743824,11.338624 18.548816,11.139216 18.551368,10.896864 C18.561664,9.842008 18.344216,8.21392 17.827744,7.897648 C17.781368,7.868872 17.658432,7.79108 17.356768,7.949216 C17.14108,8.061328 16.876376,7.978872 16.762944,7.762744 C16.650392,7.547496 16.733728,7.281472 16.949416,7.16892 C17.56304,6.849656 18.015888,6.981128 18.288336,7.147448 C19.407256,7.834112 19.436472,10.398872 19.43128,10.905488 C19.428728,11.14696 19.23196,11.341176 18.991368,11.341176 Z" id="Shape"></path>
                            <path d="M20.285584,11.76824 L20.270096,11.76824 C20.027744,11.759616 19.83696,11.555984 19.845584,11.312752 C19.92892,8.936576 19.493232,7.355304 18.584896,6.740008 C17.71264,6.148736 16.608328,6.621384 16.597152,6.625256 C16.377152,6.72584 16.11588,6.623496 16.017056,6.402264 C15.919112,6.180504 16.017056,5.921872 16.237936,5.822168 C16.30068,5.794712 17.7848,5.142368 19.0696,6.005648 C20.264112,6.807856 20.820976,8.603496 20.725584,11.34364 C20.71696,11.580976 20.521864,11.76824 20.285584,11.76824 Z" id="Shape"></path>
                            <path d="M3.370048,3.5024 C3.2472,3.5024 3.132888,3.458136 3.053336,3.370048 C2.974312,3.290936 2.930048,3.176712 2.930048,3.0624 C2.930048,2.947648 2.974312,2.833336 3.053336,2.754312 C3.211912,2.5872 3.510936,2.5872 3.678136,2.754312 C3.766224,2.8424 3.810048,2.947648 3.810048,3.0624 C3.810048,3.176712 3.766224,3.291024 3.678136,3.370048 C3.599024,3.458136 3.4848,3.5024 3.370048,3.5024 Z" id="Shape"></path>
                        </g>
                        <rect id="Rectangle-path" x="0.012496" y="0.030272" width="21.12" height="21.12"></rect>
                    </g>
                </g>
            </g>
        </g>
    </g>
</svg>