<?xml version="1.0" encoding="UTF-8"?>
<svg width="30px" height="41px" viewBox="0 0 30 41" version="1.1" xmlns="http://www.w3.org/2000/svg" xmlns:xlink="http://www.w3.org/1999/xlink">
    <!-- Generator: sketchtool 41 (35326) - http://www.bohemiancoding.com/sketch -->
    <title>642D7E87-1637-41E2-894C-0F43148A03F3</title>
    <desc>Created with sketchtool.</desc>
    <defs></defs>
    <g id="Page-1" stroke="none" stroke-width="1" fill="none" fill-rule="evenodd">
        <g id="Elements" transform="translate(-1092.000000, -3499.000000)" fill="#998100">
            <g id="key-ring-with-two-keys" transform="translate(1092.000000, 3499.000000)">
                <g id="Capa_1">
                    <path d="M23.9837959,0.799322511 C19.3006614,-1.27392857 13.7931138,0.826123377 11.7072557,5.48104329 C11.2267351,6.55307792 10.9775001,7.66850866 10.9247241,8.77657359 C9.46985639,8.96604329 8.14295489,9.87097186 7.50383826,11.2978074 L6.15086131,14.3160108 C5.17321022,16.4977078 6.16345254,19.0629589 8.35950622,20.0350671 L10.1646066,20.8332359 L6.0604009,29.9906126 C6.04655947,29.983158 3.30363557,28.7654935 3.30363557,28.7654935 C2.91571847,28.5952814 2.46118394,28.7670909 2.28803218,29.1528636 C2.11514832,29.5389026 2.28981817,29.9904351 2.67782456,30.1623333 C2.67782456,30.1623333 5.42360606,31.3732532 5.43842978,31.3784004 L3.8494342,34.924013 L1.15044565,33.7293333 C0.76252856,33.5582338 0.307994028,33.730132 0.134842268,34.116881 C-0.0380415935,34.501855 0.136628258,34.9544524 0.524813251,35.1261732 L3.92658898,36.6311926 C4.02830113,36.6760974 4.13412106,36.6978398 4.23886939,36.6978398 C4.53337919,36.6978398 4.81422616,36.5291364 4.94219237,36.2438225 L11.570181,21.4554242 L13.1169379,22.1393788 C13.2403498,22.444039 13.3802822,22.7419545 13.55138,23.0232749 C14.0491355,23.8379502 14.740671,24.5424935 15.5937492,25.0651991 L9.2829525,39.1465693 L6.58405326,37.9519784 C6.19533247,37.781145 5.74151233,37.954197 5.56844987,38.3394372 C5.39556601,38.7256537 5.57023586,39.1772749 5.95815295,39.3488182 L9.35983939,40.8541039 C9.46190873,40.8988312 9.56763936,40.9204848 9.67238769,40.9204848 C9.96698679,40.9204848 10.2477445,40.7517814 10.3757107,40.4665563 L16.9933405,25.7005216 C19.9562985,26.624974 23.222071,25.2144675 24.5152173,22.3282273 C25.2447051,20.6992316 25.1978228,18.9224762 24.5422751,17.3984654 C26.3220144,16.4661147 27.8153702,14.9634026 28.6952383,12.9996623 C30.7811857,8.34491991 28.6677341,2.8723961 23.9837959,0.799322511 Z M12.2719859,14.2510498 C11.9237178,15.0276537 12.2752007,15.9383506 13.0566607,16.2841883 C13.2639249,16.3757727 13.4802976,16.4154416 13.6936342,16.4148203 C13.5024439,16.6970281 13.3240235,16.990329 13.1798047,17.3114957 C12.7828684,18.1984978 12.6189145,19.1287186 12.6543664,20.0386169 L9.06908017,18.4521299 C7.75164442,17.8690779 7.15664175,16.3297143 7.74387536,15.0209091 L9.09694161,12.0024394 C9.51218436,11.0761234 10.410984,10.5196948 11.3665781,10.4749675 C11.3665781,10.4742576 11.3665781,10.4734589 11.3663995,10.4734589 C11.7936977,10.4771861 12.2253715,10.5586537 12.6432933,10.7270909 L17.5847712,12.9140238 C17.7386343,12.9827121 17.8797275,13.0654221 18.0136768,13.1580714 C18.2139756,13.2731732 18.3415846,13.4664589 18.424276,13.6746537 C18.1963836,13.6903615 17.9695628,13.7151212 17.7458676,13.7553225 C16.8395668,13.9196775 15.9819342,14.2869026 15.2311932,14.82079 C15.2094041,14.2524697 14.8765848,13.7173398 14.3182843,13.4701861 C13.5365563,13.1239048 12.6198075,13.4739134 12.2719859,14.2510498 Z M22.9226498,21.623684 C21.9213343,23.8564978 19.278783,24.8640152 17.0329002,23.8694545 C16.5972079,23.6768788 16.208755,23.4205844 15.8718279,23.1200952 C15.6137523,22.8915779 15.3904142,22.6338636 15.196545,22.3562706 C15.0058012,22.0840022 14.8449728,21.7933636 14.7195963,21.4872835 C14.2793497,20.4090368 14.2595252,19.1615541 14.7726402,18.0163939 C14.9231099,17.6820043 15.1135858,17.3788528 15.3304943,17.1012597 C15.3677322,17.0540476 15.409435,17.0123377 15.4480124,16.9665455 C15.6476862,17.1518442 15.8532536,17.3339481 16.0750736,17.5027403 C16.5449677,17.8588723 17.0400442,18.1582078 17.5504802,18.4129048 C17.8198969,18.547974 18.0928855,18.6665368 18.3709642,18.773474 C18.4001651,18.7847446 18.4292768,18.7934416 18.4582991,18.8040022 C18.5838542,19.0437013 18.7838851,19.2466602 19.0516051,19.3646905 C19.6808095,19.6432597 20.4177984,19.3617619 20.6980202,18.7367338 C20.9779742,18.1127706 20.6950734,17.3788528 20.0652439,17.101171 C19.7001875,16.9391234 19.3006614,16.9709827 18.9732001,17.1450996 C18.8478236,17.096645 18.7224471,17.0457056 18.5993923,16.9897078 C18.0894921,16.7605693 17.5963802,16.4775628 17.1338087,16.1253355 C17.029239,16.0460866 16.9349387,15.9594719 16.8362627,15.8750758 C17.4474286,15.5682857 18.1229794,15.3973636 18.8158544,15.3915065 C19.113311,15.3892879 19.4132681,15.4152013 19.711975,15.4743939 C20.0124679,15.5340303 20.3108175,15.624461 20.6039878,15.7482597 C20.62283,15.7566017 20.6428331,15.7617489 20.6622111,15.7708009 C21.1140667,15.9708312 21.5129676,16.2386623 21.8590032,16.5538831 C22.3251467,16.9794134 22.6873455,17.4937771 22.9330978,18.0604113 C23.4129934,19.159158 23.4505885,20.4448896 22.9226498,21.623684 Z M27.1031173,12.295119 C26.3734509,13.9226948 25.126919,15.1642316 23.6418681,15.9175844 C23.0483835,15.194671 22.285587,14.5917403 21.3709814,14.1876861 C21.0970105,14.066816 20.8178602,13.9703506 20.5371025,13.8926991 C20.4870055,13.6046342 20.4171733,13.329171 20.3199261,13.1783052 C19.877447,12.3885671 19.1868938,11.7269762 18.2937201,11.3312641 L13.2590134,9.10262121 C13.2107917,9.08194372 12.9510194,8.9682619 12.6657967,8.8452619 C12.7097321,7.9516039 12.911549,7.05182251 13.2994661,6.18585281 C14.9942816,2.40453463 19.4691696,0.698508658 23.2746684,2.38208225 C27.0802566,4.06627706 28.7979328,8.51309091 27.1031173,12.295119 Z" id="Shape"></path>
                </g>
            </g>
        </g>
    </g>
</svg>