<?xml version="1.0" encoding="UTF-8"?>
<svg width="20px" height="16px" viewBox="0 0 20 16" version="1.1" xmlns="http://www.w3.org/2000/svg" xmlns:xlink="http://www.w3.org/1999/xlink">
    <!-- Generator: sketchtool 41 (35326) - http://www.bohemiancoding.com/sketch -->
    <title>3C40A3A0-F980-41B7-8E1A-8AD32D308A10</title>
    <desc>Created with sketchtool.</desc>
    <defs></defs>
    <g id="Page-1" stroke="none" stroke-width="1" fill="none" fill-rule="evenodd">
        <g id="Card" transform="translate(-1049.000000, -4784.000000)">
            <g id="near-objects" transform="translate(-3.000000, 4362.000000)">
                <g id="thin-0319-email-mail-post-card" transform="translate(1052.000000, 420.000000)">
                    <g id="Layer_1">
                        <g id="Group" transform="translate(0.000000, 2.500000)" fill="#998100">
                            <path d="M9.90766667,9.07716667 C9.48491667,9.07716667 9.0625,8.92908333 8.73333333,8.63366667 L2.12725,2.69325 C1.95641667,2.5395 1.94216667,2.27616667 2.09633333,2.10491667 C2.25091667,1.93358333 2.51425,1.921 2.68475,2.074 L9.29041667,8.0135 C9.63016667,8.31866667 10.184,8.3195 10.5249167,8.0135 L17.1305833,2.074 C17.2998333,1.92016667 17.5643333,1.93283333 17.719,2.10491667 C17.8728333,2.27625 17.859,2.5395 17.68725,2.69333333 L11.0815833,8.63366667 C10.75275,8.929 10.3304167,9.07716667 9.90766667,9.07716667 Z" id="Shape"></path>
                            <path d="M17.4096667,13.0355 C17.31525,13.0355 17.2208333,13.00375 17.1435833,12.9395 L12.7181667,9.25866667 C12.54075,9.11133333 12.5171667,8.8485 12.6636667,8.67191667 C12.8125833,8.4945 13.0754167,8.47175 13.2504167,8.61741667 L17.6758333,12.29825 C17.85325,12.4455833 17.8768333,12.7084167 17.7303333,12.885 C17.6473333,12.98425 17.5293333,13.0355 17.4096667,13.0355 Z" id="Shape"></path>
                            <path d="M2.40641667,13.0355 C2.28675,13.0355 2.168,12.98425 2.08575,12.8849167 C1.9385,12.7083333 1.9625,12.4455 2.1395,12.2981667 L6.56491667,8.61733333 C6.74275,8.47 7.00475,8.49441667 7.15166667,8.67183333 C7.299,8.84841667 7.27491667,9.11125 7.09791667,9.25858333 L2.6725,12.9394167 C2.59483333,13.00375 2.5,13.0355 2.40641667,13.0355 Z" id="Shape"></path>
                            <path d="M17.6253333,15 L2.36858333,15 C1.04041667,15 0,13.9795 0,12.6765833 L0,2.32583333 C0,1.02175 1.04041667,0 2.36858333,0 L17.6253333,0 C18.93475,0 20,1.04333333 20,2.32583333 L20,12.6765833 C20,13.9575 18.93475,15 17.6253333,15 Z M2.36858333,0.833333333 C1.50758333,0.833333333 0.833333333,1.48883333 0.833333333,2.32583333 L0.833333333,12.6765833 C0.833333333,13.5123333 1.50758333,14.1666667 2.36858333,14.1666667 L17.6253333,14.1666667 C18.4895833,14.1666667 19.1666667,13.5123333 19.1666667,12.6765833 L19.1666667,2.32583333 C19.1666667,1.48883333 18.4895833,0.833333333 17.6253333,0.833333333 L2.36858333,0.833333333 Z" id="Shape"></path>
                        </g>
                        <rect id="Rectangle-path" x="0" y="0" width="20" height="20"></rect>
                    </g>
                </g>
            </g>
        </g>
    </g>
</svg>