<?xml version="1.0" encoding="UTF-8"?>
<svg width="42px" height="42px" viewBox="0 0 42 42" version="1.1" xmlns="http://www.w3.org/2000/svg" xmlns:xlink="http://www.w3.org/1999/xlink">
    <!-- Generator: sketchtool 41 (35326) - http://www.bohemiancoding.com/sketch -->
    <title>25944F97-C573-4105-B39B-083D1B1392D2</title>
    <desc>Created with sketchtool.</desc>
    <defs>
        <polygon id="path-1" points="41.5698621 40.1333333 41.5698621 0.1505 0 0.1505 0 41.5666667 41.5698621 41.5666667 41.5698621 40.1333333 0.000144827586 40.1333333 0.000144827586 41.5666667 41.5700069 41.5666667 41.5700069 40.1333333"></polygon>
    </defs>
    <g id="Page-1" stroke="none" stroke-width="1" fill="none" fill-rule="evenodd">
        <g id="index" transform="translate(-700.000000, -3339.000000)">
            <g id="6-DA-block" transform="translate(136.000000, 2918.000000)">
                <g id="6-da" transform="translate(0.000000, 115.000000)">
                    <g id="Page-1" transform="translate(564.000000, 306.000000)">
                        <g id="Group-3" transform="translate(0.000000, 2.087672)">
                            <mask id="mask-2" fill="white">
                                <use xlink:href="#path-1"></use>
                            </mask>
                            <g id="Clip-2"></g>
                            <path d="M40.845869,39.5666667 L0.724282759,39.5666667 C0.324558621,39.5666667 0.000144827586,39.2456 0.000144827586,38.85 C0.000144827586,38.4544 0.324558621,38.1333333 0.724282759,38.1333333 L40.845869,38.1333333 C41.2455931,38.1333333 41.5700069,38.4544 41.5700069,38.85 C41.5700069,39.2456 41.2455931,39.5666667 40.845869,39.5666667" id="Fill-1" fill="#2A166D" mask="url(#mask-2)"></path>
                        </g>
                        <path d="M12.9694552,41.5423956 C12.569731,41.5423956 12.2453172,41.2213289 12.2453172,40.8257289 L12.2453172,0.956128889 C12.2453172,0.559095556 12.569731,0.239462222 12.9694552,0.239462222 C13.3691793,0.239462222 13.6935931,0.559095556 13.6935931,0.956128889 L13.6935931,40.8257289 C13.6935931,41.2213289 13.3691793,41.5423956 12.9694552,41.5423956" id="Fill-4" fill="#2A166D"></path>
                        <path d="M22.3025793,25.8442422 L12.9698897,25.8442422 C12.5687172,25.8442422 12.2457517,25.5231756 12.2457517,25.1275756 C12.2457517,24.7319756 12.5687172,24.4109089 12.9698897,24.4109089 L22.3025793,24.4109089 C22.7023034,24.4109089 23.0267172,24.7319756 23.0267172,25.1275756 C23.0267172,25.5231756 22.7023034,25.8442422 22.3025793,25.8442422" id="Fill-6" fill="#2A166D"></path>
                        <path d="M20.9094828,18.7714589 L9.46231034,18.7714589 C9.06113793,18.7714589 8.73817241,18.4503922 8.73817241,18.0547922 C8.73817241,17.6591922 9.06113793,17.3381256 9.46231034,17.3381256 L20.9094828,17.3381256 C21.3092069,17.3381256 21.6336207,17.6591922 21.6336207,18.0547922 C21.6336207,18.4503922 21.3092069,18.7714589 20.9094828,18.7714589" id="Fill-8" fill="#2A166D"></path>
                        <path d="M22.6702966,33.0752656 L12.9697448,33.0752656 C12.5685724,33.0752656 12.2456069,32.7541989 12.2456069,32.3585989 C12.2456069,31.9629989 12.5685724,31.6419322 12.9697448,31.6419322 L22.6702966,31.6419322 C23.0700207,31.6419322 23.3944345,31.9629989 23.3944345,32.3585989 C23.3944345,32.7541989 23.0700207,33.0752656 22.6702966,33.0752656" id="Fill-10" fill="#2A166D"></path>
                        <path d="M30.0970552,14.4406422 L22.7311241,14.4406422 C22.3314,14.4406422 22.0069862,14.1195756 22.0069862,13.7239756 C22.0069862,13.3283756 22.3314,13.0073089 22.7311241,13.0073089 L30.0970552,13.0073089 C30.4967793,13.0073089 30.8211931,13.3283756 30.8211931,13.7239756 C30.8211931,14.1195756 30.4967793,14.4406422 30.0970552,14.4406422" id="Fill-12" fill="#2A166D"></path>
                        <path d="M26.4550759,41.5423956 C26.4101793,41.5423956 26.3652828,41.5380956 26.3189379,41.5294956 C25.9264552,41.4563956 25.6672138,41.0822956 25.7425241,40.6924289 C27.8990069,29.3705289 26.3276276,19.7155956 21.1978345,12.7739622 C19.8755586,10.9837289 18.470731,9.58336222 17.1919034,8.51409556 C20.5721793,13.2297622 22.6330759,19.5536289 23.2239724,27.1244956 C23.8119724,34.6666956 22.7634207,40.6967289 22.7185241,40.9504289 C22.6490069,41.3402956 22.2550759,41.5968622 21.8814207,41.5309289 C21.4860414,41.4621289 21.2239034,41.0923289 21.2934207,40.7024622 C21.3354207,40.4616622 25.3978345,16.5378956 12.4951448,5.48546222 C12.2272138,5.25612889 12.1678345,4.86769556 12.3532138,4.56812889 C12.5385931,4.26999556 12.9165931,4.14672889 13.2424552,4.28002889 C13.4365241,4.35886222 32.5972138,12.4371289 27.164731,40.9590289 C27.0995586,41.3030289 26.7954207,41.5423956 26.4550759,41.5423956" id="Fill-14" fill="#2A166D"></path>
                    </g>
                </g>
            </g>
        </g>
    </g>
</svg>