<?xml version="1.0" encoding="UTF-8"?>
<svg width="28px" height="38px" viewBox="0 0 28 38" version="1.1" xmlns="http://www.w3.org/2000/svg" xmlns:xlink="http://www.w3.org/1999/xlink">
    <!-- Generator: sketchtool 41 (35326) - http://www.bohemiancoding.com/sketch -->
    <title>079CBB77-19F8-4EE7-BA7A-59D3C5BB6579</title>
    <desc>Created with sketchtool.</desc>
    <defs>
        <polygon id="path-1" points="27.1137391 0.147445161 27.1137391 37.7419355 0 37.7419355 0 0.147445161 27.1137391 0.147445161"></polygon>
    </defs>
    <g id="Page-1" stroke="none" stroke-width="1" fill="none" fill-rule="evenodd">
        <g id="index" transform="translate(-1097.000000, -3343.000000)">
            <g id="6-DA-block" transform="translate(136.000000, 2918.000000)">
                <g id="6-da" transform="translate(0.000000, 115.000000)">
                    <g id="Page-1" transform="translate(961.000000, 310.000000)">
                        <g id="Group-3" transform="translate(0.000000, 0.056565)">
                            <mask id="mask-2" fill="white">
                                <use xlink:href="#path-1"></use>
                            </mask>
                            <g id="Clip-2"></g>
                            <path d="M13.5565043,1.40550968 C6.75250435,1.40550968 1.21702609,7.12592903 1.21702609,14.1585097 C1.21702609,20.2349613 5.4012,25.493671 11.1655478,26.6661871 C11.3944174,26.7114774 11.5770261,26.8901226 11.6366783,27.1216065 L13.5565043,34.6473484 L15.4775478,27.1216065 C15.5372,26.8901226 15.7198087,26.7114774 15.9486783,26.6661871 C21.7130261,25.493671 25.8972,20.2349613 25.8972,14.1585097 C25.8972,7.12592903 20.3617217,1.40550968 13.5565043,1.40550968 M13.5565043,37.7421871 L13.5565043,37.7421871 C13.2789391,37.7421871 13.0378957,37.5484452 12.9685043,37.2741871 L10.5544174,27.8185742 C4.41633043,26.3831226 -0.000365217391,20.7017032 -0.000365217391,14.1585097 C-0.000365217391,6.43273548 6.08050435,0.147445161 13.5565043,0.147445161 C21.0325043,0.147445161 27.1145913,6.43273548 27.1145913,14.1585097 C27.1145913,20.7017032 22.6978957,26.3831226 16.5598087,27.8185742 L14.1445043,37.2741871 C14.075113,37.5484452 13.8328522,37.7421871 13.5565043,37.7421871" id="Fill-1" fill="#2A166D" mask="url(#mask-2)"></path>
                        </g>
                        <path d="M13.5672174,17.5269298 C13.6877391,17.5269298 13.8082609,17.5634137 13.9117391,17.6376395 C14.5094783,18.0628653 15.0426957,18.447833 15.5150435,18.7900266 C16.3842609,19.4190588 17.1731304,19.987704 17.6734783,20.2946718 C17.5444348,19.7499298 17.2826957,18.8969621 17.0087826,18.0125427 C16.8152174,17.3847685 16.5924348,16.6613814 16.3489565,15.8386072 C16.2746957,15.5857363 16.3611304,15.3102201 16.5668696,15.1504459 C17.1317391,14.7138976 17.6430435,14.3226395 18.0971304,13.9754137 C18.9602609,13.3149298 19.7418261,12.7186072 20.1873913,12.3223169 C19.6383478,12.2782847 18.7630435,12.2694782 17.8536522,12.2606718 C17.2096522,12.2556395 16.4706957,12.2480911 15.6331304,12.2304782 C15.3786957,12.2254459 15.155913,12.0568653 15.0706957,11.8102847 C14.8284348,11.095704 14.6153913,10.4553492 14.427913,9.88922014 C14.0894783,8.86892982 13.783913,7.94551046 13.5574783,7.40202659 C13.348087,7.91909111 13.0693043,8.77080078 12.7807826,9.65396207 C12.5750435,10.2792201 12.3388696,10.998833 12.0637391,11.8102847 C11.9785217,12.0568653 11.7557391,12.2254459 11.5013043,12.2304782 C10.7854783,12.245575 10.1426957,12.2543814 9.57295652,12.2619298 C8.498,12.2770266 7.52408696,12.2908653 6.93852174,12.343704 C7.35608696,12.7085427 8.05973913,13.240704 8.78895652,13.7929943 C9.30513043,14.1842524 9.89921739,14.6333814 10.5663478,15.1504459 C10.772087,15.3102201 10.8597391,15.5857363 10.7854783,15.8386072 C10.542,16.6613814 10.318,17.3847685 10.1244348,18.0125427 C9.85173913,18.8982201 9.58878261,19.7499298 9.46095652,20.2946718 C9.96008696,19.987704 10.7489565,19.4178008 11.6181739,18.7900266 C12.0917391,18.447833 12.6249565,18.0628653 13.2226957,17.6376395 C13.3261739,17.5634137 13.4466957,17.5269298 13.5672174,17.5269298 L13.5672174,17.5269298 Z M9.3806087,20.8331234 L9.39278261,20.8331234 L9.3806087,20.8331234 Z M18.1336522,21.800575 C17.5578261,21.800575 16.7153913,21.1916718 14.8174783,19.8203814 C14.440087,19.5473814 14.0237391,19.246704 13.5672174,18.9196072 C13.1094783,19.246704 12.6943478,19.5473814 12.3169565,19.8203814 C9.82495652,21.6206718 9.15173913,22.1088008 8.51017391,21.6244459 C7.882,21.1451234 8.13278261,20.3311556 8.96547826,17.6300911 C9.12373913,17.1168008 9.30147826,16.5380911 9.49504348,15.892704 C8.96913043,15.4888653 8.49313043,15.1278008 8.06947826,14.8069943 C5.84043478,13.1199298 5.16843478,12.6104137 5.40582609,11.8392201 C5.64808696,11.0579621 6.47591304,11.0478976 9.55591304,11.0038653 C10.01,10.998833 10.5091304,10.9912847 11.0545217,10.9812201 C11.2687826,10.3408653 11.4586957,9.76341369 11.6266957,9.25138143 C12.5068696,6.56667175 12.7722609,5.75773627 13.5526087,5.75522014 L13.5550435,5.75522014 C14.343913,5.75522014 14.6068696,6.54528466 15.5783478,9.48034917 C15.7293043,9.9332524 15.8948696,10.432704 16.079913,10.9812201 C16.7397391,10.9925427 17.3350435,10.998833 17.8633913,11.0026072 C20.6366087,11.0290266 21.4729565,11.037833 21.714,11.8065105 C21.9611304,12.5877685 21.2952174,13.0972847 18.8202609,14.9868976 C18.4623478,15.2611556 18.067913,15.561833 17.6393913,15.892704 C17.8329565,16.5380911 18.0106957,17.1168008 18.1689565,17.6300911 C19.0016522,20.3311556 19.2524348,21.1463814 18.6230435,21.6244459 C18.4696522,21.7401879 18.3150435,21.800575 18.1336522,21.800575 L18.1336522,21.800575 Z" id="Fill-4" fill="#2A166D"></path>
                    </g>
                </g>
            </g>
        </g>
    </g>
</svg>