<?xml version="1.0" encoding="UTF-8"?>
<svg width="30px" height="37px" viewBox="0 0 30 37" version="1.1" xmlns="http://www.w3.org/2000/svg" xmlns:xlink="http://www.w3.org/1999/xlink">
    <!-- Generator: sketchtool 41 (35326) - http://www.bohemiancoding.com/sketch -->
    <title>8CE5B589-E16A-49A5-98E1-2B751E7F3EDC</title>
    <desc>Created with sketchtool.</desc>
    <defs>
        <polygon id="path-1" points="29.0476443 0.318709677 0.000319941654 0.318709677 0.000319941654 36.7741935 29.0476443 36.7741935"></polygon>
    </defs>
    <g id="Page-1" stroke="none" stroke-width="1" fill="none" fill-rule="evenodd">
        <g id="index" transform="translate(-1097.000000, -3088.000000)">
            <g id="6-DA-block" transform="translate(136.000000, 2918.000000)">
                <g id="6-da" transform="translate(0.000000, 115.000000)">
                    <g id="Page-1" transform="translate(961.000000, 54.000000)">
                        <g id="Group-3" transform="translate(0.000000, 0.907710)">
                            <mask id="mask-2" fill="white">
                                <use xlink:href="#path-1"></use>
                            </mask>
                            <g id="Clip-2"></g>
                            <path d="M6.97512,35.5483871 L22.07232,35.5483871 L19.25352,12.989871 C19.23312,12.8145806 19.28592,12.6392903 19.39992,12.5069032 C19.51272,12.3745161 19.67712,12.2985161 19.84992,12.2985161 L26.80392,12.2985161 L14.53512,1.73206452 L2.24472,12.2985161 L9.19872,12.2985161 C9.37032,12.2985161 9.53472,12.3745161 9.64872,12.5069032 C9.76152,12.6392903 9.81432,12.8145806 9.79392,12.989871 L6.97512,35.5483871 Z M22.75272,36.7741935 L6.29472,36.7741935 C6.12192,36.7741935 5.95752,36.6981935 5.84472,36.5658065 C5.73072,36.4346452 5.67792,36.258129 5.69952,36.0840645 L8.51712,13.5243226 L0.60072,13.5243226 C0.34872,13.5243226 0.12312,13.3637419 0.03672,13.1210323 C-0.04968,12.8795484 0.02112,12.6086452 0.21312,12.4419355 L14.14872,0.462129032 C14.37312,0.270903226 14.69952,0.269677419 14.92152,0.463354839 L28.83432,12.4431613 C29.02632,12.6086452 29.09832,12.8807742 29.01072,13.1222581 C28.92432,13.3637419 28.69992,13.5243226 28.44792,13.5243226 L20.53032,13.5243226 L23.34912,36.0840645 C23.37072,36.258129 23.31672,36.4346452 23.20272,36.5658065 C23.08992,36.6981935 22.92552,36.7741935 22.75272,36.7741935 L22.75272,36.7741935 Z" id="Fill-1" fill="#2A166D" mask="url(#mask-2)"></path>
                        </g>
                        <path d="M6.2532,16.8623161 L0.6,16.8623161 C0.2688,16.8623161 0,16.5877355 0,16.2494129 C0,15.9110903 0.2688,15.6365097 0.6,15.6365097 L6.2532,15.6365097 C6.5844,15.6365097 6.8532,15.9110903 6.8532,16.2494129 C6.8532,16.5877355 6.5844,16.8623161 6.2532,16.8623161" id="Fill-4" fill="#2A166D"></path>
                        <path d="M28.5282,16.8623161 L22.7802,16.8623161 C22.449,16.8623161 22.1802,16.5877355 22.1802,16.2494129 C22.1802,15.9110903 22.449,15.6365097 22.7802,15.6365097 L28.5282,15.6365097 C28.8594,15.6365097 29.1282,15.9110903 29.1282,16.2494129 C29.1282,16.5877355 28.8594,16.8623161 28.5282,16.8623161" id="Fill-6" fill="#2A166D"></path>
                        <path d="M14.66844,30.7065742 C13.77924,30.7065742 12.60204,30.2052194 11.80764,29.485671 C11.55924,29.2613484 11.53644,28.8739935 11.75604,28.6214774 C11.97564,28.3652839 12.35484,28.3419935 12.60204,28.5687677 C13.16844,29.079929 14.07684,29.4807677 14.66844,29.4807677 C15.53724,29.4807677 16.24284,28.8703161 16.24284,28.1213484 C16.24284,27.7536065 16.06164,27.2081226 14.49684,26.7361871 C13.64484,26.457929 11.89524,25.887929 11.89524,24.1742516 C11.89524,22.7486387 13.13964,21.5890258 14.66844,21.5890258 C15.64764,21.5890258 16.56564,22.0768968 17.06124,22.8650903 C17.24124,23.1494774 17.15964,23.5294774 16.88124,23.7121226 C16.60164,23.8923161 16.23204,23.8114129 16.05084,23.5282516 C15.77484,23.0869613 15.24444,22.8148323 14.66844,22.8148323 C13.80084,22.8148323 13.09524,23.4252839 13.09524,24.1742516 C13.09524,24.6645742 13.39404,25.089929 14.85084,25.5643161 C15.48324,25.7555419 17.44284,26.3488323 17.44284,28.1213484 C17.44284,29.5469613 16.19724,30.7065742 14.66844,30.7065742" id="Fill-8" fill="#2A166D"></path>
                        <path d="M14.66844,22.8142194 C14.33724,22.8142194 14.06844,22.5396387 14.06844,22.2013161 L14.06844,21.1238323 C14.06844,20.7855097 14.33724,20.510929 14.66844,20.510929 C14.99964,20.510929 15.26844,20.7855097 15.26844,21.1238323 L15.26844,22.2013161 C15.26844,22.5396387 14.99964,22.8142194 14.66844,22.8142194" id="Fill-10" fill="#2A166D"></path>
                        <path d="M14.66844,31.7851613 C14.33724,31.7851613 14.06844,31.5105806 14.06844,31.1722581 L14.06844,30.0935484 C14.06844,29.7552258 14.33724,29.4806452 14.66844,29.4806452 C14.99964,29.4806452 15.26844,29.7552258 15.26844,30.0935484 L15.26844,31.1722581 C15.26844,31.5105806 14.99964,31.7851613 14.66844,31.7851613" id="Fill-12" fill="#2A166D"></path>
                    </g>
                </g>
            </g>
        </g>
    </g>
</svg>