<?xml version="1.0" encoding="UTF-8"?>
<svg width="39px" height="41px" viewBox="0 0 39 41" version="1.1" xmlns="http://www.w3.org/2000/svg" xmlns:xlink="http://www.w3.org/1999/xlink">
    <!-- Generator: sketchtool 41 (35326) - http://www.bohemiancoding.com/sketch -->
    <title>80EEC5B8-26EF-4032-84C7-AE6D857E20EB</title>
    <desc>Created with sketchtool.</desc>
    <defs></defs>
    <g id="Page-1" stroke="none" stroke-width="1" fill="none" fill-rule="evenodd">
        <g id="Elements" transform="translate(-84.000000, -3491.000000)" fill="#998100">
            <g id="tube-stairs" transform="translate(84.000000, 3491.000000)">
                <g id="Capa_1">
                    <path d="M38.0991,40.8469489 L0.750176471,40.8469489 C0.370041176,40.8469489 0.0619411765,40.5340909 0.0619411765,40.1480852 L0.0619411765,34.1599886 C0.0619411765,33.773983 0.370041176,33.461125 0.750176471,33.461125 L7.51942941,33.461125 L7.51942941,28.1225057 C7.51942941,27.7365 7.82752941,27.423642 8.20766471,27.423642 L14.9771471,27.423642 L14.9771471,22.0850227 C14.9771471,21.699017 15.2852471,21.3861591 15.6653824,21.3861591 L22.4348647,21.3861591 L22.4348647,16.0475398 C22.4348647,15.6615341 22.7429647,15.3486761 23.1231,15.3486761 L29.8923529,15.3486761 L29.8923529,10.0098239 C29.8923529,9.62381818 30.2004529,9.31096023 30.5805882,9.31096023 L38.0991,9.31096023 C38.4792353,9.31096023 38.7873353,9.62381818 38.7873353,10.0098239 L38.7873353,40.1480852 C38.7873353,40.5340909 38.4792353,40.8469489 38.0991,40.8469489 Z M1.43841176,39.4492216 L37.4108647,39.4492216 L37.4108647,10.7086875 L31.2688235,10.7086875 L31.2688235,15.759142 C31.3080529,15.8471989 31.3300765,15.9448068 31.3300765,16.0475398 C31.3300765,16.4335455 31.0219765,16.7464034 30.6418412,16.7464034 L23.8115647,16.7464034 L23.8115647,21.7970909 C23.8507941,21.8849148 23.8725882,21.9825227 23.8725882,22.0850227 C23.8725882,22.4710284 23.5644882,22.7838864 23.1843529,22.7838864 L16.3536176,22.7838864 L16.3536176,27.8345739 C16.3928471,27.9223977 16.4146412,28.0200057 16.4146412,28.1225057 C16.4146412,28.5085114 16.1065412,28.8213693 15.7264059,28.8213693 L8.8959,28.8213693 L8.8959,33.8715909 C8.93512941,33.9596477 8.95715294,34.0572557 8.95715294,34.1599886 C8.95715294,34.5459943 8.64905294,34.8588523 8.26891765,34.8588523 L1.43841176,34.8588523 L1.43841176,39.4492216 Z M0.750864706,22.8151023 C0.534988235,22.8151023 0.322323529,22.7123693 0.188347059,22.5197159 C-0.0312,22.2042955 0.0424411765,21.7682045 0.352835294,21.5455 L30.1830176,0.128357955 C30.2993294,0.0447272727 30.4381235,0 30.5803588,0 L38.0988706,0 C38.4790059,0 38.7871059,0.312857955 38.7871059,0.698863636 C38.7871059,1.08486932 38.4790059,1.39772727 38.0988706,1.39772727 L30.7989882,1.39772727 L1.14774706,22.6869773 C1.02684706,22.7736364 0.888282353,22.8151023 0.750864706,22.8151023 Z" id="Shape"></path>
                </g>
            </g>
        </g>
    </g>
</svg>