<?xml version="1.0" encoding="UTF-8"?>
<svg width="20px" height="18px" viewBox="0 0 20 18" version="1.1" xmlns="http://www.w3.org/2000/svg" xmlns:xlink="http://www.w3.org/1999/xlink">
    <!-- Generator: sketchtool 41 (35326) - http://www.bohemiancoding.com/sketch -->
    <title>7D3CB998-1F5B-4888-8110-B523FAF74C8A</title>
    <desc>Created with sketchtool.</desc>
    <defs></defs>
    <g id="Page-1" stroke="none" stroke-width="1" fill="none" fill-rule="evenodd">
        <g id="index" transform="translate(-1120.000000, -46.000000)" fill="#fff">
            <g id="Header" transform="translate(135.000000, 9.000000)">
                <g id="viber" transform="translate(985.000000, 37.000000)">
                    <g id="viber-icon" transform="translate(2.000000, 1.000000)">
                        <g id="Group-3" transform="translate(0.000000, 0.034365)">
                            <path d="M14.2105322,10.230303 C13.9536066,11.2453118 12.6353917,12.5074147 11.588119,12.7404986 C10.217276,13.0012064 8.83532562,13.1124945 7.45489587,13.074297 C7.42752397,13.073504 7.40087934,13.0840777 7.3817719,13.1039695 C7.18600331,13.3048036 6.09641653,14.4228399 6.09641653,14.4228399 L4.7291438,15.8253748 C4.62917686,15.9296578 4.45357355,15.8586819 4.45357355,15.7148796 L4.45357355,12.8378427 C4.45357355,12.7903272 4.41952397,12.7498167 4.37297851,12.740763 L4.37198678,12.7404986 C3.32471405,12.5074147 2.00729256,11.2453118 1.74983802,10.230303 C1.32134215,8.26630485 1.32134215,6.27521161 1.74983802,4.31121348 C2.00729256,3.29620465 3.32471405,2.03410174 4.37198678,1.80101781 C6.7666314,1.3456219 9.19426777,1.3456219 11.588119,1.80101781 C12.6359207,2.03410174 13.9536066,3.29620465 14.2105322,4.31121348 C14.639557,6.27521161 14.639557,8.26630485 14.2105322,10.230303 M15.6039207,3.99605122 L15.598962,3.97721683 C15.2139041,2.42109906 13.4781025,0.751644469 11.8838545,0.404166351 L11.8660033,0.400597728 C9.28749091,-0.0912113538 6.67287934,-0.0912113538 4.09482975,0.400597728 L4.0765157,0.404166351 C2.48279669,0.751644469 0.746995041,2.42109906 0.361408264,3.97721683 L0.356978512,3.99605122 C-0.11898843,6.16914422 -0.11898843,8.37263659 0.356978512,10.5454652 L0.361408264,10.564564 C0.730466116,12.0540675 2.3371438,13.6468627 3.87168926,14.0849442 L3.87168926,15.82174 C3.87168926,16.4503463 4.63823471,16.7590983 5.07393719,16.3054867 L6.83453223,14.4763032 C7.21621818,14.4977149 7.59849917,14.5096103 7.98044959,14.5096103 C9.27849917,14.5096103 10.5770116,14.3869554 11.8660033,14.1411831 L11.8838545,14.1373501 C13.4781025,13.7901363 15.2139041,12.1204174 15.598962,10.564564 L15.6039207,10.5454652 C16.0798876,8.37263659 16.0798876,6.16914422 15.6039207,3.99605122" id="Fill-1"></path>
                        </g>
                        <path d="M10.2585917,11.5927899 C10.0974017,11.5440187 9.94401322,11.5112403 9.80173223,11.4520937 C8.3249719,10.8398105 6.9662281,10.0498893 5.88979835,8.83887054 C5.27769917,8.15019244 4.79862479,7.37289353 4.39340165,6.54992948 C4.20153388,6.15982615 4.03961653,5.75432487 3.87452562,5.35159918 C3.72424463,4.9842293 3.94586446,4.60476574 4.17905455,4.32806531 C4.39802975,4.06834888 4.67981488,3.86956337 4.98480661,3.72291941 C5.22295537,3.60859131 5.45773223,3.67467692 5.63181488,3.87630411 C6.00781488,4.31253519 6.35313719,4.77103713 6.63254215,5.27645985 C6.80457521,5.58752479 6.75756694,5.96751703 6.4458314,6.17918923 C6.37019504,6.23060383 6.3009719,6.29100607 6.23042645,6.34909532 C6.1687405,6.4001795 6.11036033,6.45152801 6.06798017,6.5204553 C5.99049256,6.64674489 5.98665785,6.79543751 6.03677355,6.93249905 C6.42103802,7.9882827 7.06877355,8.8091981 8.13178182,9.25117864 C8.30196364,9.32189024 8.47267438,9.4042329 8.66870744,9.38149945 C8.9969719,9.34303763 9.1030876,8.98346585 9.33323636,8.79525404 C9.55789752,8.61173431 9.84510413,8.60915697 10.0873521,8.76247558 C10.3296,8.91559593 10.5643769,9.08001692 10.7975669,9.2462883 C11.0266579,9.40938758 11.2546909,9.56891823 11.4659967,9.75508138 C11.6692364,9.93397512 11.7392529,10.1686451 11.6248066,10.4112454 C11.4153521,10.8558032 11.1106248,11.2254861 10.6710215,11.4616761 C10.5467901,11.5282904 10.3985587,11.5497021 10.2585917,11.5927899 C10.0974017,11.5440187 10.3985587,11.5497021 10.2585917,11.5927899" id="Fill-4"></path>
                        <path d="M7.98454215,3.21465502 C9.91584793,3.26884521 11.502162,4.55004686 11.8419967,6.45853309 C11.8998479,6.78380644 11.9205421,7.11628313 11.9463273,7.44618247 C11.9571702,7.58509442 11.8786909,7.71700129 11.7286083,7.7187856 C11.5739636,7.72063599 11.5042116,7.59130646 11.494162,7.45239452 C11.4742612,7.17774274 11.4605752,6.90176925 11.4225587,6.62943046 C11.2226909,5.1912755 10.0754512,4.00147024 8.64338512,3.74618155 C8.42778182,3.70771972 8.20721983,3.69767471 7.9889719,3.67467692 C7.85105455,3.66020417 7.67029421,3.65194347 7.63981488,3.48051741 C7.61396364,3.33678122 7.73535207,3.22238703 7.87247603,3.21491936 C7.90969917,3.2128707 7.94712066,3.21465502 7.98454215,3.21465502 C9.91584793,3.26884521 7.94712066,3.21465502 7.98454215,3.21465502" id="Fill-6"></path>
                        <path d="M10.9194843,7.01794774 C10.9163769,7.04193682 10.9145917,7.09870435 10.9006413,7.15216761 C10.8492694,7.34579844 10.555319,7.37005185 10.4876826,7.17463672 C10.4675174,7.11654747 10.4646744,7.05046186 10.4644099,6.98801096 C10.463881,6.57907323 10.3748231,6.17066418 10.1687405,5.81499145 C9.95644298,5.44920762 9.63254215,5.14171129 9.25264132,4.95587857 C9.02282314,4.84333478 8.77436033,4.77361447 8.52252562,4.73178228 C8.41250909,4.71374091 8.30123636,4.70263853 8.19069091,4.68710841 C8.05660826,4.66853835 7.98507107,4.58335401 7.99128595,4.45118279 C7.99723636,4.32753663 8.08761653,4.23845323 8.22269091,4.24618524 C8.66586446,4.27123169 9.09409587,4.36705582 9.48794711,4.57562199 C10.2893355,4.99975941 10.7469884,5.66940486 10.8807405,6.56334486 C10.8866909,6.60385533 10.896476,6.64390321 10.8995835,6.68467803 C10.9071207,6.78506207 10.9117488,6.88551219 10.9194843,7.01794774 C10.9163769,7.04193682 10.9117488,6.88551219 10.9194843,7.01794774" id="Fill-8"></path>
                        <path d="M9.71829421,6.97122522 C9.55664132,6.9740669 9.47009587,6.88471916 9.45356694,6.73655523 C9.44193058,6.63326343 9.43293884,6.528716 9.40814545,6.42833196 C9.35955041,6.23033949 9.25442645,6.04701802 9.08788099,5.92568484 C9.00933554,5.86865296 8.92027769,5.82682078 8.82705455,5.79999002 C8.70850909,5.76569159 8.58526942,5.77520792 8.46698843,5.74606416 C8.33865785,5.71480567 8.26764959,5.61078693 8.28774876,5.49024678 C8.30612893,5.38074293 8.41277355,5.29529424 8.53264132,5.30381929 C9.28133554,5.35781123 9.81667438,5.74474245 9.89290579,6.6260601 C9.89832727,6.6880484 9.9047405,6.75386966 9.8908562,6.81321453 C9.86731901,6.91518463 9.79188099,6.96607054 9.71829421,6.97122522 C9.55664132,6.9740669 9.79188099,6.96607054 9.71829421,6.97122522" id="Fill-10"></path>
                    </g>
                </g>
            </g>
        </g>
    </g>
</svg>