<?xml version="1.0" encoding="UTF-8"?>
<svg width="47px" height="47px" viewBox="0 0 47 47" version="1.1" xmlns="http://www.w3.org/2000/svg" xmlns:xlink="http://www.w3.org/1999/xlink">
    <!-- Generator: sketchtool 41 (35326) - http://www.bohemiancoding.com/sketch -->
    <title>98EB0765-5D42-42EE-8DFE-41687F4359E0</title>
    <desc>Created with sketchtool.</desc>
    <defs></defs>
    <g id="Page-1" stroke="none" stroke-width="1" fill="none" fill-rule="evenodd">
        <g id="Elements" transform="translate(-69.000000, -1244.000000)" fill="#fff">
            <g id="Arrows-active-not" transform="translate(69.000000, 1244.000000)">
                <g id="arrow-lef">
                    <path d="M23.88,0.45 C11.19,0.45 0.88,10.76 0.88,23.44 C0.88,36.12 11.19,46.44 23.88,46.44 C36.56,46.44 46.87,36.12 46.87,23.44 C46.87,10.76 36.56,0.45 23.88,0.45 L23.88,0.45 Z M23.88,44.95 C12.01,44.95 2.36,35.3 2.36,23.44 C2.36,11.58 12.01,1.93 23.88,1.93 C35.49,1.93 44.98,11.18 45.37,22.7 L21.3,22.65 L25.48,18.48 L24.43,17.43 L18.47,23.39 L24.54,29.46 L25.59,28.41 L21.31,24.14 L45.37,24.18 C44.98,35.7 35.49,44.95 23.88,44.95 L23.88,44.95 Z" id="Shape"></path>
                </g>
            </g>
        </g>
    </g>
</svg>