<?xml version="1.0" encoding="UTF-8"?>
<svg width="18px" height="18px" viewBox="0 0 18 18" version="1.1" xmlns="http://www.w3.org/2000/svg" xmlns:xlink="http://www.w3.org/1999/xlink">
    <!-- Generator: sketchtool 41 (35326) - http://www.bohemiancoding.com/sketch -->
    <title>DEE1B3A4-7313-443E-BF65-BF4BE3D32552</title>
    <desc>Created with sketchtool.</desc>
    <defs></defs>
    <g id="Page-1" stroke="none" stroke-width="1" fill="none" fill-rule="evenodd">
        <g id="index" transform="translate(-835.000000, -4957.000000)" fill="#574900">
            <g id="Citizen" transform="translate(-11.000000, 4778.000000)">
                <path d="M862.19775,188 C862.19775,191.96 858.96,195.19775 855,195.19775 C851.04,195.19775 847.80225,191.96 847.80225,188 C847.80225,184.04 851.04,180.80225 855,180.80225 C855.721125,180.80225 856.348875,180.89 856.98225,181.07 L858.418875,179.628875 C857.33775,179.26775 856.168875,179 855,179 C850.05225,179 846,183.05225 846,188 C846,192.94775 850.05225,197 855,197 C859.94775,197 864,192.94775 864,188 L862.19775,188 Z M851.308875,186.29 L850.05225,187.55225 L854.098875,191.598875 L863.098875,182.598875 L861.83775,181.33775 L854.098875,189.081125 L851.308875,186.29 Z" id="Page-1"></path>
            </g>
        </g>
    </g>
</svg>