<?xml version="1.0" encoding="UTF-8"?>
<svg width="31px" height="47px" viewBox="0 0 31 47" version="1.1" xmlns="http://www.w3.org/2000/svg" xmlns:xlink="http://www.w3.org/1999/xlink">
    <!-- Generator: sketchtool 41 (35326) - http://www.bohemiancoding.com/sketch -->
    <title>7A7B37C4-A3DE-42F0-9D29-BAB7E426CA04</title>
    <desc>Created with sketchtool.</desc>
    <defs></defs>
    <g id="Page-1" stroke="none" stroke-width="1" fill="none" fill-rule="evenodd">
        <g id="Elements" transform="translate(-431.000000, -3490.000000)" fill="#998100">
            <g id="door" transform="translate(431.000000, 3490.000000)">
                <g id="Layer_1">
                    <polygon id="Shape" points="21.8369471 4.8499043 21.8369471 6.27679492 29.5244 6.27679492 29.5244 40.7232051 28.6871265 40.7232051 28.6871265 10.7529023 27.2698794 10.7529023 27.2698794 40.7232051 21.8369471 40.7232051 21.8369471 42.1500957 30.9417382 42.1500957 30.9417382 4.8499043"></polygon>
                    <rect id="Rectangle-path" x="0.0587176471" y="32.6325039" width="1.41724706" height="1.42689062"></rect>
                    <polygon id="Shape" points="0.0582617647 5.00237891 0.0582617647 31.015043 1.4756 31.015043 1.4756 6.12441211 19.1190676 1.81445703 19.1190676 45.185543 1.4756 40.8755879 1.4756 35.7714062 0.0582617647 35.7714062 0.0582617647 41.9976211 20.5363147 47 20.5363147 0"></polygon>
                    <path d="M15.4783,23.3573477 C14.3217265,23.3573477 13.3807853,24.3046914 13.3807853,25.4691348 C13.3807853,26.6335781 14.3217265,27.5809219 15.4783,27.5809219 C16.6348735,27.5810137 17.5758147,26.6335781 17.5758147,25.4691348 C17.5758147,24.3046914 16.6348735,23.3573477 15.4783,23.3573477 Z M15.4782088,26.1540313 C15.1032,26.154123 14.7979412,25.8467871 14.7979412,25.4691348 C14.7979412,25.0914824 15.1031088,24.7842383 15.4782088,24.7842383 C15.8533088,24.7842383 16.1584765,25.0914824 16.1584765,25.4691348 C16.1584765,25.8467871 15.8533088,26.1540313 15.4782088,26.1540313 Z" id="Shape"></path>
                    <rect id="Rectangle-path" x="27.2702441" y="7.70910156" width="1.41724706" height="1.42689062"></rect>
                </g>
            </g>
        </g>
    </g>
</svg>