<?xml version="1.0" encoding="UTF-8"?>
<svg width="14px" height="19px" viewBox="0 0 14 19" version="1.1" xmlns="http://www.w3.org/2000/svg" xmlns:xlink="http://www.w3.org/1999/xlink">
    <!-- Generator: sketchtool 41 (35326) - http://www.bohemiancoding.com/sketch -->
    <title>D8EDB154-1BEA-47C1-995E-7DC18D457370</title>
    <desc>Created with sketchtool.</desc>
    <defs></defs>
    <g id="Page-1" stroke="none" stroke-width="1" fill="none" fill-rule="evenodd">
        <g class="white-fill" id="Card" transform="translate(-855.000000, -4825.000000)" fill="#998100">
            <g id="near-objects" transform="translate(-3.000000, 4362.000000)">
                <g id="golf" transform="translate(858.000000, 463.000000)">
                    <g id="Layer_1">
                        <g id="Group">
                            <path d="M5.62528688,4.72751172 C5.68694929,4.78955859 5.76791826,4.82028516 5.84885018,4.82028516 C5.92981915,4.82028516 6.01075106,4.78955859 6.07241348,4.72751172 C6.44238794,4.35701172 6.44238794,3.75439258 6.07241348,3.38389258 C5.70277252,3.01402344 5.10130461,3.01372656 4.73103369,3.38422656 C4.60741241,3.50806055 4.60741241,3.70819141 4.73103369,3.83198828 C4.85435851,3.95582227 5.05453901,3.95582227 5.17816028,3.83198828 C5.30148511,3.70848828 5.5016656,3.70882227 5.62528688,3.83198828 C5.74831525,3.95548828 5.74831525,4.15625 5.62528688,4.27975 C5.50162855,4.40358398 5.50162855,4.60401172 5.62528688,4.72751172 Z" id="Shape"></path>
                            <path d="M6.96666667,0 C3.1306273,0 0.00989414893,3.12516602 0.00989414893,6.9666543 C0.00989414893,10.2906895 2.3707789,13.1660352 5.62306348,13.8035 C5.79634078,13.83675 5.96046507,13.7249766 5.99429787,13.5533457 C6.02783422,13.3817148 5.91618227,13.2154648 5.74479486,13.1818809 C2.78814894,12.6023809 0.642304433,9.98861914 0.642304433,6.9666543 C0.642304433,3.47443945 3.47940532,0.633308594 6.96666667,0.633308594 C10.453928,0.633308594 13.2910289,3.47443945 13.2910289,6.9666543 C13.2910289,10.4588691 10.453928,13.3 6.96666667,13.3 C6.79179592,13.3 6.65046152,13.4418691 6.65046152,13.6166543 C6.65046152,13.7914395 6.79179592,13.9333086 6.96666667,13.9333086 C10.802706,13.9333086 13.9234392,10.8081426 13.9234392,6.9666543 C13.9234392,3.12516602 10.802706,0 6.96666667,0 Z" id="Shape"></path>
                            <path d="M9.81262411,13.9333457 C9.63775337,13.9333457 9.49641897,14.0752148 9.49641897,14.25 C9.49641897,14.4244883 9.35475106,14.5666543 9.18021383,14.5666543 L4.75315656,14.5666543 C4.57861933,14.5666543 4.43695142,14.4244883 4.43695142,14.25 C4.43695142,14.0752148 4.29561702,13.9333457 4.12074628,13.9333457 C3.94587553,13.9333457 3.80454113,14.0752148 3.80454113,14.25 C3.80454113,14.7737617 4.23017482,15.2 4.75319362,15.2 L6.06644734,15.2 L6.65490833,18.7355957 C6.68021809,18.8879297 6.81206596,19 6.96670372,19 C7.12134149,19 7.25318936,18.8878926 7.27849911,18.7355957 L7.86699716,15.2 L9.18025089,15.2 C9.70326968,15.2 10.1289034,14.7737617 10.1289034,14.25 C10.1288293,14.0752148 9.98749486,13.9333457 9.81262411,13.9333457 Z M6.96666667,16.7570352 L6.70767713,15.2 L7.22565621,15.2 L6.96666667,16.7570352 Z" id="Shape"></path>
                            <path d="M8.53194326,6.29501172 C8.59393918,6.35676172 8.67457465,6.38778516 8.75550656,6.38778516 C8.83643848,6.38778516 8.91740745,6.35676172 8.97906986,6.29501172 C9.34871082,5.92451172 9.34871082,5.32189258 8.97906986,4.95172656 C8.6094289,4.58156055 8.00766454,4.58089258 7.63735656,4.95139258 C7.51373528,5.07489258 7.51373528,5.2756543 7.63735656,5.3991543 C7.76101489,5.52298828 7.96115833,5.5226543 8.08448316,5.39948828 C8.20843794,5.2756543 8.40891489,5.27598828 8.53194326,5.39948828 C8.65526809,5.5226543 8.65526809,5.72375 8.53194326,5.84725 C8.40861844,5.97075 8.40861844,6.17151172 8.53194326,6.29501172 Z" id="Shape"></path>
                            <path d="M9.42619645,3.16001172 C9.30287163,3.2838457 9.30287163,3.48427344 9.42619645,3.60810742 C9.54985479,3.73160742 9.74999823,3.73160742 9.87332305,3.60810742 C9.99727784,3.48460742 10.1977548,3.48460742 10.3207832,3.60810742 C10.444108,3.73160742 10.444108,3.93236914 10.3207832,4.05586914 C10.1974583,4.17970313 10.1974583,4.38013086 10.3207832,4.50363086 C10.3827791,4.56538086 10.463711,4.5964043 10.5443465,4.5964043 C10.6253154,4.5964043 10.7062473,4.56538086 10.7679098,4.50363086 C11.1375507,4.13346484 11.1375507,3.5308457 10.7679098,3.1603457 C10.3982688,2.78951172 9.79617092,2.7898457 9.42619645,3.16001172 Z" id="Shape"></path>
                            <path d="M6.96666667,2.04027344 C6.84300833,2.16410742 6.84300833,2.36453516 6.96666667,2.48836914 C7.090325,2.61220312 7.29017199,2.61186914 7.41379326,2.48836914 C7.53363475,2.3686543 7.7423383,2.36898828 7.86091986,2.48836914 C7.98424468,2.61186914 7.98457819,2.81296484 7.86125337,2.93613086 C7.73759504,3.05992773 7.73759504,3.26039258 7.86125337,3.38422656 C7.92291578,3.44597656 8.00388475,3.47670312 8.08481667,3.47670312 C8.16578564,3.47670312 8.24671755,3.44597656 8.30837996,3.38422656 C8.67802092,3.01372656 8.67802092,2.41081055 8.30804645,2.04060742 C7.95011543,1.68213086 7.32526472,1.68183398 6.96666667,2.04027344 Z" id="Shape"></path>
                            <path d="M9.42619645,8.5341543 C9.54985479,8.65798828 9.74999823,8.65798828 9.87332305,8.5341543 C9.99664787,8.4106543 10.1971248,8.4106543 10.3207832,8.5341543 C10.444108,8.6576543 10.444108,8.85875 10.3207832,8.98225 C10.1974583,9.10575 10.1974583,9.30621484 10.3207832,9.43001172 C10.3827791,9.49176172 10.463711,9.52278516 10.5443465,9.52278516 C10.6253154,9.52278516 10.7062473,9.49176172 10.7679098,9.43001172 C11.1378842,9.05951172 11.1378842,8.45689258 10.7679098,8.0860957 C10.3982688,7.7155957 9.79617092,7.71622656 9.42619645,8.08642969 C9.30287163,8.21022656 9.30287163,8.4106543 9.42619645,8.5341543 Z" id="Shape"></path>
                            <path d="M11.4389332,6.9666543 C11.5005956,7.0284043 11.5815645,7.05942773 11.6624965,7.05942773 C11.7431319,7.05942773 11.8241009,7.0284043 11.8860598,6.9666543 C12.0650438,6.78741602 12.1640223,6.5486543 12.1640223,6.29501172 C12.1640223,6.04136914 12.0650438,5.80260742 11.8860598,5.62336914 C11.5164188,5.25286914 10.9146544,5.25286914 10.5443465,5.62307227 C10.4210216,5.74690625 10.4210216,5.94733398 10.5443465,6.07116797 C10.6680048,6.19466797 10.8681482,6.19466797 10.9918066,6.07116797 C11.1151314,5.94766797 11.3159418,5.94766797 11.4389332,6.07116797 C11.4987057,6.13102539 11.531575,6.21051367 11.531575,6.29504883 C11.531575,6.37958398 11.4987057,6.45907227 11.4389332,6.51863281 C11.3152748,6.64239258 11.3152748,6.84285742 11.4389332,6.9666543 Z" id="Shape"></path>
                        </g>
                    </g>
                </g>
            </g>
        </g>
    </g>
</svg>