<?xml version="1.0" encoding="UTF-8"?>
<svg width="39px" height="39px" viewBox="0 0 39 39" version="1.1" xmlns="http://www.w3.org/2000/svg" xmlns:xlink="http://www.w3.org/1999/xlink">
    <!-- Generator: sketchtool 41 (35326) - http://www.bohemiancoding.com/sketch -->
    <title>5A20640D-B721-4DE5-95AB-20B11648C0B2</title>
    <desc>Created with sketchtool.</desc>
    <defs></defs>
    <g id="Page-1" stroke="none" stroke-width="1" fill="none" fill-rule="evenodd">
        <g id="Elements" transform="translate(-752.000000, -3493.000000)" fill="#998100">
            <g id="Group-8" transform="translate(752.000000, 3493.000000)">
                <path d="M35.7499746,3.9 L9.75,3.9 C9.39054492,3.9 9.10002539,4.19120508 9.10002539,4.54997461 C9.10002539,4.90874414 9.39054492,5.19994922 9.75,5.19994922 L35.7499746,5.19994922 C36.8068594,5.19994922 37.6999746,6.09306445 37.6999746,7.14994922 L37.6999746,35.7499746 C37.6999746,36.8432695 36.8439551,37.6999746 35.7499746,37.6999746 L3.9,37.6999746 C2.46606445,37.6999746 1.30002539,36.5338594 1.30002539,35.1 C1.30002539,33.6660645 2.46614062,32.5000254 3.9,32.5000254 C5.33385938,32.5000254 6.49997461,33.6661406 6.49997461,35.1 C6.49997461,35.4587695 6.79049414,35.7499746 7.14994922,35.7499746 C7.5094043,35.7499746 7.79992383,35.4587695 7.79992383,35.1 L7.79992383,3.9 C7.8,1.74913477 6.05086523,0 3.9,0 C1.74913477,0 0,1.74913477 0,3.9 L0,35.1 C0,37.2508652 1.74913477,39 3.9,39 L35.7499746,39 C37.5726152,39 39,37.5726152 39,35.7499746 L39,7.15002539 C39,5.35792969 37.5420703,3.9 35.7499746,3.9 Z M1.30002539,3.9 C1.30002539,2.46606445 2.46614062,1.30002539 3.9,1.30002539 C5.33385937,1.30002539 6.49997461,2.46606445 6.49997461,3.9 L6.49997461,32.2016602 C5.80901953,31.5809355 4.89899414,31.2 3.9,31.2 C2.90100586,31.2 1.99029492,31.5808594 1.30002539,32.2016602 L1.30002539,3.9 L1.30002539,3.9 Z" id="Shape"></path>
                <path d="M26.2499746,32.9999746 C25.8905195,32.9999746 25.6,33.2911797 25.6,33.6499492 C25.6,34.0087187 25.8905195,34.2999238 26.2499746,34.2999238 L34.0499746,34.2999238 C34.4094297,34.2999238 34.6999492,34.0087187 34.6999492,33.6499492 L34.6999492,7.64997461 C34.6999492,7.29120508 34.4094297,7 34.0499746,7 L10.6499746,7 C10.2905195,7 10,7.29120508 10,7.64997461 L10,33.6499492 C10,34.0087187 10.2905195,34.2999238 10.6499746,34.2999238 L23.65,34.2999238 C24.0094551,34.2999238 24.2999746,34.0087187 24.2999746,33.6499492 C24.2999746,30.6436738 26.5788848,28.1600137 29.5,27.8356738 L29.5,31.0498984 C29.5,31.408668 29.7905195,31.699873 30.1499746,31.699873 C30.5094297,31.699873 30.7999492,31.408668 30.7999492,31.0498984 L30.7999492,27.1498984 C30.7999492,26.7911289 30.5094297,26.4999238 30.1499746,26.4999238 C26.4267695,26.4999238 23.3632891,29.3612441 23.033084,32.9998984 L11.2999492,32.9998984 L11.2999492,22.6 L23.6499238,22.6 C24.0093789,22.6 24.2998984,22.3087949 24.2998984,21.9500254 L24.2998984,19.3500508 C24.2998984,18.9912813 24.0093789,18.7000762 23.6499238,18.7000762 C23.2904688,18.7000762 22.9999492,18.9912812 22.9999492,19.3500508 L22.9999492,21.3000508 L11.2999492,21.3000508 L11.2999492,8.30002539 L22.9999492,8.30002539 L22.9999492,12.85 C22.9999492,13.2087695 23.2904688,13.4999746 23.6499238,13.4999746 C24.0093789,13.4999746 24.2998984,13.2087695 24.2998984,12.85 L24.2998984,8.30002539 L33.3999238,8.30002539 L33.3999238,21.3000508 L30.1498984,21.3000508 C29.7904434,21.3000508 29.4999238,21.5912559 29.4999238,21.9500254 C29.4999238,22.3087949 29.7904434,22.6 30.1498984,22.6 L33.3999238,22.6 L33.3999238,32.9999746 L26.2499746,32.9999746 L26.2499746,32.9999746 Z" id="Shape"></path>
            </g>
        </g>
    </g>
</svg>