<?xml version="1.0" encoding="UTF-8"?>
<svg width="20px" height="22px" viewBox="0 0 20 22" version="1.1" xmlns="http://www.w3.org/2000/svg" xmlns:xlink="http://www.w3.org/1999/xlink">
    <!-- Generator: sketchtool 41 (35326) - http://www.bohemiancoding.com/sketch -->
    <title>5688FE3F-72F1-40C0-97CF-5C8622469B1B</title>
    <desc>Created with sketchtool.</desc>
    <defs></defs>
    <g id="Page-1" stroke="none" stroke-width="1" fill="none" fill-rule="evenodd">
        <g id="Card" transform="translate(-851.000000, -4741.000000)" stroke="#998100">
            <g id="near-objects" transform="translate(-3.000000, 4362.000000)">
                <g id="thin-0723-nurse-medicine-hospital-doctor" transform="translate(854.000000, 379.000000)">
                    <g id="Layer_1">
                        <g id="Group" transform="translate(0.833333, 0.000000)">
                            <path d="M12.445675,8.88460833 C11.1103667,11.0528 8.89936667,12.4741833 6.39301667,12.4741833 C5.43528333,12.4741833 4.522925,12.2604167 3.68316667,11.883575 C3.42448333,12.6319417 3.27763333,13.4442 3.27763333,14.2967917 C3.27763333,17.9507167 5.88536667,21.373275 9.10231667,21.373275 C12.3192667,21.373275 14.927,17.950625 14.927,14.2967917 C14.9269083,12.057375 13.9447,10.0815917 12.445675,8.88460833 Z" id="Shape"></path>
                            <path d="M14.9269083,18.8990083 L17.3718417,18.0360583 C17.3718417,18.0360583 20.0838,8.29959167 13.60535,4.88198333" id="Shape"></path>
                            <path d="M3.38286667,18.8990083 L0.937933333,18.0360583 C0.937933333,18.0360583 -1.67190833,8.41885 4.59836667,4.92534167" id="Shape"></path>
                            <path d="M14.158375,3.10080833 C14.158375,1.77411667 11.8946667,0.698591667 9.102225,0.698591667 C6.30978333,0.698591667 4.046075,1.77411667 4.046075,3.10080833 C4.046075,3.34931667 5.06476667,6.30446667 5.06476667,6.30446667 C5.43390833,7.19455 6.87234167,7.36486667 9.102225,7.36486667 C11.3320167,7.36486667 12.7622917,7.2743 13.1396833,6.30446667 C13.1396833,6.30446667 14.158375,3.34931667 14.158375,3.10080833 Z" id="Shape"></path>
                            <path d="M9.167125,2.75036667 L9.167125,5.50036667" id="Shape"></path>
                            <path d="M10.542125,4.12536667 L7.792125,4.12536667" id="Shape"></path>
                            <path d="M7.772875,17.5911083 C7.772875,17.5911083 9.08554167,18.9371417 10.4316667,17.5911083" id="Shape"></path>
                            <path d="M7.792125,14.2035667 L6.885725,14.2035667" id="Shape"></path>
                            <path d="M11.4687833,14.2035667 L10.5622917,14.2035667" id="Shape"></path>
                        </g>
                    </g>
                </g>
            </g>
        </g>
    </g>
</svg>