<?xml version="1.0" encoding="UTF-8"?>
<svg width="19px" height="19px" viewBox="0 0 19 19" version="1.1" xmlns="http://www.w3.org/2000/svg" xmlns:xlink="http://www.w3.org/1999/xlink">
    <!-- Generator: sketchtool 41 (35326) - http://www.bohemiancoding.com/sketch -->
    <title>3DC0AF2F-BD25-4043-A9A5-ADDC521FCE68</title>
    <desc>Created with sketchtool.</desc>
    <defs></defs>
    <g id="Page-1" stroke="none" stroke-width="1" fill="none" fill-rule="evenodd">
        <g class="white-fill" id="Card" transform="translate(-852.000000, -4784.000000)" fill="#998100">
            <g id="near-objects" transform="translate(-3.000000, 4362.000000)">
                <g id="pharmacy-1" transform="translate(855.000000, 422.000000)">
                    <g id="Layer_1">
                        <path d="M18.604506,0 L0.395494048,0 C0.194373016,0 0.0312896825,0.160498047 0.0312896825,0.358476562 L0.0312896825,18.6415234 C0.0312896825,18.839502 0.194335317,19 0.395456349,19 L18.604506,19 C18.805627,19 18.9686726,18.839502 18.9686726,18.6415234 L18.9686726,0.358476562 C18.9687103,0.160498047 18.805627,0 18.604506,0 Z M18.2403393,18.2830098 L0.759660714,18.2830098 L0.759660714,0.716990234 L18.2403393,0.716990234 L18.2403393,18.2830098 Z" id="Shape"></path>
                        <path d="M15.3268929,7.16982813 L11.6850754,7.16982813 L11.6850754,3.58491406 C11.6850754,3.38693555 11.5220298,3.2264375 11.3209087,3.2264375 L7.67909127,3.2264375 C7.47797024,3.2264375 7.3149246,3.38693555 7.3149246,3.58491406 L7.3149246,7.16982813 L3.67310714,7.16982813 C3.47198611,7.16982813 3.30894048,7.33032617 3.30894048,7.52830469 L3.30894048,11.1132188 C3.30894048,11.3111973 3.47198611,11.4716953 3.67310714,11.4716953 L7.3149246,11.4716953 L7.3149246,15.0566094 C7.3149246,15.2545879 7.47797024,15.4150859 7.67909127,15.4150859 L11.3209087,15.4150859 C11.5220298,15.4150859 11.6850754,15.2545879 11.6850754,15.0566094 L11.6850754,11.4716953 L15.3268929,11.4716953 C15.5280139,11.4716953 15.6910595,11.3111973 15.6910595,11.1132188 L15.6910595,7.52830469 C15.6910595,7.33032617 15.5280139,7.16982813 15.3268929,7.16982813 Z M14.9627262,10.7547051 L11.3209087,10.7547051 C11.1197877,10.7547051 10.9567421,10.9152031 10.9567421,11.1131816 L10.9567421,14.6980957 L8.04329563,14.6980957 L8.04329563,11.1131816 C8.04329563,10.9152031 7.88025,10.7547051 7.67912897,10.7547051 L4.03731151,10.7547051 L4.03731151,7.88678125 L7.67912897,7.88678125 C7.88025,7.88678125 8.04329563,7.7262832 8.04329563,7.52830469 L8.04329563,3.94339063 L10.9567421,3.94339063 L10.9567421,7.52830469 C10.9567421,7.7262832 11.1197877,7.88678125 11.3209087,7.88678125 L14.9627262,7.88678125 L14.9627262,10.7547051 Z" id="Shape"></path>
                    </g>
                </g>
            </g>
        </g>
    </g>
</svg>