<?xml version="1.0" encoding="UTF-8"?>
<svg width="23px" height="30px" viewBox="0 0 23 30" version="1.1" xmlns="http://www.w3.org/2000/svg" xmlns:xlink="http://www.w3.org/1999/xlink">
    <!-- Generator: sketchtool 41 (35326) - http://www.bohemiancoding.com/sketch -->
    <title>D6361F75-7407-4F69-ACCE-B87B4298395B</title>
    <desc>Created with sketchtool.</desc>
    <defs>
        <polygon id="path-1" points="22.4689038 24.7367936 22.4689038 0.0278796076 1.73076915e-05 0.0278796076 1.73076915e-05 24.7367936 22.4689038 24.7367936"></polygon>
    </defs>
    <g id="Page-1" stroke="none" stroke-width="1" fill="none" fill-rule="evenodd">
        <g id="Elements" transform="translate(-135.000000, -177.000000)">
            <g id="Menu-main-Copy-2" transform="translate(0.000000, 162.000000)">
                <g id="pin-city-menu-icon" transform="translate(135.000000, 15.000000)">
                    <path d="M11.2344981,4.90593911 C13.5286904,4.90593911 15.3951519,6.75417349 15.3951519,9.02596157 C15.3951519,11.2977497 13.5286904,13.145984 11.2344981,13.145984 C8.94030577,13.145984 7.07384423,11.2977497 7.07384423,9.02596157 C7.07384423,6.75417349 8.94030577,4.90593911 11.2344981,4.90593911 M11.2344981,14.7461076 C14.4196904,14.7461076 17.0110558,12.1800485 17.0110558,9.02596157 C17.0110558,5.87187466 14.4196904,3.30581558 11.2344981,3.30581558 C8.04930577,3.30581558 5.45794038,5.87187466 5.45794038,9.02596157 C5.45794038,12.1800485 8.04930577,14.7461076 11.2344981,14.7461076" id="Fill-1" fill="#998100"></path>
                    <path d="M6.81811731,3.03097983 C8.10505962,2.09492271 9.632175,1.60012925 11.2345212,1.60012925 C15.3528865,1.60012925 18.703425,4.91800474 18.703425,8.99615171 C18.703425,11.2246361 17.6991173,13.830514 15.7183673,16.7414032 C15.4689058,17.107828 15.5668673,17.605078 15.9369058,17.8519891 C16.0753673,17.9444237 16.2323481,17.9886415 16.3876558,17.9886415 C16.6473288,17.9886415 16.9023865,17.8649002 17.0584442,17.6354706 C19.2221942,14.4557328 20.3193288,11.5489569 20.3193288,8.99615171 C20.3193288,4.03564878 16.2438865,5.7128907e-06 11.2345212,5.7128907e-06 C9.28561731,5.7128907e-06 7.42769423,0.602144385 5.86157885,1.7413519 C5.50186731,2.00288804 5.42444423,2.50368003 5.688675,2.8597645 C5.95279038,3.21584897 6.45840577,3.29251597 6.81811731,3.03097983" id="Fill-3" fill="#998100"></path>
                    <g id="Group-7" transform="translate(0.000000, 4.513184)">
                        <mask id="mask-2" fill="white">
                            <use xlink:href="#path-1"></use>
                        </mask>
                        <g id="Clip-6"></g>
                        <path d="M16.5044019,19.8405606 C15.1096904,20.38717 13.2381519,20.6881251 11.2344981,20.6881251 C9.23084423,20.6881251 7.35930577,20.38717 5.96459423,19.8405606 C4.63945962,19.3212589 4.16920962,18.7414005 4.16920962,18.4027403 C4.16920962,17.8531031 5.34878654,16.9039063 7.95694038,16.410484 C9.34461346,18.0108932 10.4831712,19.0685206 10.6710173,19.2404215 C10.6790365,19.247734 10.6850942,19.2533326 10.6876904,19.255732 C10.7456135,19.308462 10.8094212,19.3513087 10.8768058,19.3842721 C10.8845942,19.3880426 10.8926712,19.3910133 10.900575,19.3944981 C10.9154596,19.4011822 10.9301135,19.4080948 10.9453442,19.4138648 C10.956825,19.4182638 10.9685942,19.421463 10.9802481,19.4253478 C10.9920173,19.4291754 11.0037288,19.4336314 11.0157288,19.4369449 C11.0311327,19.4412296 11.046825,19.4443146 11.0624019,19.447628 C11.070825,19.4495133 11.0791327,19.4519127 11.0875558,19.453398 C11.1052096,19.4565973 11.1231519,19.458711 11.1410365,19.4607105 C11.1474981,19.4613961 11.1539596,19.4627672 11.1604212,19.4633385 C11.1778442,19.4649381 11.195325,19.4652237 11.2128635,19.4657379 C11.2199019,19.4659093 11.226825,19.4667091 11.2338635,19.4667091 L11.2345558,19.4667091 C11.2537096,19.4667091 11.2728058,19.4655094 11.2918442,19.4641383 C11.2969788,19.4637384 11.3021135,19.4639098 11.3071904,19.4633956 C11.3278442,19.4615675 11.348325,19.4585396 11.3688058,19.455169 C11.3724981,19.4545406 11.3763058,19.4543692 11.3801135,19.4536266 C11.4016904,19.4497418 11.4230942,19.4446573 11.4443827,19.4390016 C11.4469212,19.4383731 11.4495173,19.4379732 11.4519981,19.4373448 C11.473575,19.4314034 11.4949212,19.4242052 11.5160942,19.4164356 C11.5181712,19.4156358 11.5203635,19.4151788 11.5224404,19.414379 C11.6152096,19.3794161 11.7028442,19.3269146 11.7802096,19.2568175 C11.7818827,19.2552179 11.7849404,19.2525328 11.7890942,19.2487623 C11.7894981,19.2483624 11.7901327,19.2477911 11.7905942,19.2473912 C11.7944019,19.2439635 11.7987865,19.2399645 11.8042673,19.23488 C11.8066327,19.2328233 11.8095173,19.2300812 11.8121135,19.2276817 C11.8166135,19.2235685 11.8210558,19.2194552 11.8264788,19.2144278 C11.8310942,19.2102003 11.8365173,19.2051729 11.8417673,19.2002599 C11.8456904,19.1966036 11.849325,19.1932901 11.8536519,19.1892911 C11.8599404,19.183464 11.8668635,19.1770084 11.8740173,19.1704386 C11.8789788,19.1656969 11.883825,19.1612408 11.8892481,19.1561563 C11.8966327,19.1493009 11.9047096,19.1417599 11.9127865,19.1341617 C11.9182673,19.128963 11.9236904,19.1239928 11.9295173,19.1185084 C11.9382288,19.110339 11.9473442,19.1017125 11.9568058,19.0928004 C11.9636135,19.086402 11.9703058,19.0801178 11.9774019,19.0733766 C11.987325,19.0640074 11.9977096,19.0541812 12.0083827,19.0440694 C12.0151327,19.0376139 12.0219404,19.0312154 12.0290365,19.0244171 C12.0401712,19.0138482 12.0515942,19.0029366 12.0633635,18.9917394 C12.0717865,18.9837413 12.0802673,18.9756861 12.0889212,18.9673453 C12.1010365,18.9557481 12.1134981,18.9438653 12.1262481,18.9315826 C12.1347288,18.9234132 12.1434404,18.9150152 12.1522673,18.9065602 C12.1653635,18.8939918 12.1785173,18.8812521 12.1922481,18.8679981 C12.2024019,18.858172 12.2129596,18.848003 12.2235173,18.837777 C12.2372481,18.8244659 12.2509788,18.8110978 12.2652865,18.7972154 C12.2757865,18.7869322 12.2866327,18.7763634 12.2974212,18.7658517 C12.3124212,18.7512838 12.3272481,18.7367159 12.3427096,18.7215768 C12.3544212,18.710151 12.3665365,18.6981539 12.3785365,18.6863854 C12.3939404,18.6712462 12.4091712,18.6562784 12.4250942,18.6406251 C12.4383635,18.6275997 12.4520942,18.6138888 12.4656519,18.6004635 C12.4809981,18.5852672 12.4961135,18.5703565 12.5118058,18.5547032 C12.5269788,18.5395641 12.5427288,18.5239107 12.5583635,18.5083146 C12.5735365,18.4930611 12.5884788,18.4782076 12.6041712,18.4626114 C12.621825,18.4449015 12.6401135,18.4264488 12.6582288,18.4082247 C12.6722481,18.3940567 12.6860942,18.3802887 12.7004019,18.3657779 C12.7269404,18.3389845 12.7542865,18.3113341 12.7817481,18.283398 C12.799575,18.2652311 12.8177481,18.2466642 12.8360365,18.2280973 C12.8589981,18.2046744 12.8819019,18.1813658 12.9054404,18.1572003 C12.9184212,18.1438321 12.9319212,18.1300069 12.9451327,18.1164103 C12.9684404,18.0924161 12.9917481,18.0684791 13.015575,18.0438565 C13.0286712,18.030317 13.0421135,18.0163204 13.0553827,18.0025523 C13.0798442,17.9771871 13.1043635,17.9517647 13.1294019,17.9256568 C13.1429596,17.9114889 13.1568635,17.8969781 13.1705942,17.8825816 C13.1959212,17.8560738 13.2213635,17.829566 13.2470942,17.8023727 C13.2612865,17.7875763 13.2755365,17.77238 13.2898442,17.7573551 C13.315575,17.7302188 13.3413058,17.7030826 13.3674404,17.675318 C13.3825558,17.6593219 13.3977865,17.6430401 13.413075,17.6267584 C13.439325,17.5988224 13.4657481,17.5707149 13.4925173,17.5421505 C13.5070558,17.5264972 13.5217673,17.5108438 13.5363635,17.4950763 C13.5645173,17.4649122 13.5927865,17.4344625 13.6213442,17.4035558 C13.6357673,17.3880167 13.6501327,17.3724205 13.6646135,17.3567672 C13.6938635,17.3250606 13.7233442,17.2929542 13.7530558,17.2606764 C13.7669019,17.2455943 13.7806904,17.2305694 13.7945942,17.2153731 C13.8259212,17.1810387 13.8575365,17.1464186 13.8893827,17.1114557 C13.9021904,17.0973448 13.9149981,17.0831769 13.9278058,17.069066 C13.9609788,17.0325035 13.9943827,16.9954269 14.0280173,16.9580646 C14.040075,16.9446964 14.0520173,16.9314425 14.0641327,16.9179029 C14.0993827,16.8785982 14.1348058,16.8388365 14.1704596,16.7987892 C14.1811904,16.7866778 14.1918635,16.774795 14.2025942,16.7626266 C14.2408442,16.7195514 14.2792673,16.675962 14.3179788,16.6320299 C14.3264019,16.6225465 14.3347096,16.6130631 14.3431327,16.6034654 C14.3861135,16.554506 14.4293827,16.5049752 14.4729404,16.4549874 C14.4770942,16.4501886 14.4811904,16.4455611 14.4854019,16.4407623 C14.4942865,16.4305362 14.5031135,16.4204815 14.5120558,16.4101983 C17.1207288,16.9035064 18.3000173,17.8534459 18.3000173,18.4026832 C18.2997865,18.7414005 17.8295365,19.3211446 16.5044019,19.8405606 M21.6610558,17.6027071 L19.7570942,17.6027071 C19.2097096,16.259378 17.2660558,15.2220313 14.3272096,14.7536314 C14.2848058,14.7469474 14.2417673,14.7434625 14.1987865,14.7434625 C13.8224596,14.7434625 13.6158635,14.9835182 13.5446712,15.0662408 C12.6092481,16.1670577 11.7605365,17.0375309 11.2360558,17.5536334 C9.43045962,15.7678409 3.76547885,9.74439756 3.76547885,4.48311094 C3.76547885,3.32379404 4.02838269,2.21423643 4.54703654,1.1852877 C4.74624808,0.790012793 4.58413269,0.309444434 4.18490192,0.11217832 C3.78578654,-0.0849735352 3.30042115,0.0754444336 3.10120962,0.470776465 C2.46976731,1.72355625 2.149575,3.0735123 2.149575,4.48311094 C2.149575,8.23139561 4.55072885,12.1583224 6.80811346,15.0222516 C4.616325,15.5629195 3.17130577,16.4745255 2.71172885,17.6027643 L0.807940385,17.6027643 C0.361748077,17.6027643 1.73076915e-05,17.9609625 1.73076915e-05,18.4028546 C1.73076915e-05,18.8446896 0.361748077,19.2028878 0.807940385,19.2028878 L2.71605577,19.2028878 C3.06699808,20.0459962 3.97870962,20.7833019 5.36995962,21.3284259 C6.75469038,21.8711505 8.52647885,22.1999845 10.4265173,22.2727667 L10.4265173,23.9367604 C10.4265173,24.3786524 10.7882481,24.7367936 11.2344981,24.7367936 C11.6807481,24.7367936 12.0424788,24.3786524 12.0424788,23.9367604 L12.0424788,22.2727667 C13.9424596,22.1999845 15.7142481,21.8711505 17.0989788,21.3284259 C18.4902288,20.7833019 19.4018827,20.0459391 19.7528827,19.2028878 L21.6609404,19.2028878 C22.1071904,19.2028878 22.4689212,18.8446896 22.4689212,18.4028546 C22.4689212,17.9609625 22.1072481,17.6027071 21.6610558,17.6027071" id="Fill-5" fill="#998100" mask="url(#mask-2)"></path>
                    </g>
                </g>
            </g>
        </g>
    </g>
</svg>