<?xml version="1.0" encoding="UTF-8"?>
<svg width="20px" height="18px" viewBox="0 0 20 18" version="1.1" xmlns="http://www.w3.org/2000/svg" xmlns:xlink="http://www.w3.org/1999/xlink">
    <!-- Generator: sketchtool 41 (35326) - http://www.bohemiancoding.com/sketch -->
    <title>CF7C18FC-C3A0-4BCB-B0F5-F942A81A0141</title>
    <desc>Created with sketchtool.</desc>
    <defs></defs>
    <g id="Page-1" stroke="none" stroke-width="1" fill="none" fill-rule="evenodd">
        <g id="Elements" transform="translate(-473.000000, -3087.000000)" fill="#333333">
            <g id="soc-share-icons-copy" transform="translate(408.000000, 3084.000000)">
                <g id="77-essential-icons-printer" transform="translate(65.000000, 3.000000)">
                    <g id="Group">
                        <path d="M18.5142857,11.6932331 L18.5142857,5.84661654 L18.5142857,11.6932331 Z M18.5142857,11.6932331 L18.5142857,5.84661654 L18.5142857,11.6932331 Z M0,11.6932331 L0,5.84661654 L0,11.6932331 Z M19.4887218,11.6932331 L19.4887218,5.84661654 L19.4887218,11.6932331 Z M12.9112782,11.4496241 L6.57744361,11.4496241 C6.30947368,11.4496241 6.09022556,11.6688722 6.09022556,11.9368421 C6.09022556,12.204812 6.30947368,12.4240602 6.57744361,12.4240602 L12.9112782,12.4240602 C13.1792481,12.4240602 13.3984962,12.204812 13.3984962,11.9368421 C13.3984962,11.6688722 13.1792481,11.4496241 12.9112782,11.4496241 Z M12.9112782,13.8857143 L6.57744361,13.8857143 C6.30947368,13.8857143 6.09022556,14.1049624 6.09022556,14.3729323 C6.09022556,14.6409023 6.30947368,14.8601504 6.57744361,14.8601504 L12.9112782,14.8601504 C13.1792481,14.8601504 13.3984962,14.6409023 13.3984962,14.3729323 C13.3984962,14.1049624 13.1792481,13.8857143 12.9112782,13.8857143 Z M12.9112782,11.4496241 L6.57744361,11.4496241 C6.30947368,11.4496241 6.09022556,11.6688722 6.09022556,11.9368421 C6.09022556,12.204812 6.30947368,12.4240602 6.57744361,12.4240602 L12.9112782,12.4240602 C13.1792481,12.4240602 13.3984962,12.204812 13.3984962,11.9368421 C13.3984962,11.6688722 13.1792481,11.4496241 12.9112782,11.4496241 Z M12.9112782,13.8857143 L6.57744361,13.8857143 C6.30947368,13.8857143 6.09022556,14.1049624 6.09022556,14.3729323 C6.09022556,14.6409023 6.30947368,14.8601504 6.57744361,14.8601504 L12.9112782,14.8601504 C13.1792481,14.8601504 13.3984962,14.6409023 13.3984962,14.3729323 C13.3984962,14.1049624 13.1792481,13.8857143 12.9112782,13.8857143 Z M12.9112782,13.8857143 L6.57744361,13.8857143 C6.30947368,13.8857143 6.09022556,14.1049624 6.09022556,14.3729323 C6.09022556,14.6409023 6.30947368,14.8601504 6.57744361,14.8601504 L12.9112782,14.8601504 C13.1792481,14.8601504 13.3984962,14.6409023 13.3984962,14.3729323 C13.3984962,14.1049624 13.1792481,13.8857143 12.9112782,13.8857143 Z M12.9112782,11.4496241 L6.57744361,11.4496241 C6.30947368,11.4496241 6.09022556,11.6688722 6.09022556,11.9368421 C6.09022556,12.204812 6.30947368,12.4240602 6.57744361,12.4240602 L12.9112782,12.4240602 C13.1792481,12.4240602 13.3984962,12.204812 13.3984962,11.9368421 C13.3984962,11.6688722 13.1792481,11.4496241 12.9112782,11.4496241 Z M6.57744361,12.4240602 L12.9112782,12.4240602 C13.1792481,12.4240602 13.3984962,12.204812 13.3984962,11.9368421 C13.3984962,11.6688722 13.1792481,11.4496241 12.9112782,11.4496241 L6.57744361,11.4496241 C6.30947368,11.4496241 6.09022556,11.6688722 6.09022556,11.9368421 C6.09022556,12.204812 6.30947368,12.4240602 6.57744361,12.4240602 Z M12.9112782,13.8857143 L6.57744361,13.8857143 C6.30947368,13.8857143 6.09022556,14.1049624 6.09022556,14.3729323 C6.09022556,14.6409023 6.30947368,14.8601504 6.57744361,14.8601504 L12.9112782,14.8601504 C13.1792481,14.8601504 13.3984962,14.6409023 13.3984962,14.3729323 C13.3984962,14.1049624 13.1792481,13.8857143 12.9112782,13.8857143 Z M17.5398496,3.89774436 L15.8345865,3.89774436 L15.8345865,0.487218045 C15.8345865,0.21924812 15.6153383,0 15.3473684,0 L4.14135338,0 C3.87338346,0 3.65413534,0.21924812 3.65413534,0.487218045 L3.65413534,3.89774436 L1.94887218,3.89774436 C0.876992481,3.89774436 0,4.77473684 0,5.84661654 L0,11.6932331 C0,12.7651128 0.876992481,13.6421053 1.94887218,13.6421053 L3.65413534,13.6421053 L3.65413534,16.5654135 C3.65413534,16.8333835 3.87338346,17.0526316 4.14135338,17.0526316 L15.3473684,17.0526316 C15.6153383,17.0526316 15.8345865,16.8333835 15.8345865,16.5654135 L15.8345865,13.6421053 L17.5398496,13.6421053 C18.6117293,13.6421053 19.4887218,12.7651128 19.4887218,11.6932331 L19.4887218,5.84661654 C19.4887218,4.77473684 18.6117293,3.89774436 17.5398496,3.89774436 Z M4.62857143,0.97443609 L14.8601504,0.97443609 L14.8601504,3.89774436 L4.62857143,3.89774436 L4.62857143,0.97443609 Z M14.8601504,16.0781955 L4.62857143,16.0781955 L4.62857143,10.2315789 L14.8601504,10.2315789 L14.8601504,16.0781955 Z M18.5142857,11.6932331 C18.5142857,12.2291729 18.0757895,12.6676692 17.5398496,12.6676692 L15.8345865,12.6676692 L15.8345865,9.7443609 C15.8345865,9.47639098 15.6153383,9.25714286 15.3473684,9.25714286 L4.14135338,9.25714286 C3.87338346,9.25714286 3.65413534,9.47639098 3.65413534,9.7443609 L3.65413534,12.6676692 L1.94887218,12.6676692 C1.41293233,12.6676692 0.97443609,12.2291729 0.97443609,11.6932331 L0.97443609,5.84661654 C0.97443609,5.31067669 1.41293233,4.87218045 1.94887218,4.87218045 L17.5398496,4.87218045 C18.0757895,4.87218045 18.5142857,5.31067669 18.5142857,5.84661654 L18.5142857,11.6932331 Z M6.57744361,12.4240602 L12.9112782,12.4240602 C13.1792481,12.4240602 13.3984962,12.204812 13.3984962,11.9368421 C13.3984962,11.6688722 13.1792481,11.4496241 12.9112782,11.4496241 L6.57744361,11.4496241 C6.30947368,11.4496241 6.09022556,11.6688722 6.09022556,11.9368421 C6.09022556,12.204812 6.30947368,12.4240602 6.57744361,12.4240602 Z M6.57744361,14.8601504 L12.9112782,14.8601504 C13.1792481,14.8601504 13.3984962,14.6409023 13.3984962,14.3729323 C13.3984962,14.1049624 13.1792481,13.8857143 12.9112782,13.8857143 L6.57744361,13.8857143 C6.30947368,13.8857143 6.09022556,14.1049624 6.09022556,14.3729323 C6.09022556,14.6409023 6.30947368,14.8601504 6.57744361,14.8601504 Z M12.9112782,13.8857143 L6.57744361,13.8857143 C6.30947368,13.8857143 6.09022556,14.1049624 6.09022556,14.3729323 C6.09022556,14.6409023 6.30947368,14.8601504 6.57744361,14.8601504 L12.9112782,14.8601504 C13.1792481,14.8601504 13.3984962,14.6409023 13.3984962,14.3729323 C13.3984962,14.1049624 13.1792481,13.8857143 12.9112782,13.8857143 Z M12.9112782,11.4496241 L6.57744361,11.4496241 C6.30947368,11.4496241 6.09022556,11.6688722 6.09022556,11.9368421 C6.09022556,12.204812 6.30947368,12.4240602 6.57744361,12.4240602 L12.9112782,12.4240602 C13.1792481,12.4240602 13.3984962,12.204812 13.3984962,11.9368421 C13.3984962,11.6688722 13.1792481,11.4496241 12.9112782,11.4496241 Z M12.9112782,11.4496241 L6.57744361,11.4496241 C6.30947368,11.4496241 6.09022556,11.6688722 6.09022556,11.9368421 C6.09022556,12.204812 6.30947368,12.4240602 6.57744361,12.4240602 L12.9112782,12.4240602 C13.1792481,12.4240602 13.3984962,12.204812 13.3984962,11.9368421 C13.3984962,11.6688722 13.1792481,11.4496241 12.9112782,11.4496241 Z M12.9112782,13.8857143 L6.57744361,13.8857143 C6.30947368,13.8857143 6.09022556,14.1049624 6.09022556,14.3729323 C6.09022556,14.6409023 6.30947368,14.8601504 6.57744361,14.8601504 L12.9112782,14.8601504 C13.1792481,14.8601504 13.3984962,14.6409023 13.3984962,14.3729323 C13.3984962,14.1049624 13.1792481,13.8857143 12.9112782,13.8857143 Z" id="Printer"></path>
                    </g>
                </g>
            </g>
        </g>
    </g>
</svg>