<?xml version="1.0" encoding="UTF-8"?>
<svg width="45px" height="26px" viewBox="0 0 45 26" version="1.1" xmlns="http://www.w3.org/2000/svg" xmlns:xlink="http://www.w3.org/1999/xlink">
    <!-- Generator: sketchtool 41 (35326) - http://www.bohemiancoding.com/sketch -->
    <title>E5AD2598-140D-4495-BD80-0EB636B265F3</title>
    <desc>Created with sketchtool.</desc>
    <defs>
        <polygon id="path-1" points="0 0.587372039 0 18.1086 12.2985078 18.1086 12.2985078 0.587372039 6.09863722e-20 0.587372039"></polygon>
        <polygon id="path-3" points="12.8115 18.48525 12.8115 0.964022039 0.513642756 0.964022039 0.513642756 18.48525 12.8115 18.48525"></polygon>
    </defs>
    <g id="Page-1" stroke="none" stroke-width="1" fill="none" fill-rule="evenodd">
        <g id="index" transform="translate(-699.000000, -3093.000000)">
            <g id="6-DA-block" transform="translate(136.000000, 2918.000000)">
                <g id="6-da" transform="translate(0.000000, 115.000000)">
                    <g id="Page-1" transform="translate(563.000000, 59.000000)">
                        <path d="M30.20295,20.22105 C30.03345,20.22105 29.86095,20.16405 29.72145,20.04555 L25.70595,16.67355 C25.38795,16.40655 25.34745,15.93405 25.61295,15.61755 C25.87995,15.30105 26.35395,15.25605 26.67045,15.52455 L30.68445,18.89655 C31.00245,19.16355 31.04445,19.63605 30.77745,19.95255 C30.62895,20.12955 30.41745,20.22105 30.20295,20.22105" id="Fill-1" fill="#2A166D"></path>
                        <path d="M26.51295,22.2645 C26.34645,22.2645 26.17695,22.209 26.03895,22.095 L22.76595,19.416 C22.44495,19.1535 22.39845,18.6795 22.66095,18.36 C22.92045,18.0405 23.39445,17.991 23.71545,18.255 L26.98695,20.934 C27.30795,21.1965 27.35595,21.6705 27.09345,21.9885 C26.94495,22.1715 26.73045,22.2645 26.51295,22.2645" id="Fill-3" fill="#2A166D"></path>
                        <path d="M20.67405,26.4129 C20.13405,26.4129 19.44705,26.2344 18.70305,25.6059 C17.75055,24.8709 9.13905,18.1419 7.93305,14.6829 C7.79655,14.2914 8.00505,13.8639 8.39505,13.7274 C8.78205,13.5924 9.21255,13.7979 9.35055,14.1909 C10.24605,16.7619 17.08605,22.4604 19.64505,24.4404 C20.13855,24.8559 20.60355,24.9954 20.97855,24.8619 C21.28905,24.7509 21.52905,24.4509 21.59205,24.1014 C21.63405,23.8749 21.63255,23.4324 21.14955,23.0244 L19.68555,21.6054 C19.39005,21.3189 19.38255,20.8419 19.67055,20.5449 C19.95705,20.2509 20.43255,20.2404 20.73105,20.5299 L22.15755,21.9144 C22.89105,22.5324 23.23755,23.4399 23.06955,24.3684 C22.90905,25.2504 22.30305,25.9794 21.48555,26.2719 C21.28605,26.3439 21.00855,26.4129 20.67405,26.4129" id="Fill-5" fill="#2A166D"></path>
                        <path d="M25.51545,25.78155 C24.98295,25.78155 24.31245,25.60905 23.60295,25.00755 L19.71645,21.63405 C19.40445,21.36255 19.36995,20.88855 19.64145,20.57505 C19.91445,20.26305 20.38695,20.23005 20.70045,20.50005 L24.57945,23.86905 C24.88095,24.12555 25.35645,24.40005 25.84245,24.22455 C26.20695,24.09405 26.50245,23.72805 26.57745,23.31555 C26.62695,23.03355 26.59845,22.62105 26.16795,22.25505 C25.85145,21.98805 25.81095,21.51405 26.07945,21.19755 C26.34795,20.88405 26.81895,20.84505 27.13695,21.11055 L27.14145,21.11505 L28.11495,21.93705 C28.97595,22.66605 29.72295,21.84105 29.80395,21.74505 C29.88645,21.64755 30.58245,20.77455 29.71845,20.04405 C29.40345,19.77555 29.36295,19.30455 29.62845,18.98805 C29.89545,18.67305 30.36645,18.63105 30.68445,18.89505 L30.83745,19.02255 C31.18395,19.31805 31.54995,19.39305 31.92795,19.25955 C32.38545,19.09605 32.76645,18.64605 32.85345,18.16755 C32.92395,17.77005 32.78745,17.42205 32.44245,17.13105 L23.17995,9.57855 C22.64295,9.76155 21.80745,10.00305 21.12645,10.01655 C20.52345,10.85205 19.00995,12.71805 17.36745,13.01955 C16.69845,13.13805 16.06545,12.99855 15.52845,12.60855 C14.55645,11.89755 14.21895,10.47255 14.62245,8.79255 C15.25845,6.16005 17.64345,3.22905 21.53595,2.61555 C21.73395,2.55255 24.39045,1.93755 30.54495,5.05005 L32.57745,4.43505 C32.97195,4.31655 33.39195,4.53705 33.51195,4.93605 C33.63195,5.33055 33.40845,5.75055 33.01095,5.87055 L30.68895,6.57255 C30.50595,6.63105 30.30345,6.61305 30.12795,6.52155 C24.31845,3.52605 21.86445,4.07505 21.84495,4.08105 C18.55995,4.60305 16.60095,6.99705 16.08195,9.14505 C15.83145,10.18305 15.96045,11.06505 16.41345,11.39505 C16.61895,11.54805 16.82595,11.59155 17.09595,11.54505 C18.13245,11.35455 19.50645,9.77505 20.12745,8.82405 C20.30895,8.55105 20.64345,8.41755 20.96295,8.51355 C21.22095,8.57955 22.22295,8.34855 23.05695,8.02905 C23.30295,7.93155 23.59095,7.97805 23.79945,8.14755 L33.40245,15.97755 C34.16145,16.62105 34.49445,17.51205 34.32795,18.43455 C34.14495,19.44555 33.40245,20.32455 32.43495,20.67255 C32.17545,20.76405 31.91145,20.81355 31.64895,20.82255 C31.66245,21.51105 31.39245,22.18755 30.94845,22.71255 C30.26295,23.52405 29.14245,23.98755 28.04745,23.60655 C27.87195,24.53355 27.20745,25.32705 26.34945,25.63605 C26.14395,25.70955 25.85895,25.78155 25.51545,25.78155" id="Fill-7" fill="#2A166D"></path>
                        <g id="Group-11" transform="translate(0.000000, 0.912900)">
                            <mask id="mask-2" fill="white">
                                <use xlink:href="#path-1"></use>
                            </mask>
                            <g id="Clip-10"></g>
                            <path d="M1.67655,14.9136 L7.03905,16.4331 L10.62255,3.7821 L5.25855,2.2626 L1.67655,14.9136 Z M7.55655,18.1086 C7.48755,18.1086 7.41855,18.0996 7.35105,18.0801 L0.54555,16.1526 C0.14655,16.0401 -0.08445,15.6261 0.02805,15.2271 L4.01955,1.1331 C4.07355,0.9426 4.20255,0.7791 4.37505,0.6831 C4.54755,0.5856 4.75305,0.5616 4.94655,0.6156 L11.75355,2.5431 C11.94405,2.5971 12.10605,2.7261 12.20355,2.8986 C12.29955,3.0726 12.32505,3.2781 12.26955,3.4701 L8.27805,17.5641 C8.22405,17.7546 8.09505,17.9166 7.92255,18.0126 C7.81005,18.0756 7.68405,18.1086 7.55655,18.1086 L7.55655,18.1086 Z" id="Fill-9" fill="#2A166D" mask="url(#mask-2)"></path>
                        </g>
                        <g id="Group-14" transform="translate(31.500000, 0.912900)">
                            <mask id="mask-4" fill="white">
                                <use xlink:href="#path-3"></use>
                            </mask>
                            <g id="Clip-13"></g>
                            <path d="M2.1906,4.15875 L5.7726,16.80975 L11.1351,15.29025 L7.5531,2.63925 L2.1906,4.15875 Z M5.2551,18.48525 C5.1276,18.48525 5.0016,18.45225 4.8891,18.38925 C4.7166,18.29325 4.5876,18.12975 4.5336,17.93925 L0.5421,3.84525 C0.4296,3.44625 0.6606,3.03225 1.0596,2.91975 L7.8651,0.99225 C8.0571,0.93825 8.2626,0.96225 8.4366,1.05975 C8.6091,1.15575 8.7381,1.31775 8.7921,1.50975 L12.7836,15.60375 C12.8961,16.00275 12.6636,16.41675 12.2661,16.52925 L5.4606,18.45675 C5.3931,18.47625 5.3241,18.48525 5.2551,18.48525 L5.2551,18.48525 Z" id="Fill-12" fill="#2A166D" mask="url(#mask-4)"></path>
                        </g>
                        <path d="M11.2785,5.8773 C11.1555,5.8773 11.031,5.8473 10.917,5.7843 C10.554,5.5848 10.422,5.1288 10.6215,4.7658 C10.8105,4.4238 11.16,3.7878 18.81,3.6213 C19.269,3.6093 19.5675,3.9408 19.5765,4.3548 C19.5855,4.7703 19.257,5.1123 18.843,5.1213 C13.218,5.2428 11.9565,5.6313 11.739,5.7213 C11.607,5.8218 11.4435,5.8773 11.2785,5.8773" id="Fill-15" fill="#2A166D"></path>
                        <path d="M34.4289,18.40605 C33.8409,18.40605 33.3984,18.29655 33.3594,18.28605 C32.9589,18.18255 32.7159,17.77155 32.8209,17.37255 C32.9244,16.97205 33.3264,16.72905 33.7314,16.83255 C33.7479,16.83705 35.1024,17.15355 35.7099,16.45605 C35.9829,16.14255 36.4599,16.11405 36.7689,16.38555 C37.0809,16.65855 37.1109,17.13255 36.8379,17.44305 C36.1509,18.22905 35.1744,18.40605 34.4289,18.40605" id="Fill-17" fill="#2A166D"></path>
                    </g>
                </g>
            </g>
        </g>
    </g>
</svg>