<?xml version="1.0" encoding="UTF-8"?>
<svg width="36px" height="35px" viewBox="0 0 36 35" version="1.1" xmlns="http://www.w3.org/2000/svg" xmlns:xlink="http://www.w3.org/1999/xlink">
    <!-- Generator: sketchtool 41 (35326) - http://www.bohemiancoding.com/sketch -->
    <title>1789844F-2C6B-4E5A-A0D6-A24E0713564E</title>
    <desc>Created with sketchtool.</desc>
    <defs></defs>
    <g id="Page-1" stroke="none" stroke-width="1" fill="none" fill-rule="evenodd">
        <g id="index" transform="translate(-309.000000, -3345.000000)" fill="#2A166D">
            <g id="6-DA-block" transform="translate(136.000000, 2918.000000)">
                <g id="6-da" transform="translate(0.000000, 115.000000)">
                    <g id="Page-1" transform="translate(173.000000, 312.000000)">
                        <path d="M20.3238,22.0565172 C20.5734,22.0565172 20.7978,22.2122069 20.8854,22.4475517 C21.4782,24.0334138 23.0046,25.0966897 24.687,25.0966897 L24.6942,25.0966897 C26.9454,25.0918621 28.7814,23.2441034 28.785,20.9799655 C28.7874,19.8841034 28.365,18.8546207 27.597,18.081 C26.829,17.3085862 25.809,16.8849655 24.7218,16.8849655 L24.7134,16.8849655 C23.1342,16.8885862 21.6798,17.823931 21.009,19.271 C20.9106,19.4822069 20.6994,19.6185862 20.4666,19.6185862 L7.4226,19.643931 L7.0638,20.5334138 L8.4102,21.7922069 L10.095,20.8085862 C10.293,20.6927241 10.5402,20.7011724 10.7298,20.8291034 L12.603,22.0963448 L14.9814,20.2908276 C15.2238,20.1061724 15.567,20.1327241 15.777,20.3572069 L17.3934,22.0625517 L20.3226,22.0565172 L20.3238,22.0565172 Z M24.687,26.3035862 C22.6494,26.3035862 20.7882,25.0991034 19.9266,23.2646207 L17.1378,23.2694483 L17.1366,23.2694483 C16.9722,23.2694483 16.815,23.2018621 16.7022,23.0823793 L15.2766,21.5785862 L12.9846,23.318931 C12.7806,23.4722069 12.501,23.4818621 12.2886,23.3382414 L10.3722,22.0420345 L8.6286,23.0606552 C8.4018,23.1922069 8.1138,23.1608276 7.9194,22.981 L5.943,21.1332414 C5.7606,20.963069 5.7018,20.6963448 5.7954,20.4646207 L6.4626,18.8135862 C6.555,18.5866897 6.7734,18.4382414 7.0182,18.4382414 L20.0994,18.4128966 C21.0282,16.7437586 22.7994,15.6816897 24.711,15.678069 C26.1198,15.6177241 27.4482,16.226 28.4454,17.2277241 C29.4414,18.2294483 29.9886,19.5642759 29.985,20.9823793 C29.9802,23.9091034 27.6078,26.2963448 24.6966,26.3035862 L24.687,26.3035862 Z" id="Fill-1"></path>
                        <path d="M25.59732,20.4830862 L25.59612,20.4830862 C25.31772,20.4830862 25.09092,20.7111897 25.08972,20.9923966 C25.08972,21.1263621 25.14252,21.2530862 25.23612,21.348431 C25.33092,21.442569 25.45572,21.4944655 25.58892,21.4944655 L25.59012,21.4944655 C25.86852,21.4944655 26.09532,21.2651552 26.09652,20.9851552 C26.09652,20.8511897 26.04492,20.7244655 25.95012,20.6303276 C25.85652,20.5349828 25.73052,20.4830862 25.59732,20.4830862 L25.59732,20.4830862 Z M25.58892,22.7013621 C25.13532,22.7013621 24.70932,22.5239483 24.38772,22.2017069 C24.06612,21.8782586 23.88972,21.4486034 23.88972,20.9911897 C23.89212,20.0473966 24.65652,19.2786034 25.59372,19.2761897 L25.59732,19.2761897 C26.05092,19.2761897 26.47812,19.4536034 26.79852,19.7758448 C27.12012,20.1005 27.29652,20.5301552 27.29652,20.987569 C27.29412,21.9301552 26.52972,22.6989483 25.59252,22.7013621 L25.58892,22.7013621 Z" id="Fill-3"></path>
                        <path d="M3.6,9.65517241 C2.2764,9.65517241 1.2,10.7377586 1.2,12.0689655 L1.2,31.3793103 C1.2,32.7105172 2.2764,33.7931034 3.6,33.7931034 L32.4,33.7931034 C33.7236,33.7931034 34.8,32.7105172 34.8,31.3793103 L34.8,12.0689655 C34.8,10.7377586 33.7236,9.65517241 32.4,9.65517241 L3.6,9.65517241 Z M32.4,35 L3.6,35 C1.6152,35 0,33.3755172 0,31.3793103 L0,12.0689655 C0,10.0727586 1.6152,8.44827586 3.6,8.44827586 L32.4,8.44827586 C34.3848,8.44827586 36,10.0727586 36,12.0689655 L36,31.3793103 C36,33.3755172 34.3848,35 32.4,35 L32.4,35 Z" id="Fill-5"></path>
                        <path d="M24.6,6.03448276 C24.2688,6.03448276 24,5.76413793 24,5.43103448 C24,3.10172414 22.116,1.20689655 19.8,1.20689655 L16.2,1.20689655 C13.884,1.20689655 12,3.10172414 12,5.43103448 C12,5.76413793 11.7312,6.03448276 11.4,6.03448276 C11.0688,6.03448276 10.8,5.76413793 10.8,5.43103448 C10.8,2.43672414 13.2228,0 16.2,0 L19.8,0 C22.7772,0 25.2,2.43672414 25.2,5.43103448 C25.2,5.76413793 24.9312,6.03448276 24.6,6.03448276" id="Fill-7"></path>
                    </g>
                </g>
            </g>
        </g>
    </g>
</svg>