<?xml version="1.0" encoding="UTF-8"?>
<svg width="27px" height="39px" viewBox="0 0 27 39" version="1.1" xmlns="http://www.w3.org/2000/svg" xmlns:xlink="http://www.w3.org/1999/xlink">
    <!-- Generator: sketchtool 41 (35326) - http://www.bohemiancoding.com/sketch -->
    <title>B514F333-29C1-4406-A524-FC0BA6BA81D7</title>
    <desc>Created with sketchtool.</desc>
    <defs>
        <polygon id="path-1" points="13.4509485 0.707096774 0.807278084 0.707096774 0.807278084 17.5375484 13.4509485 17.5375484 13.4509485 0.707096774"></polygon>
    </defs>
    <g id="Page-1" stroke="none" stroke-width="1" fill="none" fill-rule="evenodd">
        <g id="index" transform="translate(-318.000000, -3086.000000)">
            <g id="6-DA-block" transform="translate(136.000000, 2918.000000)">
                <g id="6-da" transform="translate(0.000000, 115.000000)">
                    <g id="Page-1" transform="translate(182.000000, 52.000000)">
                        <g id="Group-3" transform="translate(6.355519, 0.583613)">
                            <mask id="mask-2" fill="white">
                                <use xlink:href="#path-1"></use>
                            </mask>
                            <g id="Clip-2"></g>
                            <path d="M12.8153966,17.5375484 C12.4645719,17.5375484 12.1798446,17.2485161 12.1798446,16.8923871 L12.1798446,1.99690323 L2.07838198,1.99690323 L2.07838198,16.8923871 C2.07838198,17.2485161 1.79365471,17.5375484 1.44283003,17.5375484 C1.09073425,17.5375484 0.807278084,17.2485161 0.807278084,16.8923871 L0.807278084,1.35174194 C0.807278084,0.995612903 1.09073425,0.706580645 1.44283003,0.706580645 L12.8153966,0.706580645 C13.1662213,0.706580645 13.4509485,0.995612903 13.4509485,1.35174194 L13.4509485,16.8923871 C13.4509485,17.2485161 13.1662213,17.5375484 12.8153966,17.5375484" id="Fill-1" fill="#2A166D" mask="url(#mask-2)"></path>
                        </g>
                        <g id="Group-6" transform="translate(0.000000, 13.339373)" fill="#2A166D">
                            <path d="M13.4843786,19.6092719 C13.6102179,19.6092719 13.7360571,19.6466912 13.8453721,19.7228203 L20.8720344,24.6363687 C20.9241497,24.6724977 20.977536,24.6699171 21.0309224,24.6324977 C21.1071886,24.5744332 21.086851,24.5073364 21.0804955,24.48153 L18.6005718,16.2647558 C18.5230344,16.0054009 18.6132828,15.7228203 18.8280994,15.5589493 L25.6424873,10.3705622 C25.6602828,10.3563687 25.7187536,10.3124977 25.6895182,10.2195945 C25.6590117,10.1241106 25.5865588,10.12153 25.5624078,10.12153 L17.0078786,9.94862673 C16.7422179,9.94346544 16.5096058,9.77056221 16.4218997,9.51765899 L13.6127601,1.40152995 C13.6051334,1.37830415 13.5822536,1.30991705 13.4843786,1.30991705 C13.3877747,1.30991705 13.3648948,1.37830415 13.3559971,1.40152995 L10.5481286,9.51765899 C10.4604224,9.77056221 10.2265393,9.94346544 9.96087857,9.94862673 L1.40507825,10.12153 C1.38219838,10.12153 1.30974545,10.1241106 1.27923896,10.2195945 C1.25000357,10.3124977 1.30720325,10.3563687 1.32754091,10.3718525 L8.13938669,15.5589493 C8.35293214,15.7228203 8.44318052,16.0041106 8.36564318,16.2647558 L5.88953279,24.48153 C5.88317727,24.5073364 5.86283961,24.5744332 5.94037695,24.6324977 C5.9912211,24.6699171 6.04460747,24.6712074 6.09545162,24.6363687 L13.1233851,19.7228203 C13.2327,19.6466912 13.3585393,19.6092719 13.4843786,19.6092719 M6.0229987,25.953788 C5.73191591,25.953788 5.44083312,25.8595945 5.18915455,25.6724977 C4.69977955,25.3086267 4.49767403,24.6918525 4.67435747,24.1034654 L7.01954416,16.3202396 L0.562336364,11.4041106 C0.0767746753,11.0312074 -0.116433117,10.4118525 0.0704191558,9.82346544 C0.257271429,9.23507834 0.770797403,8.84540092 1.37838506,8.83120737 L9.49438344,8.66733641 L12.1573461,0.973142857 C12.3581805,0.393788018 12.878062,0.01959447 13.4843786,0.01959447 C14.0906951,0.01959447 14.6118477,0.393788018 14.811411,0.973142857 L17.4743737,8.66733641 L25.5878299,8.83120737 L25.589101,8.83120737 C26.1979597,8.84540092 26.7114857,9.23507834 26.8996091,9.82475576 C27.0851903,10.4118525 26.8919825,11.0324977 26.4064208,11.4028203 L19.9479419,16.3202396 L22.2956708,24.1034654 C22.4723542,24.6918525 22.2715198,25.3073364 21.7821448,25.6712074 C21.2902276,26.037659 20.6508623,26.0479816 20.1525896,25.6995945 L13.4843786,21.037659 L6.81743864,25.6995945 C6.57465779,25.8699171 6.29882825,25.953788 6.0229987,25.953788" id="Fill-4"></path>
                        </g>
                    </g>
                </g>
            </g>
        </g>
    </g>
</svg>