<?xml version="1.0" encoding="UTF-8"?>
<svg width="22px" height="17px" viewBox="0 0 22 17" version="1.1" xmlns="http://www.w3.org/2000/svg" xmlns:xlink="http://www.w3.org/1999/xlink">
    <!-- Generator: sketchtool 41 (35326) - http://www.bohemiancoding.com/sketch -->
    <title>806301F9-BFCC-4918-9F3F-27587AFD84D6</title>
    <desc>Created with sketchtool.</desc>
    <defs></defs>
    <g id="Page-1" stroke="none" stroke-width="1" fill="none" fill-rule="evenodd">
        <g class="white-fill" id="Card" transform="translate(-1048.000000, -4660.000000)" fill="#998100">
            <g id="near-objects" transform="translate(-3.000000, 4362.000000)">
                <g id="salver" transform="translate(1051.000000, 298.000000)">
                    <path d="M13.9541707,2.71013782 C13.9541707,1.81327885 14.6727659,1.08358654 15.556039,1.08358654 L17.556,1.08358654 C17.8475268,1.08358654 18.0846439,0.842753205 18.0846439,0.546724359 C18.0846439,0.245791667 18.3249268,0.0018525641 18.6212293,0.0018525641 C18.9175317,0.0018525641 19.1578146,0.245791667 19.1578146,0.546724359 C19.1578146,1.44363782 18.4392195,2.17333013 17.556,2.17333013 L15.556039,2.17333013 C15.2645122,2.17333013 15.0273415,2.41410897 15.0273415,2.71013782 C15.0273415,3.00616667 15.2645122,3.247 15.556039,3.247 L20.3974341,3.247 C21.2807073,3.247 21.9993561,3.97669231 21.9993561,4.87355128 C21.9993561,5.77051923 21.2807073,6.50026603 20.3974341,6.50026603 L16.6651073,6.50026603 C16.3735268,6.50026603 16.1363561,6.74104487 16.1363561,7.03707372 L16.1363561,8.11886218 C16.1363561,8.41979487 15.8960732,8.66373397 15.5997707,8.66373397 C15.3034683,8.66373397 15.0631854,8.41979487 15.0631854,8.11886218 L15.0631854,7.03707372 C15.0631854,6.14021474 15.7818341,5.41052244 16.6651073,5.41052244 L20.3974341,5.41052244 C20.6890146,5.41052244 20.9261854,5.16963462 20.9261854,4.87355128 C20.9261854,4.57752244 20.6890146,4.33674359 20.3974341,4.33674359 L15.556039,4.33674359 C14.6727122,4.33674359 13.9541707,3.60705128 13.9541707,2.71013782 Z M21.896922,16.4523494 C21.896922,16.7532821 21.656639,16.9972212 21.3603366,16.9972212 L20.1304293,16.9972212 C20.1257073,16.9973301 20.1209854,16.9973846 20.1162098,16.9973846 C20.1114341,16.9973846 20.1067122,16.9973301 20.1019902,16.9972212 L1.85610244,16.9972212 C1.84665854,16.9974936 1.83710732,16.9974936 1.82771707,16.9972212 L0.536585366,16.9972212 C0.240282927,16.9972212 0,16.7532821 0,16.4523494 C0,16.1514167 0.240282927,15.9074776 0.536585366,15.9074776 L1.30529756,15.9074776 L1.30529756,14.2245865 C1.30529756,11.851016 2.22157073,9.61339103 3.88541463,7.92385256 C5.32099512,6.46604808 7.15858537,5.57338462 9.13719024,5.35598077 L9.13719024,4.52325321 C9.13719024,3.49197436 9.96342439,2.65292628 10.9790195,2.65292628 C11.9946683,2.65292628 12.8209561,3.49191987 12.8209561,4.52325321 L12.8209561,5.35663462 C13.1549268,5.3936859 13.4864293,5.4501891 13.8130488,5.52581731 C14.1019463,5.59272756 14.2827756,5.88477885 14.2168829,6.17819231 C14.1509366,6.47155128 13.8635415,6.65522756 13.5743756,6.58826282 C13.0166488,6.45912821 12.4424488,6.39363462 11.8677659,6.39363462 L10.0901659,6.39363462 C5.8378878,6.39363462 2.37836098,9.90658654 2.37836098,14.2245865 L2.37836098,15.9074776 L19.5795171,15.9074776 L19.5795171,14.2245865 C19.5795171,12.0903782 18.7402976,10.0918974 17.2165024,8.59742308 C17.0033171,8.38835577 16.9974683,8.04345192 17.2033561,7.82697436 C17.4092439,7.61049679 17.7488488,7.60450321 17.9620878,7.81357051 C19.6971902,9.5153141 20.6527415,11.7921154 20.6527415,14.2245865 L20.6527415,15.9074776 L21.3602829,15.9074776 C21.6566927,15.9074776 21.896922,16.1514167 21.896922,16.4523494 Z M10.210361,5.30389103 L11.7477854,5.30389103 L11.7477854,4.52325321 C11.7477854,4.09285897 11.4029756,3.74266987 10.9791268,3.74266987 C10.5552244,3.74266987 10.210361,4.09280449 10.210361,4.52325321 L10.210361,5.30389103 L10.210361,5.30389103 Z M3.39476098,14.1348462 C3.37420976,14.4350705 3.59721463,14.6953013 3.89287317,14.7161154 C3.90553659,14.7169872 3.91809268,14.7174231 3.93059512,14.7174231 C4.20999512,14.7174231 4.44571707,14.4975673 4.46530244,14.2102564 C4.68439024,11.0046122 7.24143415,8.49351603 10.2867707,8.49351603 C10.5830732,8.49351603 10.8233561,8.24957692 10.8233561,7.94864423 C10.8233561,7.64771154 10.5830732,7.40377244 10.2867707,7.40377244 C6.67995122,7.40377244 3.65259024,10.3604103 3.39476098,14.1348462 Z" id="Shape"></path>
                </g>
            </g>
        </g>
    </g>
</svg>