<?xml version="1.0" encoding="UTF-8"?>
<svg width="25px" height="18px" viewBox="0 0 25 18" version="1.1" xmlns="http://www.w3.org/2000/svg" xmlns:xlink="http://www.w3.org/1999/xlink">
    <!-- Generator: sketchtool 41 (35326) - http://www.bohemiancoding.com/sketch -->
    <title>989DAFB0-EF34-41E2-8E5F-6CEF4C316056</title>
    <desc>Created with sketchtool.</desc>
    <defs></defs>
    <g id="Page-1" stroke="none" stroke-width="1" fill="none" fill-rule="evenodd">
        <g id="Card" transform="translate(-849.000000, -4621.000000)" stroke="#998100">
            <g id="near-objects" transform="translate(-3.000000, 4362.000000)">
                <g id="thin-1038-study-university-school-degree-graduate" transform="translate(852.000000, 260.000000)">
                    <g id="Layer_1">
                        <g id="Group">
                            <path d="M2.5746,9.6039 L2.5746,12.7228" id="Shape"></path>
                            <path d="M3.7509,14.9225 C3.7509,15.2495 3.4858,15.5144 3.1588,15.5144 L1.9907,15.5144 C1.6639,15.5144 1.3985,15.2495 1.3985,14.9225 L1.678,13.3146 C1.678,12.9876 1.943,12.7228 2.27,12.7228 L2.8797,12.7228 C3.2065,12.7228 3.4716,12.9876 3.4716,13.3146 L3.7509,14.9225 Z" id="Shape"></path>
                            <polygon id="Shape" points="4.3655 0.4934 20.4135 0.4934 23.5073 7.5139 0.5366 7.5139"></polygon>
                            <path d="M7.3256,7.5139 L5.999,13.3225 C5.999,14.728 8.7114,15.5144 12.0569,15.5144 C15.4027,15.5144 18.1149,14.728 18.1149,13.3225 L16.7881,7.5139" id="Shape"></path>
                            <path d="M2.7146,3.5205 L11.7109,3.5205" id="Shape"></path>
                        </g>
                    </g>
                </g>
            </g>
        </g>
    </g>
</svg>