<?xml version="1.0" encoding="UTF-8"?>
<svg width="20px" height="20px" viewBox="0 0 20 20" version="1.1" xmlns="http://www.w3.org/2000/svg" xmlns:xlink="http://www.w3.org/1999/xlink">
    <!-- Generator: sketchtool 41 (35326) - http://www.bohemiancoding.com/sketch -->
    <title>F7AEFD4A-A76C-4889-964F-AD45A003D26E</title>
    <desc>Created with sketchtool.</desc>
    <defs></defs>
    <g id="Page-1" stroke="none" stroke-width="1" fill="none" fill-rule="evenodd">
        <g class="white-fill" id="Card" transform="translate(-1049.000000, -4824.000000)" fill="#998100">
            <g id="near-objects" transform="translate(-3.000000, 4362.000000)">
                <g id="table-tennis" transform="translate(1052.000000, 462.000000)">
                    <g id="Capa_1">
                        <path d="M6.48208817,4.34454756 C6.50770302,4.11531323 6.71438515,3.95030162 6.94352668,3.97587007 C7.17276102,4.00148492 7.33781903,4.20807425 7.31220418,4.43726218 C7.2937355,4.60273782 7.48459397,5.12450116 8.31730858,6.03011601 C9.06774942,6.84635731 10.1364269,7.75470998 11.3263573,8.58793503 C12.1285383,9.14960557 12.9581439,9.65684455 13.725522,10.05471 C13.9303016,10.1608817 14.0102088,10.412993 13.9040371,10.6177262 C13.8296984,10.7610673 13.6839443,10.8432019 13.5329466,10.8432019 C13.4681671,10.8432019 13.4025058,10.8281206 13.3410673,10.7962413 C12.5414849,10.3816241 11.6791647,9.85457077 10.8472854,9.27206497 C8.57795824,7.68315545 6.34816705,5.54329466 6.48208817,4.34454756 Z M2.45150812,4.25758701 C2.22867749,4.19721578 1.99958237,4.32918794 1.93939675,4.55183295 C1.67076566,5.54617169 1.74510441,6.60979118 2.14867749,7.54677494 C2.27034803,7.82923434 2.42185615,8.10074246 2.59902552,8.3537819 L3.78464037,10.0471462 C4.33303944,10.830348 5.10153132,11.4112761 6.00705336,11.7271926 C6.05257541,11.7430626 6.09897912,11.7506265 6.14459397,11.7506265 C6.31726218,11.7506265 6.47883991,11.6426914 6.53893271,11.4704408 C6.61489559,11.2526682 6.4999536,11.0145244 6.28218097,10.9385151 C5.54315545,10.6806961 4.91614849,10.2068213 4.46890951,9.56807425 L3.28324826,7.87466357 C3.13865429,7.66816705 3.0150348,7.44668213 2.91587007,7.21638051 C2.58649652,6.45174014 2.52612529,5.58283063 2.74575406,4.76965197 C2.80593968,4.54700696 2.67419954,4.31772622 2.45150812,4.25758701 Z M14.2321578,9.20802784 C14.3765661,9.20802784 14.5170302,9.13303944 14.5943387,8.99888631 C14.7095592,8.79907193 14.6409745,8.54366589 14.4411601,8.42849188 C13.9072854,8.12064965 13.3634803,7.77336427 12.8249188,7.3962877 C11.8199072,6.69257541 10.9168445,5.94468677 10.2134107,5.23336427 C10.0512297,5.06946636 9.78686775,5.06793503 9.62278422,5.23011601 C9.4587935,5.39229698 9.45730858,5.65670534 9.61953596,5.82074246 C10.3576798,6.56714617 11.3004176,7.34858469 12.3458469,8.08051044 C12.9043619,8.47160093 13.4689559,8.83211137 14.0239443,9.15215777 C14.089652,9.1899768 14.1613457,9.20802784 14.2321578,9.20802784 Z M8.32798144,4.88306265 C8.51689095,5.01535963 8.77730858,4.96937355 8.90965197,4.78051044 L10.1967053,2.94241299 C10.9472854,1.87039443 12.0759165,1.15392111 13.3746172,0.924918794 C14.6732715,0.695777262 15.9789791,0.983155452 17.0510441,1.7337819 C19.0119258,3.10677494 19.7006032,5.76635731 18.6529466,7.92018561 C18.552065,8.12761021 18.6384223,8.3774942 18.8458469,8.47842227 C18.9046868,8.50700696 18.9669142,8.52055684 19.0282135,8.52055684 C19.1830162,8.52055684 19.3317865,8.43410673 19.4040835,8.28552204 C19.9955916,7.06946636 20.1365661,5.67067285 19.8010673,4.34696056 C19.4618097,3.00844548 18.6553596,1.8374478 17.530116,1.04955916 C16.2753132,0.17099768 14.7480742,-0.165568445 13.2295592,0.102320186 C11.7111369,0.370069606 10.3910441,1.20853828 9.5124826,2.46329466 L8.22542923,4.30139211 C8.09308585,4.49034803 8.13902552,4.75076566 8.32798144,4.88306265 Z M16.2258933,17.6675174 C16.3296056,17.8155452 16.3694664,17.9955452 16.3380046,18.1742459 C16.3064965,18.3529466 16.2075174,18.5084919 16.0593039,18.6122506 L14.2996752,19.8443619 C14.1815313,19.927007 14.0458933,19.9666821 13.9116009,19.9667285 C13.6975406,19.9667285 13.4868213,19.8659861 13.3550348,19.6779118 L12.2522506,18.1029698 C12.2515545,18.1019954 12.2508585,18.1010209 12.2501624,18.1000464 C12.2494664,18.0990719 12.2488167,18.0980974 12.2481206,18.097123 L11.0097448,16.3284919 C11.007935,16.3260325 11.0061717,16.3236195 11.0044548,16.3211137 C11.0027378,16.3186079 11.0010209,16.3161485 10.9993503,16.3136427 L10.5087703,15.612993 C10.3764733,15.4240835 10.422413,15.1636195 10.6113225,15.0313689 C10.8002784,14.8989791 11.0606961,14.9449652 11.192993,15.1339211 L11.4491879,15.4998608 L13.2939211,14.2082599 C13.482877,14.0759165 13.7432947,14.1218561 13.8755916,14.3108121 L15.1152204,16.0812529 C15.1172622,16.0840835 15.1193039,16.0868677 15.1212993,16.0897448 C15.1232947,16.0926218 15.1252436,16.0954524 15.1271462,16.0983759 L16.2258933,17.6675174 Z M12.6948492,17.2787935 L14.1974478,16.2266821 L13.4309049,15.1318794 L11.9283063,16.1839907 L12.6948492,17.2787935 Z M15.4516937,18.0180046 L14.6765197,16.9109049 L13.1739211,17.9630162 L13.9491415,19.0701624 L15.4516937,18.0180046 Z M19.7080278,11.1421346 C19.7080278,12.5012529 18.6023202,13.6069606 17.2432019,13.6069606 C16.5458469,13.6069606 15.878051,13.3095128 15.4110441,12.7908585 C15.0030626,12.3377262 14.7783759,11.7522042 14.7783759,11.1421346 C14.7783759,9.78301624 15.8840835,8.67730858 17.2432019,8.67730858 C18.6023202,8.67730858 19.7080278,9.78296984 19.7080278,11.1421346 Z M18.872761,11.1421346 C18.872761,10.2436195 18.1417633,9.51257541 17.2432019,9.51257541 C16.3446404,9.51257541 15.6136427,10.2436195 15.6136427,11.1421346 C15.6136427,11.5454292 15.7621346,11.9324826 16.0317865,12.2319258 C16.3406032,12.5749884 16.782181,12.7716937 17.2432019,12.7716937 C18.1417633,12.7716937 18.872761,12.0406497 18.872761,11.1421346 Z M5.51610209,13.4020882 C5.6887703,13.4020882 5.85034803,13.2941531 5.91044084,13.1219026 C5.98640371,12.9041299 5.87141531,12.6659861 5.65364269,12.5900232 C4.6750348,12.2487239 3.84473318,11.6211137 3.25243619,10.7750812 L1.72111369,8.58816705 C0.970487239,7.51610209 0.68324826,6.21053364 0.91225058,4.91178654 C1.1412529,3.61303944 1.85781903,2.48440835 2.92988399,1.7337819 C4.60180974,0.563062645 6.86055684,0.556983759 8.55048724,1.7187471 C8.74060325,1.84937355 9.00060325,1.8012529 9.1312297,1.61118329 C9.26190255,1.42106729 9.2137355,1.16111369 9.02366589,1.03039443 C7.04812065,-0.327656613 4.40663573,-0.319953596 2.45081206,1.04960557 C1.19600928,1.92816705 0.357447796,3.24830626 0.0896983759,4.76677494 C-0.178051044,6.28524362 0.158329466,7.8124826 1.03693735,9.06728538 L2.56816705,11.2541067 C3.26157773,12.2446404 4.23341067,12.9793039 5.37856148,13.3787007 C5.42408353,13.3945708 5.47044084,13.4020882 5.51610209,13.4020882 Z M10.9879814,13.4481206 L10.2220882,14.5419026 C10.2220418,14.541949 10.2220418,14.5419954 10.2219954,14.5420418 C10.221949,14.5421346 10.2219026,14.5422274 10.2218561,14.5422738 L6.62589327,19.6777726 C6.49415313,19.8659861 6.28334107,19.9668213 6.06928074,19.9668213 C5.9349884,19.9668213 5.79944316,19.9271462 5.6812993,19.8445012 L3.92148492,18.6121578 C3.77327146,18.5084455 3.67429234,18.3529002 3.64278422,18.1742459 C3.6112761,17.9955916 3.65113689,17.8155916 3.754942,17.6673782 L4.85568445,16.0953596 C4.85698376,16.0934571 4.85832947,16.0915081 4.85962877,16.0896056 C4.86097448,16.0876566 4.86236659,16.0857541 4.8637123,16.0838979 L6.10060325,14.3174478 C6.10213457,14.315174 6.10366589,14.3129466 6.10524362,14.3106729 C6.10682135,14.3083991 6.10839907,14.3061717 6.1100232,14.3039443 L7.34580046,12.5391183 C7.347471,12.5366125 7.34918794,12.5341531 7.35095128,12.5316473 C7.35266821,12.5291415 7.35447796,12.5266821 7.3562413,12.5242227 L8.11675174,11.4380974 C7.29174014,10.352065 6.88032483,9.01299304 6.9536891,7.63220418 C6.96589327,7.40185615 7.1625058,7.22473318 7.39290023,7.23730858 C7.62320186,7.24955916 7.8,7.44617169 7.78779582,7.67651972 C7.72,8.95234339 8.13508121,10.1858933 8.95661253,11.149884 C9.08,11.2946636 9.0899768,11.5045476 8.98083527,11.6603248 L8.27475638,12.6686775 L9.77735499,13.7208353 L10.4834339,12.7124826 C10.592529,12.5567053 10.7930394,12.4942923 10.9713689,12.5606961 C11.940464,12.9217633 13.0282599,12.9649188 14.0342459,12.6820418 C14.2562877,12.6196288 14.4869142,12.7490023 14.5493271,12.9710905 C14.6117401,13.1931787 14.4823666,13.4237123 14.2603248,13.4861717 C13.1904872,13.7868213 12.0408353,13.7717865 10.9879814,13.4481206 Z M6.80691415,17.9629698 L5.30436195,16.9108585 L4.52909513,18.0180046 L6.03164733,19.070116 L6.80691415,17.9629698 Z M8.05257541,16.1840835 L6.5499768,15.1319258 L5.78343387,16.2266357 L7.28603248,17.2787935 L8.05257541,16.1840835 Z M9.29823666,14.405058 L7.79568445,13.3529466 L7.02909513,14.4477494 L8.53164733,15.4998608 L9.29823666,14.405058 Z" id="XMLID_167_"></path>
                    </g>
                </g>
            </g>
        </g>
    </g>
</svg>